<?xml version="1.0" encoding="utf-8"?>
<!-- Generator: Adobe Illustrator 26.2.1, SVG Export Plug-In . SVG Version: 6.00 Build 0)  -->
<svg version="1.1" id="圖層_1" xmlns="http://www.w3.org/2000/svg" xmlns:xlink="http://www.w3.org/1999/xlink" x="0px" y="0px"
	 width="740px" height="360px" viewBox="0 0 740 360" style="enable-background:new 0 0 740 360;" xml:space="preserve">
<style type="text/css">
	.st0{fill:#C9C9CA;}
	.st1{fill:#796BAE;}
	.st2{fill:#EE87B4;}
	.st3{enable-background:new    ;}
	.st4{fill:#FFFFFF;}
	.st5{fill:#606060;}
</style>
<g>
	<path class="st0" d="M124.3,317.7L107,300.4v12.5c-1.5,0-4.9-0.4-8.7-4.2c-4.8-4.8-20.6-23.6-28-31.5c-9-9.6-14.4-12.2-22.3-12.2
		h-8.2v11.2h10.8c4.7,0,8.6,3.5,16.3,11.2s23.2,27.8,28,32.6c4,4,9.9,4.2,12.1,4.2V335L124.3,317.7z"/>
	<path class="st0" d="M71.6,300c-3.4,3.9-6.3,7.1-7.9,8.8c-3.8,3.8-7.2,4.2-8.7,4.2v-12.5l-17.3,17.3L55,334.9v-10.8
		c2.2,0,8.1-0.2,12.1-4.2c2.1-2.1,6.2-7,10.7-12.6C75.7,304.9,73.6,302.4,71.6,300"/>
	<path class="st0" d="M88.3,290.1c0.7,0.8,1.4,1.6,2.1,2.4c1.8-2,3.4-3.8,4.7-5.1c7.7-7.7,11.6-11.2,16.3-11.2h10.8V265H114
		c-7.9,0-13.3,2.6-22.3,12.2c-2,2.1-4.6,5.1-7.4,8.3C85.6,287,86.9,288.6,88.3,290.1"/>
</g>
<path class="st0" d="M48.3,110.1h65.4c-2.7-10.8-8.1-24.2-18.9-28c10.6-5.1,17.9-15.9,17.9-28.4c0-17.4-14.2-31.6-31.7-31.6
	S49.3,36.2,49.3,53.7c0,12.5,7.3,23.3,17.9,28.4C56.3,87.2,51,100.1,48.3,110.1z M80.6,69.2c-2.1,0-3.7-1.5-3.7-3.6s1.6-3.6,3.7-3.6
	s3.6,1.5,3.6,3.6S82.7,69.2,80.6,69.2z M69.7,45.9c0-6.2,5.1-11.3,11.3-11.3c6.2,0,11.3,5.1,11.3,11.3c0,5.1-3.4,9.5-8.1,10.9v3.6
	h-7.3V50.3H81c2.3,0,4-1.8,4-4.1s-1.8-4-4-4c-2.3,0-4,1.7-4.1,3.8v0.2h-7.2L69.7,45.9L69.7,45.9z"/>
<g>
	<path class="st0" d="M84.2,153.4l-28.2,4L42.8,183l35,47.3l41.4-29.6L84.2,153.4z M68.3,173.6c-1.9,1.4-4.6,0.9-6-0.9
		c-1.4-1.9-1-4.5,0.9-5.9s4.6-0.9,6,0.9S70.2,172.3,68.3,173.6z"/>
</g>
<g>
	<path class="st1" d="M692.1,25.6h-9v3h9V25.6L692.1,25.6z M677.1,25.6h-9v3h9V25.6L677.1,25.6z M662.1,25.6h-9v3h9V25.6L662.1,25.6
		z M647.5,25.6h-3.7l0,0l3.4,4.7l2.4-1.7L647.5,25.6L647.5,25.6z M653.1,33.4l-2.4,1.7l5.2,7.3l2.4-1.7L653.1,33.4L653.1,33.4z
		 M661.9,45.6l-2.4,1.7c0,0,2.1,3,3.7,5.2l0,0l0,0l0,0l0,0l1.5,2.1l2.4-1.7L661.9,45.6L661.9,45.6z M670.6,57.8l-2.4,1.7
		c0,0,1.4,2,1.5,2.1l0,0l0,0l0,0l0,0l0,0l0,0l0,0l0,0l0,0l0,0l0,0l0,0l0,0l0,0l0,0l0,0l0,0l0,0l0,0l0,0l0,0l0,0l0,0l0,0l-3.7,5.1
		l2.4,1.7l3.7-5.2c0.7-1,0.7-2.4,0-3.5L670.6,57.8L670.6,57.8z M662.5,71.8c0,0-1.6,2.2-3,4.2l0,0l0,0l-2.2,3.1l2.4,1.7l5.2-7.3
		L662.5,71.8L662.5,71.8z M653.8,84l-5.2,7.3L651,93l5.2-7.3L653.8,84L653.8,84z M650.8,94.8H646l-2.1,3l0,0l0,0l0,0l0,0l0,0l0,0
		l0,0l0,0h3.5l0,0c1.8,0,3.5,0,3.5,0L650.8,94.8L650.8,94.8z M665.8,94.8h-9v3h9V94.8L665.8,94.8z M680.8,94.8h-9v3h9V94.8
		L680.8,94.8z M695.8,94.8h-9v3h9V94.8L695.8,94.8z M706.8,93l-1.3,1.8h-3.7v3c0,0,4.8,0,5.2,0l0,0l0,0l0,0l0,0l0,0l0,0l0,0l0,0l0,0
		l0,0l2.2-3L706.8,93L706.8,93z M715.6,80.8l-5.2,7.3l2.4,1.7l5.2-7.3L715.6,80.8L715.6,80.8z M724.3,68.7l-5.2,7.3l2.4,1.7l5.2-7.3
		L724.3,68.7L724.3,68.7z M730.4,58.2l-2.4,1.7l1.3,1.8l-1.5,2l2.4,1.7l2.4-3.3l0,0V62l0,0l0,0l0,0l0,0l0,0l0,0l0,0l0,0l0,0l0,0l0,0
		l0,0l0,0l0,0l0,0l0,0l0,0l0,0l0,0l0,0l0,0l0,0l0,0l0,0l0,0l0,0l0,0l0,0l0,0l0,0l0,0l0,0l0,0l0,0l0,0l0,0l0,0l0,0l0,0l0,0l0,0l0,0
		l0,0l0,0l0,0l0,0c0,0,0-0.1,0.1-0.1l0,0l0,0l0,0l0,0l0,0l0,0l0,0l0,0l0,0l0,0l0,0l0,0l0,0l0,0l0,0l0,0c0,0,0-0.1-0.1-0.2l0,0
		c0,0-0.1-0.1-0.1-0.2l0,0c0-0.1-0.1-0.1-0.2-0.2l0,0c0,0,0,0,0-0.1l0,0c0-0.1-0.1-0.1-0.1-0.2l0,0l-0.1-0.1l0,0c0,0,0,0-0.1-0.1
		l0,0c0,0,0,0,0-0.1l0,0l0,0l0,0l0,0l0,0l0,0l0,0l0,0l0,0l0,0l0,0c0,0,0-0.1-0.1-0.1l0,0c0,0,0-0.1-0.1-0.1l0,0l0,0l0,0l0,0l0,0l0,0
		l0,0l0,0l0,0l0,0l0,0l0,0l0,0l0,0l0,0l0,0l0,0l0,0l0,0l0,0l0,0l0,0l0,0l0,0l0,0l0,0l0,0l0,0l0,0l0,0l0,0l0,0l0,0l0,0l0,0l0,0l0,0
		l0,0l0,0l0,0l0,0l0,0l0,0l0,0l0,0l0,0l0,0l0,0l0,0l0,0l0,0l0,0l0,0l0,0l0,0l0,0l0,0l0,0l0,0l0,0l0,0l0,0l0,0l0,0l0,0l0,0l0,0l0,0
		l0,0l0,0l0,0l0,0l0,0l0,0l0,0l0,0l0,0l0,0l0,0l0,0l0,0l0,0l0,0l0,0l0,0l0,0l0,0l0,0l0,0l0,0l0,0l0,0l0,0l0,0l0,0l0,0l0,0l0,0l0,0
		l0,0l0,0l0,0l0,0l0,0l0,0l0,0l0,0l0,0l0,0l0,0l0,0l0,0l0,0l0,0l0,0l0,0l0,0l0,0l0,0l0,0l0,0l0,0l0,0l0,0l0,0l0,0l0,0l0,0l0,0l0,0
		l0,0l0,0l0,0l0,0l0,0l0,0l0,0l0,0l0,0l0,0l0,0l0,0l0,0l0,0l0,0l0,0l0,0l0,0l0,0l0,0l0,0l0,0l0,0l0,0l0,0l0,0l0,0l0,0l0,0l0,0l0,0
		l0,0l0,0l0,0l0,0l0,0l0,0l0,0l0,0l0,0l0,0l0,0l0,0l0,0l0,0l0,0l0,0l0,0l0,0l0,0l0,0l0,0l0,0l0,0l0,0l0,0l0,0l0,0l0,0l0,0l0,0l0,0
		l0,0l0,0l0,0l0,0l0,0l0,0l0,0l0,0l0,0l0,0l0,0l0,0l0,0l0,0l0,0l0,0l0,0l0,0l0,0l0,0l0,0l0,0l0,0l0,0l0,0l0,0l0,0l0,0l0,0l0,0l0,0
		l0,0l0,0l0,0l0,0l0,0l0,0l0,0l0,0l0,0l0,0l0,0l0,0l0,0l0,0l0,0l0,0l0,0l0,0l0,0l0,0l0,0l0,0l0,0l0,0l0,0l0,0l0,0l0,0l0,0l-0.1-0.1
		l0,0l0,0l0,0l0,0l0,0l0,0l0,0l0,0l0,0l0,0l0,0l0,0l0,0l0,0l0,0l0,0l0,0l0,0l0,0l0,0l0,0l0,0l0,0l0,0l0,0l0,0l0,0l0,0l0,0v-0.1l0,0
		l0,0l0,0l0,0l0,0l0,0l0,0l0,0l0,0l0,0l0,0l-0.1-0.1l0,0l0,0l0,0l0,0l0,0L730.4,58.2L730.4,58.2L730.4,58.2L730.4,58.2L730.4,58.2
		L730.4,58.2L730.4,58.2L730.4,58.2L730.4,58.2L730.4,58.2L730.4,58.2L730.4,58.2L730.4,58.2L730.4,58.2L730.4,58.2L730.4,58.2z
		 M721.7,46l-2.4,1.7l5.2,7.3l2.4-1.7l0,0l0,0l0,0l0,0l0,0l0,0l0,0l0,0l0,0l0,0l0,0l0,0l0,0l0,0l0,0l0,0l0,0l0,0l0,0l0,0l0,0l0,0
		l0,0l0,0l0,0l0,0l0,0l0,0l0,0l0,0l0,0l0,0l0,0l0,0l0,0l0,0l0,0l0,0l0,0l0,0l0,0l0,0l0,0l0,0l0,0l0,0l0,0l0,0l0,0l0,0l0,0l0,0l0,0
		l0,0l0,0l0,0l0,0l0,0l0,0l0,0L721.7,46L721.7,46z M713,33.8l-2.4,1.7l5.2,7.3l2.4-1.7l-4.6-6.5l0,0l0,0l0,0l0,0l0,0l0,0l0,0l0,0
		l0,0l0,0l0,0l0,0l-0.1-0.1l0,0C713.1,34.1,713,33.8,713,33.8L713,33.8z M707.1,25.6h-9v3h7.5l1.5,2l2.4-1.7L707.1,25.6L707.1,25.6
		L707.1,25.6z"/>
</g>
<g>
	<path class="st2" d="M692.1,153h-9v3h9V153L692.1,153z M677.1,153h-9v3h9V153L677.1,153z M662.1,153h-9v3h9V153L662.1,153z
		 M647.5,153h-3.7l0,0l3.4,4.7l2.4-1.7L647.5,153L647.5,153z M653.1,160.8l-2.4,1.7c0,0,0.3,0.4,0.7,1l0,0l0,0l0,0l0,0l0,0l0,0l0,0
		l0,0l4.5,6.2l2.4-1.7L653.1,160.8L653.1,160.8z M661.9,173l-2.4,1.7l1,1.4l0,0l0,0l0,0l0,0c1.5,2.1,4.2,5.9,4.2,5.9l2.4-1.7
		L661.9,173L661.9,173z M670.6,185.2l-2.4,1.7c0,0,0.9,1.3,1.3,1.9l0,0l0,0l0,0l0,0l0,0l0,0l0,0c0,0,0,0.1,0.1,0.1l0,0l0,0l0,0l0,0
		l0,0l0,0l0,0l0,0l0,0l0,0l0,0l0,0l0,0l0,0l0,0l0,0l0,0l0,0l0,0l0,0l0,0l0,0l0,0l0,0l0,0l0,0l0,0l0,0l0,0l0,0l0,0l0,0l0,0l0,0l0,0
		l0,0l0,0c-0.2,0.3-3.7,5.2-3.7,5.2l2.4,1.7l3.7-5.2c0.7-1,0.7-2.4,0-3.5L670.6,185.2L670.6,185.2z M662.5,199.1l-1,1.3l0,0l0,0l0,0
		l0,0l0,0l0,0l0,0l0,0c-1.5,2.1-4.2,5.9-4.2,5.9l2.4,1.7l5.2-7.3L662.5,199.1L662.5,199.1z M653.8,211.3c0,0-2.3,3.1-3.8,5.3l0,0
		l0,0l0,0l0,0l0,0l0,0l0,0l0,0l0,0l0,0l-0.1,0.1l0,0l-1.3,1.8l2.4,1.7l5.2-7.3L653.8,211.3L653.8,211.3z M650.8,222.1H646l-2.1,3
		l0,0l0,0l0,0l0,0l0,0l0,0l0,0l0,0h3.5l0,0c1.8,0,3.5,0,3.5,0L650.8,222.1L650.8,222.1z M665.8,222.1h-9v3h9V222.1L665.8,222.1z
		 M680.8,222.1h-9v3h9V222.1L680.8,222.1z M695.8,222.1h-9v3h9V222.1L695.8,222.1z M706.8,220.4l-1.3,1.8h-3.7v3c0,0,4.8,0,5.2,0
		l0,0l0,0l0,0l0,0l0,0l0,0l0,0l0,0l0,0l0,0l1.7-2.4l0,0c0.2-0.3,0.4-0.6,0.4-0.6L706.8,220.4L706.8,220.4z M715.6,208.2l-5.2,7.3
		l2.4,1.7l2.9-4.1l0,0l0,0l0,0l0,0l0,0l0,0c0-0.1,0.1-0.1,0.1-0.2l0,0c1.1-1.6,2.1-3,2.1-3L715.6,208.2L715.6,208.2z M724.3,196
		l-5.2,7.3l2.4,1.7l5.2-7.3L724.3,196L724.3,196z M730.4,185.5l-2.4,1.7l1.3,1.8l-1.5,2l2.4,1.7l2.4-3.3l0,0l0,0l0,0l0,0l0,0l0,0
		l0,0l0,0l0,0l0,0l0,0l0,0l0,0l0,0l0,0l0,0l0,0l0,0l0,0l0,0l0,0l0,0l0,0l0,0l0,0l0,0l0,0l0,0l0,0l0,0l0,0l0,0l0,0l0,0l0,0l0,0l0,0
		l0,0l0,0l0,0l0,0l0,0l0,0l0,0l0,0l0,0l0,0l0,0c0,0,0-0.1,0.1-0.1l0,0l0,0l0,0l0,0l0,0c0.1-0.1,0.1-0.2,0.1-0.2l0,0l0,0l0,0l0,0l0,0
		l0,0l0,0l0,0l0,0l0,0l0,0l0,0l0,0l0,0l0,0l0,0l0,0l0,0l0,0l0,0l0,0l0,0l0,0l0,0l0,0l0,0l0,0l0,0l0,0l0,0l0,0l0,0l0,0l0,0l0,0
		L730.4,185.5L730.4,185.5z M721.7,173.3l-2.4,1.7l5.2,7.3l2.4-1.7L721.7,173.3L721.7,173.3z M713,161.1l-2.4,1.7l5.2,7.3l2.4-1.7
		L713,161.1L713,161.1z M707.1,153h-9v3h7.5l1.5,2l2.4-1.7l-2.3-3.2l0,0l0,0l0,0l0,0l0,0l0,0l0,0l0,0l0,0l0,0l0,0l0,0
		C707.2,153.1,707.2,153.1,707.1,153L707.1,153C707.2,153.1,707.2,153.1,707.1,153L707.1,153C707.2,153.1,707.2,153.1,707.1,153
		L707.1,153L707.1,153L707.1,153C707.2,153,707.1,153,707.1,153L707.1,153L707.1,153L707.1,153L707.1,153L707.1,153L707.1,153
		L707.1,153L707.1,153z"/>
</g>
<g>
	<path class="st1" d="M682.8,62.7c-0.3,0.3-0.7,0.4-1.1,0.4s-0.8-0.1-1.1-0.4c-0.3-0.3-0.4-0.6-0.4-1s0.1-0.7,0.4-1
		c0.3-0.3,0.7-0.4,1.1-0.4s0.8,0.1,1.1,0.4c0.3,0.3,0.5,0.6,0.5,1C683.3,62.1,683.1,62.4,682.8,62.7z M688.8,62.7
		c-0.3,0.3-0.7,0.4-1.1,0.4s-0.8-0.1-1.1-0.4c-0.3-0.3-0.5-0.6-0.5-1s0.1-0.7,0.5-1c0.3-0.3,0.7-0.4,1.1-0.4c0.4,0,0.8,0.1,1.1,0.4
		c0.3,0.3,0.5,0.6,0.5,1C689.3,62.1,689.1,62.5,688.8,62.7z M694.8,62.7c-0.3,0.3-0.7,0.4-1.1,0.4c-0.4,0-0.8-0.1-1.1-0.4
		c-0.3-0.3-0.5-0.6-0.5-1s0.1-0.7,0.5-1c0.3-0.3,0.7-0.4,1.1-0.4c0.4,0,0.8,0.1,1.1,0.4c0.3,0.3,0.4,0.6,0.4,1
		C695.3,62.1,695.1,62.5,694.8,62.7z"/>
	<path class="st1" d="M700.8,62.7c-0.3,0.3-0.7,0.4-1.1,0.4s-0.8-0.1-1.1-0.4c-0.3-0.3-0.4-0.6-0.4-1s0.1-0.7,0.4-1
		c0.3-0.3,0.7-0.4,1.1-0.4s0.8,0.1,1.1,0.4c0.3,0.3,0.5,0.6,0.5,1C701.3,62.1,701.1,62.4,700.8,62.7z M706.8,62.7
		c-0.3,0.3-0.7,0.4-1.1,0.4s-0.8-0.1-1.1-0.4c-0.3-0.3-0.5-0.6-0.5-1s0.1-0.7,0.5-1c0.3-0.3,0.7-0.4,1.1-0.4c0.4,0,0.8,0.1,1.1,0.4
		c0.3,0.3,0.5,0.6,0.5,1C707.3,62.1,707.1,62.5,706.8,62.7z M712.8,62.7c-0.3,0.3-0.7,0.4-1.1,0.4c-0.4,0-0.8-0.1-1.1-0.4
		c-0.3-0.3-0.5-0.6-0.5-1s0.1-0.7,0.5-1c0.3-0.3,0.7-0.4,1.1-0.4c0.4,0,0.8,0.1,1.1,0.4c0.3,0.3,0.4,0.6,0.4,1
		C713.3,62.1,713.1,62.5,712.8,62.7z"/>
</g>
<g>
	<path class="st2" d="M682.8,190c-0.3,0.3-0.7,0.4-1.1,0.4s-0.8-0.1-1.1-0.4c-0.3-0.3-0.4-0.6-0.4-1s0.1-0.7,0.4-1
		c0.3-0.3,0.7-0.4,1.1-0.4c0.4,0,0.8,0.1,1.1,0.4c0.3,0.3,0.5,0.6,0.5,1S683.1,189.8,682.8,190z M688.8,190.1
		c-0.3,0.3-0.7,0.4-1.1,0.4c-0.4,0-0.8-0.1-1.1-0.4c-0.3-0.3-0.5-0.6-0.5-1s0.1-0.7,0.5-1c0.3-0.3,0.7-0.4,1.1-0.4s0.8,0.1,1.1,0.4
		c0.3,0.3,0.5,0.6,0.5,1S689.1,189.8,688.8,190.1z M694.8,190.1c-0.3,0.3-0.7,0.4-1.1,0.4c-0.4,0-0.8-0.1-1.1-0.4
		c-0.3-0.3-0.5-0.6-0.5-1s0.1-0.7,0.5-1c0.3-0.3,0.7-0.4,1.1-0.4c0.4,0,0.8,0.1,1.1,0.4c0.3,0.3,0.4,0.6,0.4,1
		C695.3,189.5,695.1,189.8,694.8,190.1z"/>
	<path class="st2" d="M700.8,190c-0.3,0.3-0.7,0.4-1.1,0.4s-0.8-0.1-1.1-0.4c-0.3-0.3-0.4-0.6-0.4-1s0.1-0.7,0.4-1
		c0.3-0.3,0.7-0.4,1.1-0.4c0.4,0,0.8,0.1,1.1,0.4c0.3,0.3,0.5,0.6,0.5,1S701.1,189.8,700.8,190z M706.8,190.1
		c-0.3,0.3-0.7,0.4-1.1,0.4c-0.4,0-0.8-0.1-1.1-0.4c-0.3-0.3-0.5-0.6-0.5-1s0.1-0.7,0.5-1c0.3-0.3,0.7-0.4,1.1-0.4s0.8,0.1,1.1,0.4
		c0.3,0.3,0.5,0.6,0.5,1S707.1,189.8,706.8,190.1z M712.8,190.1c-0.3,0.3-0.7,0.4-1.1,0.4c-0.4,0-0.8-0.1-1.1-0.4
		c-0.3-0.3-0.5-0.6-0.5-1s0.1-0.7,0.5-1c0.3-0.3,0.7-0.4,1.1-0.4c0.4,0,0.8,0.1,1.1,0.4c0.3,0.3,0.4,0.6,0.4,1
		C713.3,189.5,713.1,189.8,712.8,190.1z"/>
</g>
<g>
	<g>
		<path d="M82,352c0.3,0.3,0.4,0.7,0.4,1.1s-0.1,0.8-0.4,1.1c-0.3,0.3-0.6,0.4-1,0.4s-0.7-0.1-1-0.4s-0.4-0.7-0.4-1.1
			s0.1-0.8,0.4-1.1c0.3-0.3,0.6-0.5,1-0.5C81.4,351.6,81.7,351.7,82,352z M82,340c0.3,0.3,0.4,0.7,0.4,1.1s-0.1,0.8-0.4,1.1
			c-0.3,0.3-0.6,0.5-1,0.5s-0.7-0.1-1-0.5c-0.3-0.3-0.4-0.7-0.4-1.1s0.1-0.8,0.4-1.1c0.3-0.3,0.6-0.5,1-0.5
			C81.4,339.6,81.7,339.7,82,340z M82,346c0.3,0.3,0.4,0.7,0.4,1.1s-0.1,0.8-0.4,1.1c-0.3,0.3-0.6,0.4-1,0.4s-0.7-0.1-1-0.4
			s-0.4-0.7-0.4-1.1s0.1-0.8,0.4-1.1c0.3-0.3,0.6-0.5,1-0.5C81.4,345.6,81.7,345.7,82,346z"/>
	</g>
</g>
<polygon class="st2" points="658.8,189.1 636.3,153 521.1,153 543.6,189.1 521.1,225.1 636.3,225.1 636.3,225.1 "/>
<polygon class="st2" points="536,189.1 513.5,153 398.3,153 420.8,189.1 398.3,225.1 513.5,225.1 513.5,225.1 "/>
<polygon class="st2" points="413.2,189.1 390.7,153 275.5,153 298,189.1 275.5,225.1 390.7,225.1 390.7,225.1 "/>
<polygon class="st2" points="290.3,189.1 267.9,153 152.7,153 175.2,189.1 152.7,225.1 267.9,225.1 267.9,225.1 "/>
<g>
	<path class="st2" d="M53,172.3c-2.2,0-4-0.4-5.4-1.9l2.2-2.2c0.7,0.7,2,1,3.2,1c1.4,0,2-0.5,2-1.3c0-0.3-0.1-0.6-0.3-0.8
		s-0.5-0.3-0.9-0.4l-1.7-0.2c-1.3-0.2-2.2-0.6-2.9-1.3s-1-1.6-1-2.9c0-2.6,2-4.5,5.2-4.5c2,0,3.6,0.5,4.8,1.7l-2.2,2.2
		c-0.9-0.9-2.1-0.8-2.7-0.8c-1.2,0-1.7,0.7-1.7,1.3c0,0.2,0.1,0.4,0.3,0.7c0.2,0.2,0.5,0.4,1,0.4l1.7,0.2c1.3,0.2,2.2,0.6,2.8,1.2
		c0.8,0.7,1.1,1.8,1.1,3.1C58.5,170.8,56,172.3,53,172.3z"/>
	<path class="st2" d="M64.2,172.2c-2.4,0-3.3-1.7-3.3-3.2v-4.6h-1v-2.5h1v-3.1h3.3v3.1h1.7v2.5h-1.7v4.4c0,0.4,0.2,0.7,0.7,0.7h1
		v2.8L64.2,172.2L64.2,172.2z"/>
	<path class="st2" d="M73,172.2v-0.9c-0.7,0.7-1.3,1-2.4,1s-2-0.4-2.6-1s-0.9-1.5-0.9-2.5c0-1.6,1.1-3.1,3.7-3.1H73v-0.3
		c0-1-0.5-1.3-1.6-1.3c-0.8,0-1.2,0.2-1.7,0.7l-2-2c1.1-1.1,2.1-1.4,3.9-1.4c3.1,0,4.7,1.3,4.7,3.9v7L73,172.2L73,172.2z M73,167.9
		h-1.7c-0.6,0-1,0.4-1,0.9s0.4,0.9,1.1,0.9c0.6,0,0.9-0.1,1.3-0.4c0.2-0.2,0.3-0.6,0.3-1.1C73,168.2,73,167.9,73,167.9z"/>
	<path class="st2" d="M82.4,175.8c-1.7,0-2.9-0.3-4-1.4l2-2c0.5,0.5,1.1,0.7,1.8,0.7c1.4,0,1.7-0.9,1.7-1.6v-0.8
		c-0.6,0.6-1.3,0.9-2.3,0.9s-1.9-0.3-2.5-1c-1-1-1-2.2-1-4.1c0-2,0-3.2,1-4.1c0.6-0.6,1.5-1,2.5-1c1.1,0,1.7,0.3,2.4,1v-0.9h3.2v10
		C87.3,174,85.4,175.8,82.4,175.8z M82.7,164.3c-1.2,0-1.3,1-1.3,2.1s0.1,2.1,1.3,2.1s1.3-1,1.3-2.1S83.9,164.3,82.7,164.3z"/>
	<path class="st2" d="M92.5,167.9c0,0.9,0.7,1.7,1.9,1.7c1.1,0,1.6-0.3,2.2-0.9l2,2c-1.1,1.1-2.2,1.7-4.2,1.7
		c-2.4,0-5.1-0.9-5.1-5.5c0-3.5,2-5.5,4.8-5.5c3.1,0,4.8,2.3,4.8,5.1v1.5L92.5,167.9L92.5,167.9z M95.5,164.9
		c-0.2-0.5-0.6-0.8-1.4-0.8s-1.2,0.4-1.4,0.8c-0.1,0.3-0.2,0.6-0.2,0.8h3.2C95.7,165.5,95.7,165.2,95.5,164.9z"/>
	<path class="st2" d="M105.2,172.2v-3l5.2-5.6c0.5-0.6,0.7-0.9,0.7-1.5c0-0.8-0.4-1.3-1.3-1.3c-0.6,0-1.3,0.3-1.3,1.4h-3.3
		c0-2.8,2.1-4.3,4.6-4.3c2.6,0,4.6,1.6,4.6,4.3c0,1.5-0.6,2.3-1.8,3.5l-3.4,3.6h5.2v3L105.2,172.2L105.2,172.2z"/>
</g>
<g class="st3">
	<path d="M49.9,195.5c-1.5,0-2.6-0.4-3.5-1.3l1-1c0.7,0.7,1.5,1,2.5,1c1.3,0,2.1-0.6,2.1-1.5c0-0.4-0.1-0.8-0.4-1
		c-0.3-0.2-0.5-0.3-1.1-0.4l-1.2-0.2c-0.8-0.1-1.5-0.4-1.9-0.8c-0.5-0.5-0.7-1.1-0.7-1.9c0-1.7,1.3-2.9,3.3-2.9
		c1.3,0,2.2,0.3,3.1,1.1l-1,1c-0.6-0.6-1.3-0.8-2.2-0.8c-1.2,0-1.8,0.7-1.8,1.6c0,0.4,0.1,0.7,0.4,0.9c0.3,0.2,0.7,0.4,1.1,0.5
		l1.1,0.2c0.9,0.1,1.4,0.4,1.9,0.7c0.5,0.5,0.8,1.2,0.8,2C53.4,194.4,51.9,195.5,49.9,195.5z"/>
	<path d="M57.4,195.4c-1.3,0-1.9-1-1.9-2v-3.9h-0.8v-1.1h0.8v-2.2h1.4v2.2h1.4v1.1h-1.4v3.8c0,0.5,0.3,0.8,0.8,0.8h0.6v1.2
		L57.4,195.4L57.4,195.4z"/>
	<path d="M63.9,195.4v-0.6c-0.5,0.5-1,0.7-1.9,0.7s-1.5-0.2-1.9-0.6c-0.4-0.4-0.6-0.9-0.6-1.5c0-1.2,0.8-2,2.5-2h1.9v-0.5
		c0-0.9-0.4-1.3-1.6-1.3c-0.8,0-1.2,0.2-1.6,0.7l-0.9-0.9c0.7-0.8,1.4-1,2.5-1c1.9,0,2.9,0.8,2.9,2.4v4.7L63.9,195.4L63.9,195.4z
		 M63.8,192.2h-1.7c-0.8,0-1.3,0.4-1.3,1s0.4,1,1.3,1c0.5,0,1,0,1.3-0.4c0.2-0.2,0.3-0.5,0.3-1.1L63.8,192.2L63.8,192.2z"/>
	<path d="M69.6,195.4c-1.3,0-1.9-1-1.9-2v-3.9h-0.8v-1.1h0.8v-2.2h1.4v2.2h1.4v1.1h-1.4v3.8c0,0.5,0.3,0.8,0.8,0.8h0.6v1.2
		L69.6,195.4L69.6,195.4z"/>
	<path d="M76.5,195.4v-0.7c-0.5,0.5-1.2,0.8-1.9,0.8c-0.7,0-1.3-0.2-1.8-0.6c-0.5-0.5-0.7-1.2-0.7-2v-4.5h1.4v4.3
		c0,1.1,0.6,1.6,1.4,1.6s1.5-0.5,1.5-1.6v-4.3h1.4v7.1h-1.3V195.4z"/>
	<path d="M82.5,195.5c-1.2,0-2.1-0.2-3-1l0.9-0.9c0.6,0.6,1.3,0.7,2,0.7c0.9,0,1.6-0.3,1.6-1c0-0.5-0.3-0.8-1-0.8l-1.1-0.1
		c-1.3-0.1-2.1-0.7-2.1-2c0-1.4,1.2-2.2,2.7-2.2c1.1,0,2,0.2,2.6,0.8l-0.9,0.9c-0.4-0.4-1.1-0.5-1.8-0.5c-0.9,0-1.3,0.4-1.3,0.9
		c0,0.4,0.2,0.7,1,0.8l1.1,0.1c1.3,0.1,2.1,0.7,2.1,2C85.5,194.7,84.2,195.5,82.5,195.5z"/>
	<path d="M92.7,195.4c-1.3,0-1.9-1-1.9-2v-3.9H90v-1.1h0.8v-2.2h1.4v2.2h1.4v1.1h-1.4v3.8c0,0.5,0.3,0.8,0.8,0.8h0.6v1.2L92.7,195.4
		L92.7,195.4z"/>
	<path d="M99.1,195.4v-0.6c-0.5,0.5-1,0.7-1.9,0.7s-1.5-0.2-1.9-0.6c-0.4-0.4-0.6-0.9-0.6-1.5c0-1.2,0.8-2,2.5-2h1.9v-0.5
		c0-0.9-0.4-1.3-1.6-1.3c-0.8,0-1.2,0.2-1.6,0.7l-0.9-0.9c0.7-0.8,1.4-1,2.5-1c1.9,0,2.9,0.8,2.9,2.4v4.7L99.1,195.4L99.1,195.4z
		 M99.1,192.2h-1.7c-0.8,0-1.3,0.4-1.3,1s0.4,1,1.3,1c0.5,0,1,0,1.3-0.4c0.2-0.2,0.3-0.5,0.3-1.1L99.1,192.2L99.1,192.2z"/>
	<path d="M105.1,198.3c-1.1,0-1.8-0.3-2.5-0.9l0.9-0.9c0.4,0.4,0.8,0.6,1.5,0.6c1.2,0,1.7-0.9,1.7-1.8v-0.9
		c-0.5,0.6-1.1,0.8-1.8,0.8c-0.7,0-1.3-0.2-1.7-0.6c-0.7-0.7-0.8-1.7-0.8-2.9s0.1-2.2,0.8-2.9c0.4-0.4,1-0.6,1.7-0.6
		c0.8,0,1.3,0.2,1.9,0.8v-0.8h1.4v7.1C108.1,197.1,107,198.3,105.1,198.3z M105.3,189.5c-1.3,0-1.5,1.1-1.5,2.2
		c0,1.1,0.2,2.2,1.5,2.2s1.4-1.1,1.4-2.2S106.6,189.5,105.3,189.5z"/>
	<path d="M112.7,195.5c-1.2,0-2.1-0.2-3-1l0.9-0.9c0.6,0.6,1.3,0.7,2,0.7c0.9,0,1.6-0.3,1.6-1c0-0.5-0.3-0.8-1-0.8l-1.1-0.1
		c-1.3-0.1-2.1-0.7-2.1-2c0-1.4,1.2-2.2,2.7-2.2c1.1,0,2,0.2,2.6,0.8l-0.9,0.9c-0.4-0.4-1.1-0.5-1.8-0.5c-0.9,0-1.3,0.4-1.3,0.9
		c0,0.4,0.2,0.7,1,0.8l1.1,0.1c1.3,0.1,2.1,0.7,2.1,2C115.7,194.7,114.4,195.5,112.7,195.5z"/>
</g>
<g class="st3">
	<path d="M31.6,209.1c0.3,2.5,1.1,5.9,4.2,7.8c-0.6,0.4-1.2,1.2-1.6,1.8c-2-1.4-3.1-3.4-3.8-5.5c-0.7,2.1-1.9,4.1-4.2,5.6
		c-0.2-0.4-0.7-1-1.1-1.4v1.3h-2v-6.1h-1.3v0.3c0,1.4-0.2,3.9-1.6,5.4c-0.4-0.3-1.2-0.8-1.6-1c1.2-1.3,1.3-3.3,1.3-4.4v-0.3h-1.1
		v-1.9h4.3v-2h-2.8l0,0h-0.9v-6h1.9v4.2H23v-5h2v15c3-2.1,3.8-5.1,4-7.8h-3.4V207H29v-5h2.1v5h4.3v2.1H31.6L31.6,209.1z M33.5,206.5
		c-0.3-0.9-1.2-2.2-1.9-3.3l1.7-0.8c0.8,1,1.7,2.3,2,3.2L33.5,206.5z"/>
	<path d="M36.9,217.4c0.6-0.9,1.1-2.2,1.4-3.3l1.8,0.7c-0.3,1.2-0.8,2.6-1.3,3.5L36.9,217.4z M44.1,206.5c-0.1-0.3-0.3-0.6-0.5-0.9
		c-4.9,0.5-5.7,0.6-6.1,0.8c-0.1-0.4-0.4-1.2-0.6-1.7c0.3-0.1,0.6-0.3,1-0.5c0.3-0.2,1.5-1.2,2.2-2.2l1.9,0.6c-0.6,0.7-1.3,1.4-2,2
		l2.7-0.2c-0.2-0.3-0.5-0.6-0.7-0.9l1.4-0.7c0.8,0.9,1.8,2.2,2.2,3L44.1,206.5z M39.5,211.6c-0.2,0.9-0.5,1.8-1.1,2.4
		c-0.3-0.3-1.1-0.9-1.5-1.1c1-1.1,1-2.4,1-3.6v-2.7h6.6v5.6c0,0.8-0.2,1.1-0.7,1.4c-0.5,0.2-1.2,0.2-2.2,0.2c-0.1-0.4-0.3-1-0.5-1.4
		c0.6,0,1.1,0,1.3,0s0.3-0.1,0.3-0.2v-0.9c-1,0.4-1.9,0.8-2.8,1.2L39.5,211.6z M39.7,209.4c0,0.5,0,1.1-0.1,1.7
		c0.6-0.2,1.4-0.4,2.3-0.7C41.4,210,40.5,209.6,39.7,209.4L39.7,209.4z M39.7,208.1v1l0.6-0.8c0.7,0.3,1.8,0.7,2.3,1v-1.2H39.7
		L39.7,208.1z M47,216.8c0.8,0,0.9-0.3,1-1.8c0.4,0.3,1.3,0.6,1.8,0.7c-0.2,2.3-0.8,2.8-2.7,2.8h-3.3c-2.4,0-3-0.5-3-2.2v-1.8h2.1
		v1.8c0,0.5,0.2,0.6,1.1,0.6L47,216.8L47,216.8z M42.7,210.1v-0.8l-0.7,1L42.7,210.1z M45.4,213.2c0.6,0.6,1.3,1.5,1.7,2.1l-1.5,1.1
		c-0.4-0.6-1.1-1.5-1.6-2.2L45.4,213.2z M48.4,207.7c-2,0-2.5-0.7-2.5-2.4v-3.1h2v1.1h4.2v1.6h-4.2v0.5c0,0.5,0.1,0.7,0.6,0.7H51
		c0.5,0,1.3-0.1,1.6-0.1c0,0.5,0.1,1.2,0.2,1.7c-0.4,0.1-1.1,0.1-1.7,0.1L48.4,207.7L48.4,207.7z M48.5,213.8
		c-2.1,0-2.5-0.5-2.5-2.3V208h2v1.2h4.3v1.6H48v0.8c0,0.5,0.1,0.6,0.8,0.6h2.1c0.5,0,0.6-0.1,0.7-0.9c0.4,0.3,1.2,0.5,1.7,0.6
		c-0.2,1.5-0.8,2-2.2,2L48.5,213.8L48.5,213.8z M51.8,214.1c0.5,1,1.1,2.4,1.4,3.2l-2,0.6c-0.2-0.8-0.8-2.3-1.2-3.3L51.8,214.1z"/>
	<path d="M64.2,216.3c0.7,0.1,1.4,0.1,2.1,0.1c1,0,3.9,0,5.1,0c-0.3,0.5-0.7,1.5-0.8,2.2h-4.5c-3.4,0-5.8-0.6-7.5-3.2
		c-0.6,1.4-1.4,2.6-2.4,3.5c-0.3-0.4-1.3-1.1-1.7-1.4c1.9-1.5,2.8-4,3.2-7l2.2,0.2c-0.1,0.8-0.2,1.5-0.4,2.2
		c0.5,1.5,1.4,2.3,2.4,2.9v-6.1h-3.8v-2.1H68v2.1h-3.8v2.1h4.9v2h-4.9V216.3L64.2,216.3z M57.5,208.4h-2.1v-4.5h6.7
		c-0.2-0.5-0.4-1-0.6-1.5l2.2-0.6c0.4,0.6,0.7,1.4,0.9,2.1h6.2v4.5h-2.2v-2.5H57.5V208.4z"/>
	<path d="M88.1,214.4c-0.6,0.7-1.3,1.4-2.1,2c0.4,0.3,0.9,0.5,1.3,0.5s0.5-0.3,0.6-1.3c0.4,0.4,1.1,0.7,1.6,0.8
		c-0.3,2-0.9,2.4-2.3,2.4c-1.2,0-2.2-0.5-3.1-1.4c-1.2,0.6-2.4,1-3.7,1.4c-0.2-0.4-0.7-1.3-1-1.7c1.2-0.3,2.5-0.6,3.6-1.1
		c-0.4-0.6-0.7-1.4-0.9-2.1h-3.5v0.7l2.7-0.1v1.4l-2.7,0.2v0.9c0,1-0.2,1.4-0.9,1.6c-0.7,0.3-1.6,0.3-3,0.3
		c-0.1-0.5-0.4-1.2-0.6-1.6c0.8,0.1,1.8,0,2,0c0.3,0,0.4-0.1,0.4-0.3v-0.7c-1.3,0.1-2.4,0.2-3.5,0.3l-0.2-1.6c1,0,2.2-0.1,3.6-0.2
		V214h-3.6v-1.6h3.6v-0.7c-1,0.1-1.9,0.1-2.8,0.2c-0.1-0.4-0.3-0.9-0.4-1.3c2.2-0.1,4.8-0.4,6.3-0.7h-6.6v-1.6H80v-0.7h-5.1v-1.5H80
		v-0.6h-6.1v-1.6h3.2c-0.2-0.4-0.4-0.8-0.7-1.1l1.9-0.6c0.4,0.5,0.9,1.2,1.1,1.7H83c0.3-0.5,0.6-1.2,0.8-1.7l2.4,0.4
		c-0.3,0.5-0.6,0.9-0.9,1.3h3.1v1.6h-6.2v0.6h5.2v1.5h-5.2v0.7h7v1.6h-3.6c1,0.4,2.2,1,2.8,1.5l-1,1.1h1.8v1.6h-2.7L88.1,214.4z
		 M81.8,212.2c-0.1-0.7-0.2-1.5-0.3-2.3h2.1c0,0.8,0.1,1.6,0.3,2.3h3c-0.7-0.5-1.7-1.1-2.6-1.4l1.1-1.2H80l1.2,1.2
		c-0.7,0.2-1.6,0.3-2.5,0.4v0.9L81.8,212.2L81.8,212.2z M84.3,213.8c0.2,0.4,0.3,0.8,0.6,1.2c0.5-0.3,1-0.7,1.3-1.2H84.3z"/>
	<path d="M107.4,214.7h-5.1c1.7,0.8,3.5,1.7,4.6,2.4l-1.4,1.6c-1.2-0.8-3.1-1.9-4.9-2.8l1-1.2h-5.3l1.5,1.2c-1.5,1-3.8,2.2-5.6,2.9
		c-0.3-0.4-0.8-1.2-1.2-1.6c1.6-0.6,3.7-1.6,4.9-2.5H91v-2h1.6l-0.3-9.3c1.1-0.4,2.5-0.9,3.4-1.3l0.9,1.7c-0.8,0.3-1.6,0.5-2.4,0.7
		l0.1,1.6h2.1v1.7h-2l0.1,1.6h2v1.7h-1.9l0.1,1.5h9.4c0-0.5,0.1-0.9,0.1-1.5h-1.8v-1.8h1.9c0-0.5,0-1,0.1-1.5h-1.8V206h1.9
		c0-0.5,0-1,0-1.5H102v-1.8h4c0,3.2-0.1,7.2-0.2,9.9h1.6V214.7L107.4,214.7z M98.8,208.8c-0.1,1.2-0.4,2.4-0.9,3.1
		c-0.3-0.2-1-0.6-1.4-0.8c0.4-0.7,0.6-1.6,0.7-2.5L98.8,208.8z M99.7,208.1H97v-6h1.8v1.2h2.8v1.8h-2.8v1.3h2l0,0h0.7v4.6
		c0,0.7-0.1,1-0.6,1.3c-0.5,0.2-1.2,0.2-2.1,0.2c-0.1-0.4-0.3-0.9-0.5-1.3c0.5,0,1,0,1.2,0s0.2,0,0.2-0.2
		C99.7,211,99.7,208.1,99.7,208.1z"/>
	<path d="M114,212.8c-0.2-0.5-0.5-1.3-0.9-2v8h-1.9v-7.5c-0.5,1.6-1.1,3.1-1.7,4.1c-0.2-0.6-0.7-1.6-1-2.2c1-1.4,1.9-3.9,2.4-5.9h-2
		v-2h2.2V202h1.9v3.4h1.7v2H113v0.8c0.5,0.6,1.8,2.7,2.1,3.2L114,212.8z M118.3,215.1c-0.6,1.3-1.6,2.6-2.5,3.4
		c-0.4-0.3-1.2-0.9-1.6-1.1c0.9-0.7,1.8-1.8,2.3-2.8L118.3,215.1z M118,204.3h-3v-1.7h10.2v1.7H122v0.8h2.9v4.4h-9.6v-4.4h2.7V204.3
		z M121,214.2v4.6h-1.9v-4.6H115v-1.7h10.3v1.7H121z M116.1,211.8v-1.6h8.1v1.6H116.1z M117,208h1v-1.4h-1V208z M120.5,204.3h-1v0.8
		h1V204.3z M119.5,208h1v-1.4h-1V208z M123.2,214.6c0.8,0.8,1.8,2,2.3,2.8l-1.7,1c-0.4-0.8-1.3-2.1-2.1-3L123.2,214.6z M122,206.7
		v1.4h1v-1.4H122z"/>
	<path d="M129.9,204.4c-0.6,0.7-1.2,1.4-1.8,1.8c-0.3-0.4-1-1.1-1.4-1.5c1-0.7,2.1-1.8,2.6-3l1.9,0.6c-0.1,0.2-0.2,0.4-0.4,0.7h4
		v1.3h-2.3c0.4,0.4,0.9,0.8,1.2,1.1l-1.7,0.9c-0.3-0.4-0.9-1-1.5-1.5l1-0.5L129.9,204.4L129.9,204.4z M142.8,211.2
		c-0.6,1.7-1.4,3.2-2.4,4.5c0.3,0.6,0.7,1,1.1,1c0.3,0,0.4-0.4,0.5-1.6c0.4,0.4,1,0.8,1.5,0.9c-0.3,2.1-0.8,2.6-2.2,2.6
		c-1,0-1.7-0.5-2.3-1.5c-0.7,0.6-1.5,1.2-2.4,1.7c-0.2-0.3-0.6-0.8-1-1.1c-3.1,0.3-6.2,0.5-8.5,0.6l-0.2-1.5c0.8,0,1.8-0.1,2.9-0.1
		v-0.8h-2.5v-1.1h2.5v-0.7h-2.1V213h2.1v-0.6h-2.2v-1.1h2.2v-0.8h-3V209h1.5c-0.3-0.3-0.7-0.8-1-1c1.2-0.5,1.9-1.3,2.2-2.4l1.6,0.2
		c-0.1,0.3-0.2,0.5-0.3,0.8c0.5,0.4,1,0.9,1.4,1.3c0.9-0.5,1.5-1.2,1.7-2.2l1.6,0.2c-0.1,0.3-0.1,0.6-0.3,0.8
		c0.6,0.5,1.2,1.1,1.5,1.5l-1,0.7h1.3c-0.1-0.9-0.1-1.9-0.1-2.9h2c0,1,0,2,0.1,2.9h4.2v1.5h-4.1c0.1,1.2,0.3,2.3,0.5,3.2
		c0.6-0.9,1.1-1.9,1.4-2.9L142.8,211.2z M131.1,209c-0.2-0.3-0.5-0.7-0.9-1.1c-0.4,0.4-0.8,0.8-1.3,1.1H131.1z M131.3,209h1.8
		c-0.2-0.3-0.5-0.6-0.8-0.8L131.3,209z M131.6,216.6l1.1-0.1v-6h-1.1V216.6z M135.4,209c-0.2-0.3-0.5-0.6-0.8-0.9
		c-0.3,0.3-0.6,0.6-1,0.9H135.4z M136.5,216.9c0.6-0.4,1.2-0.9,1.7-1.4c-0.4-1.4-0.8-3-1-5h-2.9v0.7h2.2v1.1h-2.2v0.6h2.1v1.1h-2.1
		v0.6h2.4v1.1h-2.4v0.6l2.2-0.1V216.9L136.5,216.9z M137.6,204.4c-0.4,0.7-1,1.3-1.5,1.7c-0.3-0.3-1.1-1-1.6-1.3
		c1-0.8,1.8-1.9,2.3-3l2,0.5c-0.1,0.3-0.2,0.5-0.3,0.8h5v1.3h-3c0.4,0.3,0.8,0.7,1,1.1l-1.8,0.8c-0.2-0.4-0.7-0.9-1.2-1.3l1.2-0.5
		h-2.1L137.6,204.4L137.6,204.4z M141.1,205.9c0.6,0.6,1.2,1.4,1.5,2l-1.6,0.9c-0.3-0.6-0.9-1.5-1.5-2.1L141.1,205.9z"/>
</g>
<g class="st3">
	<path class="st4" d="M210.9,189.3c-0.5-0.5-1.6-1.3-2.4-1.8l1.2-1.3c0.8,0.5,1.9,1.2,2.4,1.7L210.9,189.3z M208.8,195.5
		c0.6-1.2,1.4-3.3,2.1-5.1l1.5,1c-0.6,1.7-1.2,3.6-1.9,5.1L208.8,195.5z M211.2,185.1c-0.5-0.5-1.5-1.4-2.3-2l1.2-1.2
		c0.7,0.5,1.8,1.3,2.4,1.8L211.2,185.1z M222.2,188.3c0.2,0,0.2-0.1,0.3-1.1c0.2,0.2,0.8,0.4,1.1,0.5c-0.1,1.4-0.5,1.8-1.2,1.8h-0.7
		c-1,0-1.2-0.3-1.2-1.4c-0.5,0.7-1.1,1.3-1.9,1.8c-0.2-0.3-0.6-0.7-1-1c-1.2,0.6-1.6,0.8-1.7,1c-0.1-0.3-0.5-0.7-0.7-0.9
		c0.3-0.2,0.6-0.7,0.6-1.5v-0.6c-0.5,1-1.3,2-2.7,2.9c-0.2-0.3-0.7-0.8-1-1c1.2-0.7,1.9-1.4,2.3-2.2h-1.7c0.1-0.8,0.2-2,0.3-3.1
		h-0.4v-1.3h4.9v1.3h-1.1v0.5c0,0.3,0,0.7-0.1,1.1h1.4v1.5H217v1.2l0.8-0.4c0.1,0.3,0.3,0.7,0.4,1c0.8-0.6,1.3-1.2,1.6-1.9H218
		c0.1-0.8,0.3-2,0.3-3.1h-0.5v-1.3h5.2v1.3h-1.3v0.7c0,0.3,0,0.6-0.1,0.9h1.5v1.5h-1.9c-0.1,0.1-0.1,0.3-0.2,0.4h0.6v1
		c0,0.3,0,0.3,0.1,0.3L222.2,188.3L222.2,188.3L222.2,188.3z M213.4,190h8.9v6.6h-1.9V196h-5.3v0.7h-1.8V190H213.4z M214.9,185.2
		c0-0.4,0.1-0.8,0.1-1.1v-0.5h-0.7c0,0.5-0.1,1.1-0.2,1.6H214.9L214.9,185.2z M215.2,191.4v0.9h5.3v-0.9H215.2z M220.4,194.5v-0.9
		h-5.3v0.9H220.4z M220.2,185.2c0-0.3,0-0.7,0-0.9v-0.7h-0.7c0,0.5-0.1,1.1-0.2,1.6L220.2,185.2L220.2,185.2z"/>
	<path class="st4" d="M236.4,186.4c-0.7,1.2-1.7,2.1-2.8,3c1.6,0.6,3.6,1,5.6,1.2c-0.4,0.4-0.9,1.3-1.2,1.8
		c-0.6-0.1-1.1-0.2-1.7-0.3v4.5h-2v-0.5h-5.4v0.5H227v-4.4c-0.7,0.2-1.4,0.3-2.1,0.4c-0.2-0.5-0.6-1.3-0.9-1.7c2-0.3,4-0.8,5.7-1.5
		c-0.5-0.4-1-0.8-1.4-1.2c-0.6,0.4-1.2,0.7-2,1.1c-0.3-0.4-0.8-1.1-1.3-1.4c2.2-0.8,3.7-2,4.5-3.2h-3v1.8h-1.9V183h6
		c-0.2-0.4-0.4-0.7-0.5-1l1.9-0.5c0.2,0.5,0.6,1,0.8,1.5h5.6v3.5h-2v-1.8h-6.7l1.8,0.4c-0.2,0.2-0.3,0.4-0.5,0.7h3.6l0.3-0.1
		L236.4,186.4z M234.3,194.6v-1.4h-5.4v1.4H234.3z M234.3,191.6c-1-0.3-1.9-0.7-2.7-1.1c-0.8,0.4-1.6,0.8-2.5,1.1H234.3z
		 M229.7,187.2c0.5,0.5,1.2,0.9,1.9,1.3c0.7-0.4,1.3-0.9,1.8-1.4L229.7,187.2L229.7,187.2z"/>
</g>
<g class="st3">
	<path class="st4" d="M348.3,183.8c0.5,0,0.6-0.3,0.7-1.9c0.4,0.3,1.2,0.6,1.7,0.7c-0.2,2.3-0.7,2.9-2.2,2.9h-2
		c-1.9,0-2.3-0.6-2.3-2.3v-3.1H342c-0.2,3.1-1,4.8-5.2,5.6c-0.1-0.5-0.6-1.2-1-1.6c3.6-0.6,4.1-1.7,4.2-4h-4v-1.8h14.3v1.8H346v3.1
		c0,0.5,0.1,0.6,0.7,0.6H348.3L348.3,183.8L348.3,183.8z M338.3,176.4h-1.9v-4h5.8c-0.2-0.4-0.4-0.9-0.5-1.2l2-0.6
		c0.3,0.6,0.7,1.2,0.9,1.8h5.5v4h-2v-2.1h-9.7L338.3,176.4L338.3,176.4z M339.1,177.2v-1.8h8.3v1.8H339.1z"/>
	<path class="st4" d="M365.3,176.4c-0.7,2.1-1.6,3.9-2.8,5.5c0.5,1.2,1,1.8,1.5,1.8c0.4,0,0.6-0.8,0.7-2.8c0.4,0.4,1.1,0.9,1.6,1.1
		c-0.3,3-0.9,3.7-2.4,3.7c-1.1,0-2-0.8-2.7-2.1c-0.8,0.9-1.7,1.6-2.7,2.2c-0.3-0.4-1-1.2-1.4-1.6c1.2-0.7,2.3-1.6,3.3-2.6
		c-0.5-1.8-0.9-4-1.1-6.5h-4.6v1.7h4c0,0,0,0.5,0,0.7c0,3.4-0.1,4.8-0.5,5.2c-0.3,0.4-0.6,0.6-1.1,0.6c-0.4,0.1-1.1,0.1-1.8,0
		c0-0.6-0.2-1.3-0.5-1.8c0.6,0,1.1,0.1,1.4,0.1c0.2,0,0.4,0,0.5-0.2c0.2-0.2,0.2-1,0.3-3h-2.1c-0.1,2.3-0.4,5.5-1.7,7.4
		c-0.3-0.4-1.2-1.1-1.6-1.3c1.2-1.9,1.3-4.7,1.3-6.8V173h6.5c0-0.8-0.1-1.6-0.1-2.4h2c0,0.8,0,1.6,0,2.4h2.4c-0.6-0.5-1.4-1-2-1.4
		l1.2-1.1c0.9,0.4,2,1.2,2.6,1.7l-0.8,0.8h1.7v1.9h-4.9c0.1,1.6,0.4,3.1,0.6,4.4c0.6-1.1,1.2-2.3,1.5-3.6L365.3,176.4z"/>
</g>
<g class="st3">
	<path class="st4" d="M323.6,194.8h-2.8c0.4,0.3,0.8,0.7,1.1,1l-1.2,1h1.3v4h-5v0.9h5.9c0,0,0,0.5,0,0.7c-0.2,2.1-0.4,3.2-0.8,3.6
		c-0.3,0.4-0.7,0.5-1.2,0.6c-0.4,0-1.2,0.1-2,0c0-0.6-0.2-1.3-0.5-1.7c0.7,0.1,1.3,0.1,1.6,0.1c0.2,0,0.4,0,0.5-0.1
		c0.2-0.2,0.3-0.6,0.4-1.5H317v4h-1.9v-3.1c-1.3,1.3-3.1,2.4-4.9,3.1c-0.3-0.5-0.8-1.2-1.2-1.5c1.7-0.5,3.4-1.4,4.6-2.4h-3.4
		c0.2-1.1,0.5-2.8,0.6-4.1h4.3v-0.9h-4.9v-1.6h3.3c-0.4-0.4-1-1-1.5-1.5l0.6-0.5h-0.9c-0.5,0.8-1.1,1.5-1.6,2.1
		c-0.3-0.3-0.9-1-1.3-1.3c0.9-0.8,1.8-2.1,2.3-3.4l1.7,0.5c-0.1,0.2-0.2,0.4-0.3,0.6h3.5v1.5h-2.3c0.4,0.4,0.8,0.8,1.1,1.1l-1,0.9
		h6.8c-0.4-0.4-1-1-1.6-1.4l0.7-0.6h-1.3c-0.4,0.6-0.8,1.1-1.2,1.6c-0.3-0.3-1-0.9-1.4-1.1c0.9-0.8,1.6-1.9,2-3l1.7,0.4
		c-0.1,0.2-0.2,0.5-0.3,0.7h4.4L323.6,194.8L323.6,194.8z M315.2,200.9h-2.6c0,0.3-0.1,0.6-0.1,0.9h2.7V200.9z M320.2,198.4H317v0.9
		h3.2V198.4z"/>
	<path class="st4" d="M339.3,198.7v2.1h-14.7v-2.1H339.3z"/>
	<path class="st4" d="M354.9,194.7H352c0.4,0.4,0.8,0.8,1,1.1l-1.4,1c-0.3-0.4-0.9-1.1-1.3-1.6l0.7-0.5h-1.4c-0.4,0.5-0.8,1-1.2,1.4
		h0.1v0.8h4.7v1.9h1.6v1.4h-1.6v2h-4.7v0.5h5v1.4h-5v0.6h6.1v1.4h-6.1v1.3h-1.9V206h-5.9v-1.4h5.9V204h-4.9v-1.4h4.9v-0.5H342v-1.3
		h4.5v-0.6h-6.2v-1.4h6.2v-0.6h-4.3v-1.3h2.5c-0.3-0.4-0.8-1.1-1.3-1.6l0.7-0.6h-1.2c-0.5,0.7-1,1.2-1.6,1.7c-0.3-0.4-0.9-1-1.3-1.3
		c0.9-0.7,1.9-1.7,2.4-2.8l1.7,0.5c-0.1,0.2-0.2,0.3-0.3,0.5h3.5v1.4c0.7-0.7,1.3-1.5,1.6-2.4l1.7,0.4c-0.1,0.2-0.2,0.4-0.2,0.6h4.5
		L354.9,194.7L354.9,194.7z M348.1,196.1c-0.4-0.3-0.9-0.8-1.3-1c0.2-0.1,0.3-0.3,0.5-0.4H345c0.4,0.4,0.8,0.9,1,1.2l-1.2,1h1.8
		v-0.8H348.1L348.1,196.1L348.1,196.1z M348.4,198.2v0.6h2.7v-0.6H348.4z M351.1,200.1h-2.7v0.6h2.7V200.1z"/>
	<path class="st4" d="M367.1,199.7c-0.6,1.5-1.5,2.7-2.5,3.8c1.5,1,3.5,1.7,5.8,2c-0.4,0.4-0.9,1.2-1.2,1.7
		c-2.5-0.5-4.5-1.3-6.1-2.5c-1.7,1.2-3.8,2-6.1,2.6c-0.2-0.4-0.8-1.3-1.2-1.7c2.3-0.4,4.3-1.1,5.9-2.2c-0.9-1-1.7-2.3-2.3-3.7
		l1.7-0.5c0.5,1.2,1.2,2.2,2,3.1c0.9-0.9,1.6-1.9,2.1-3.2L367.1,199.7z M361.7,197.1c-1.1,1.4-2.8,2.9-4.2,3.7
		c-0.4-0.4-1.1-1.1-1.5-1.4c1.4-0.7,3-1.9,3.9-3L361.7,197.1z M370.1,196.3h-14v-1.9h6.2c-0.2-0.5-0.5-1.1-0.8-1.6l1.8-0.6
		c0.4,0.7,1,1.6,1.2,2.2l0,0h5.7v1.9L370.1,196.3L370.1,196.3z M366.1,196.3c1.4,0.9,3.2,2.4,4.1,3.4l-1.6,1.2c-0.8-1-2.6-2.5-4-3.5
		L366.1,196.3z"/>
	<path class="st4" d="M385.3,200.5c0,0,0,0.5-0.1,0.8c-0.3,3.5-0.7,4.9-1.2,5.4c-0.4,0.4-0.8,0.6-1.3,0.6c-0.4,0-1.2,0-2,0
		c0-0.5-0.2-1.2-0.5-1.6c0.7,0.1,1.3,0.1,1.6,0.1c0.3,0,0.4,0,0.6-0.2c0.3-0.3,0.6-1.3,0.8-3.4h-1.4c-0.8,2.1-2.2,4-3.7,5.3
		c-0.3-0.3-1.1-0.9-1.5-1.2c1.3-1,2.5-2.4,3.2-4.1h-1.4c-1.2,2-3,3.7-4.8,4.8c-0.3-0.4-1-1.1-1.4-1.4c1.6-0.8,3-2,4-3.4H375
		c-0.8,0.8-1.6,1.4-2.5,1.9c-0.3-0.4-1-1.1-1.4-1.3c1.5-0.8,2.9-1.9,3.8-3.2h-1.4v-6.5H384v6.5h-6.9c-0.2,0.3-0.4,0.7-0.7,1
		L385.3,200.5L385.3,200.5L385.3,200.5z M375.4,195.6h6.7v-1h-6.7V195.6z M375.4,198.1h6.7v-1h-6.7V198.1z"/>
</g>
<g class="st3">
	<path class="st4" d="M472.4,183.8c0.5,0,0.6-0.3,0.7-1.9c0.4,0.3,1.2,0.6,1.7,0.7c-0.2,2.3-0.7,2.9-2.2,2.9h-2
		c-1.9,0-2.3-0.6-2.3-2.3v-3.1h-2.1c-0.2,3.1-1,4.8-5.2,5.6c-0.1-0.5-0.6-1.2-1-1.6c3.6-0.6,4.1-1.7,4.2-4h-4v-1.8h14.3v1.8h-4.3
		v3.1c0,0.5,0.1,0.6,0.7,0.6H472.4L472.4,183.8L472.4,183.8z M462.4,176.4h-1.9v-4h5.8c-0.2-0.4-0.4-0.9-0.5-1.2l2-0.6
		c0.3,0.6,0.7,1.2,0.9,1.8h5.5v4h-2v-2.1h-9.7L462.4,176.4L462.4,176.4z M463.2,177.2v-1.8h8.3v1.8H463.2z"/>
	<path class="st4" d="M489.5,176.4c-0.7,2.1-1.6,3.9-2.8,5.5c0.5,1.2,1,1.8,1.5,1.8c0.4,0,0.6-0.8,0.7-2.8c0.4,0.4,1.1,0.9,1.6,1.1
		c-0.3,3-0.9,3.7-2.4,3.7c-1.1,0-2-0.8-2.7-2.1c-0.8,0.9-1.7,1.6-2.7,2.2c-0.3-0.4-1-1.2-1.4-1.6c1.2-0.7,2.3-1.6,3.3-2.6
		c-0.5-1.8-0.9-4-1.1-6.5h-4.6v1.7h4c0,0,0,0.5,0,0.7c0,3.4-0.1,4.8-0.5,5.2c-0.3,0.4-0.6,0.6-1.1,0.6c-0.4,0.1-1.1,0.1-1.8,0
		c0-0.6-0.2-1.3-0.5-1.8c0.6,0,1.1,0.1,1.4,0.1c0.2,0,0.4,0,0.5-0.2c0.2-0.2,0.2-1,0.3-3h-2.1c-0.1,2.3-0.4,5.5-1.7,7.4
		c-0.3-0.4-1.2-1.1-1.6-1.3c1.2-1.9,1.3-4.7,1.3-6.8V173h6.5c0-0.8-0.1-1.6-0.1-2.4h2c0,0.8,0,1.6,0,2.4h2.4c-0.6-0.5-1.4-1-2-1.4
		l1.2-1.1c0.9,0.4,2,1.2,2.6,1.7l-0.8,0.8h1.7v1.9h-4.9c0.1,1.6,0.4,3.1,0.6,4.4c0.6-1.1,1.2-2.3,1.5-3.6L489.5,176.4z"/>
</g>
<g class="st3">
	<path class="st4" d="M447.7,194.8H445c0.4,0.3,0.8,0.7,1.1,1l-1.2,1h1.3v4h-5.1v0.9h5.9c0,0,0,0.5,0,0.7c-0.2,2.1-0.4,3.2-0.8,3.6
		c-0.3,0.4-0.7,0.5-1.2,0.6c-0.4,0-1.2,0.1-2,0c0-0.6-0.2-1.3-0.5-1.7c0.7,0.1,1.3,0.1,1.6,0.1c0.2,0,0.4,0,0.5-0.1
		c0.2-0.2,0.3-0.6,0.4-1.5h-3.8v4h-1.9v-3.1c-1.3,1.3-3.1,2.4-4.9,3.1c-0.3-0.5-0.8-1.2-1.2-1.5c1.7-0.5,3.4-1.4,4.6-2.4h-3.4
		c0.2-1.1,0.5-2.8,0.6-4.1h4.3v-0.9h-4.9v-1.6h3.3c-0.4-0.4-1-1-1.5-1.5l0.6-0.5h-0.9c-0.5,0.8-1.1,1.5-1.6,2.1
		c-0.3-0.3-0.9-1-1.3-1.3c0.9-0.8,1.8-2.1,2.3-3.4l1.7,0.5c-0.1,0.2-0.2,0.4-0.3,0.6h3.5v1.5h-2.3c0.4,0.4,0.8,0.8,1.1,1.1l-1,0.9
		h6.8c-0.4-0.4-1-1-1.6-1.4l0.7-0.6h-1.3c-0.4,0.6-0.8,1.1-1.2,1.6c-0.3-0.3-1-0.9-1.4-1.1c0.9-0.8,1.6-1.9,2-3l1.7,0.4
		c-0.1,0.2-0.2,0.5-0.3,0.7h4.4v1.3L447.7,194.8L447.7,194.8z M439.3,200.9h-2.6c0,0.3-0.1,0.6-0.1,0.9h2.7V200.9z M444.3,198.4
		h-3.2v0.9h3.2V198.4z"/>
	<path class="st4" d="M463.1,203.8v2.2h-14.2v-2.2H463.1z M461.8,194.6v2.1h-11.6v-2.1H461.8z"/>
	<path class="st4" d="M479,194.7h-2.9c0.4,0.4,0.8,0.8,1,1.1l-1.4,1c-0.3-0.4-0.9-1.1-1.3-1.6l0.7-0.5h-1.4c-0.4,0.5-0.8,1-1.2,1.4
		h0.1v0.8h4.7v1.9h1.6v1.4h-1.6v2h-4.7v0.5h5v1.4h-5v0.6h6.1v1.4h-6.1v1.3h-1.9V206h-5.9v-1.4h5.9V204h-4.9v-1.4h4.9v-0.5h-4.5v-1.3
		h4.5v-0.6h-6.2v-1.4h6.2v-0.6h-4.3v-1.3h2.5c-0.3-0.4-0.8-1.1-1.3-1.6l0.7-0.6h-1.2c-0.5,0.7-1,1.2-1.6,1.7c-0.3-0.4-0.9-1-1.3-1.3
		c0.9-0.7,1.9-1.7,2.4-2.8l1.7,0.5c-0.1,0.2-0.2,0.3-0.3,0.5h3.5v1.4c0.7-0.7,1.3-1.5,1.6-2.4l1.7,0.4c-0.1,0.2-0.2,0.4-0.2,0.6h4.4
		L479,194.7L479,194.7z M472.2,196.1c-0.4-0.3-0.9-0.8-1.3-1c0.2-0.1,0.3-0.3,0.5-0.4H469c0.4,0.4,0.8,0.9,1,1.2l-1.2,1h1.8v-0.8
		H472.2L472.2,196.1L472.2,196.1z M472.5,198.2v0.6h2.7v-0.6H472.5z M475.3,200.1h-2.7v0.6h2.7V200.1z"/>
	<path class="st4" d="M491.2,199.7c-0.6,1.5-1.5,2.7-2.5,3.8c1.5,1,3.5,1.7,5.8,2c-0.4,0.4-0.9,1.2-1.2,1.7
		c-2.5-0.5-4.5-1.3-6.1-2.5c-1.7,1.2-3.8,2-6.1,2.6c-0.2-0.4-0.8-1.3-1.2-1.7c2.3-0.4,4.3-1.1,5.9-2.2c-0.9-1-1.7-2.3-2.3-3.7
		l1.7-0.5c0.5,1.2,1.2,2.2,2,3.1c0.9-0.9,1.6-1.9,2.1-3.2L491.2,199.7z M485.8,197.1c-1.1,1.4-2.8,2.9-4.2,3.7
		c-0.4-0.4-1.1-1.1-1.5-1.4c1.4-0.7,3-1.9,3.9-3L485.8,197.1z M494.2,196.3h-14v-1.9h6.2c-0.2-0.5-0.5-1.1-0.8-1.6l1.8-0.6
		c0.4,0.7,1,1.6,1.2,2.2l0,0h5.7L494.2,196.3L494.2,196.3z M490.2,196.3c1.4,0.9,3.2,2.4,4.1,3.4l-1.6,1.2c-0.8-1-2.6-2.5-4-3.5
		L490.2,196.3z"/>
	<path class="st4" d="M509.4,200.5c0,0,0,0.5-0.1,0.8c-0.3,3.5-0.7,4.9-1.2,5.4c-0.4,0.4-0.8,0.6-1.3,0.6c-0.4,0-1.2,0-2,0
		c0-0.5-0.2-1.2-0.5-1.6c0.7,0.1,1.3,0.1,1.6,0.1c0.3,0,0.4,0,0.6-0.2c0.3-0.3,0.6-1.3,0.8-3.4H506c-0.8,2.1-2.2,4-3.7,5.3
		c-0.3-0.3-1.1-0.9-1.5-1.2c1.3-1,2.5-2.4,3.2-4.1h-1.4c-1.2,2-3,3.7-4.8,4.8c-0.3-0.4-1-1.1-1.4-1.4c1.6-0.8,3-2,4-3.4H499
		c-0.8,0.8-1.6,1.4-2.5,1.9c-0.3-0.4-1-1.1-1.4-1.3c1.5-0.8,2.9-1.9,3.8-3.2h-1.4v-6.5H508v6.5h-6.9c-0.2,0.3-0.4,0.7-0.7,1
		L509.4,200.5L509.4,200.5L509.4,200.5z M499.5,195.6h6.7v-1h-6.7V195.6z M499.5,198.1h6.7v-1h-6.7V198.1z"/>
</g>
<g class="st3">
	<path class="st4" d="M591.6,183.8c0.5,0,0.6-0.3,0.7-1.9c0.4,0.3,1.2,0.6,1.7,0.7c-0.2,2.3-0.7,2.9-2.2,2.9h-2
		c-1.9,0-2.3-0.6-2.3-2.3v-3.1h-2.1c-0.2,3.1-1,4.8-5.2,5.6c-0.1-0.5-0.6-1.2-1-1.6c3.6-0.6,4.1-1.7,4.2-4h-4v-1.8h14.3v1.8h-4.3
		v3.1c0,0.5,0.1,0.6,0.7,0.6H591.6L591.6,183.8z M581.6,176.5h-1.9v-4h5.8c-0.2-0.4-0.4-0.9-0.5-1.2l2-0.6c0.3,0.6,0.7,1.2,0.9,1.8
		h5.5v4h-2v-2.1h-9.7L581.6,176.5L581.6,176.5z M582.3,177.2v-1.8h8.3v1.8H582.3z"/>
	<path class="st4" d="M609.4,179.3v1.5h-14.5v-1.5h2.8c-0.1-0.4-0.3-0.8-0.5-1.1l1.2-0.3h-2.9v-1.4h5.7v-0.6H597v-1.3h4.2V174H596
		v-1.4h2.7c-0.2-0.4-0.4-0.9-0.7-1.3l1.7-0.5c0.4,0.4,0.7,1,0.8,1.4l-1,0.3h4.2c0.3-0.5,0.6-1.2,0.8-1.7l2,0.3
		c-0.3,0.5-0.5,1-0.8,1.4h2.7v1.4h-5.3v0.6h4.3v1.3h-4.3v0.6h5.8v1.4H606l1.3,0.2c-0.2,0.4-0.4,0.8-0.6,1.2L609.4,179.3L609.4,179.3
		z M597.1,181.3h10.2v4.5h-2v-0.4h-6.4v0.5H597L597.1,181.3L597.1,181.3z M599,177.9c0.3,0.4,0.5,0.8,0.6,1.2l-0.7,0.2h5.9
		c0.2-0.4,0.4-0.9,0.5-1.4H599L599,177.9L599,177.9z M598.9,182.8v1.1h6.4v-1.1H598.9z"/>
</g>
<g class="st3">
	<path class="st4" d="M569.9,192.9c-0.1,0.1-0.2,0.2-0.2,0.3c1.5,1.3,4.1,2.4,6.6,2.9c-0.4,0.3-0.9,1-1.2,1.5
		c-0.3-0.1-0.7-0.2-1-0.3v4.1H563v-4c-0.3,0.1-0.7,0.2-1,0.3c-0.2-0.4-0.7-1.1-1-1.5c2.9-0.7,5.8-2,7.2-3.9L569.9,192.9z
		 M573.5,197.1c-0.8-0.3-1.5-0.6-2.2-1v0.4h-5.6v-0.3c-0.6,0.3-1.3,0.6-1.9,0.9L573.5,197.1L573.5,197.1z M563.9,201.9h9.4v5.4h-2
		V207h-5.6v0.4h-1.9L563.9,201.9L563.9,201.9z M565.7,200.3c-0.1-0.5-0.3-1.2-0.5-1.7l1.2-0.4h-1.8v2L565.7,200.3L565.7,200.3z
		 M565.8,203.2v0.6h5.6v-0.6H565.8z M571.3,205.7v-0.6h-5.6v0.6H571.3z M567.7,198.2h-1.2c0.3,0.5,0.5,1.2,0.6,1.7l-1,0.3h1.6
		L567.7,198.2L567.7,198.2z M570,195.3c-0.5-0.3-0.9-0.7-1.3-1c-0.4,0.4-0.9,0.7-1.4,1H570z M569.2,198.2v2h1.5l-1-0.3
		c0.2-0.5,0.5-1.2,0.6-1.7H569.2L569.2,198.2z M572.4,198.2h-1.7l1.2,0.3c-0.3,0.6-0.6,1.3-0.9,1.7h1.3L572.4,198.2L572.4,198.2z"/>
	<path class="st4" d="M587.5,204.6c1.5,0.4,3.1,1,4.2,1.5l-1.7,1.3c-1.2-0.6-3.4-1.4-5.1-1.9l1.3-0.9h-4.3l1.2,0.9
		c-1.3,0.8-3.3,1.5-5,1.9c-0.4-0.4-1-1-1.4-1.4c1.4-0.3,3-0.9,4.1-1.4h-2.5v-7.1H590v7.1L587.5,204.6L587.5,204.6z M589.4,197H579
		v-4h10.4V197z M580.2,199.5h7.8v-0.7h-7.8V199.5z M580.2,201.4h7.8v-0.7h-7.8V201.4z M580.2,203.3h7.8v-0.7h-7.8V203.3z
		 M587.4,194.4h-6.5v1h6.5V194.4z"/>
	<path class="st4" d="M602.4,195.3c0.9,0.9,2.6,1.2,4.7,1.4c-0.4,0.4-0.8,1.1-1.1,1.5c-1.8-0.2-3.2-0.7-4.2-1.6
		c-0.6,0.7-1.9,1.3-4.6,1.6c-0.1-0.3-0.4-0.7-0.6-1h-4.2v-1.5h4.8v1c3.1-0.3,3.5-1,3.5-1.6v-0.2h-1c-0.3,0.5-0.7,1-1.1,1.4
		c-0.3-0.3-1-0.8-1.4-1c0.8-0.7,1.5-1.8,1.9-2.9l1.7,0.4c-0.1,0.2-0.2,0.5-0.3,0.7h4.5l0.3-0.1l1.3,0.4c-0.4,0.9-1,1.9-1.5,2.5
		l-1.5-0.5c0.2-0.3,0.4-0.6,0.6-0.9h-1.8v0.3L602.4,195.3L602.4,195.3z M602.9,204.7c1.5,0.5,3,1.2,4,1.6l-1.7,1
		c-0.9-0.5-2.6-1.3-4.2-1.9l1-0.8h-4.5l1.4,0.6c-1.3,0.8-3.4,1.6-5,2.1c-0.3-0.4-1-1.1-1.4-1.4c1.5-0.3,3.2-0.8,4.4-1.3h-2.3v-6.5
		h10.7v6.5L602.9,204.7L602.9,204.7z M596.9,194.6h-4.1v-1.4h4.1V194.6z M596.3,200h6.9v-0.7h-6.9V200z M596.3,201.8h6.9v-0.7h-6.9
		V201.8z M596.3,203.6h6.9v-0.7h-6.9V203.6z"/>
	<path class="st4" d="M612.8,200.2c0.3,0.4,1.5,2.4,1.8,2.9l-1.3,1.4c-0.2-0.7-0.7-1.8-1.1-2.7v5.5h-1.8v-5.7
		c-0.4,1.6-1,3.3-1.8,4.2c-0.2-0.7-0.6-1.6-0.9-2.3c0.7-0.8,1.3-2.3,1.6-3.5l1.1,0.4v-1H608v-1.8h2.4v-5.3h1.8v5.3h2.4v1.8h-2.4v1.1
		L612.8,200.2z M608.7,197.5c0-1-0.4-2.5-0.7-3.7l1.3-0.3c0.4,1.2,0.8,2.7,0.8,3.7L608.7,197.5z M614.8,193.7
		c-0.4,1.3-0.9,2.8-1.3,3.7l-1.2-0.3c0.4-1,0.7-2.6,0.9-3.7L614.8,193.7z M621,203.1v4.3h-1.8v-4l-4.5,0.8l-0.3-1.8l4.8-0.8v-9.1
		h1.8v8.8l1.6-0.3l0.3,1.8L621,203.1z M615.5,197.3c0.9,0.5,2.1,1.3,2.7,1.8l-1,1.5c-0.5-0.6-1.7-1.4-2.6-2L615.5,197.3z
		 M617.9,196.7c-0.5-0.6-1.6-1.5-2.5-2.1l0.9-1.3c0.9,0.5,2,1.3,2.5,1.9L617.9,196.7z"/>
</g>
<polygon class="st1" points="658.8,61.7 636.3,25.6 521.1,25.6 543.6,61.7 521.1,97.8 636.3,97.8 636.3,97.8 "/>
<polygon class="st1" points="536,61.7 513.5,25.6 398.3,25.6 420.8,61.7 398.3,97.8 513.5,97.8 513.5,97.8 "/>
<polygon class="st1" points="413.2,61.7 390.7,25.6 275.5,25.6 298,61.7 275.5,97.8 390.7,97.8 390.7,97.8 "/>
<polygon class="st1" points="290.3,61.7 267.9,25.6 152.7,25.6 175.2,61.7 152.7,97.8 267.9,97.8 267.9,97.8 "/>
<polygon class="st1" points="99.3,122.2 81,135.9 62.7,122.2 "/>
<g class="st3">
	<path class="st5" d="M53,280.4c-2.2,0-4-0.4-5.4-1.9l2.2-2.2c0.7,0.7,2,1,3.2,1c1.4,0,2-0.5,2-1.3c0-0.3-0.1-0.6-0.3-0.8
		c-0.2-0.2-0.5-0.3-0.9-0.4l-1.7-0.2c-1.3-0.2-2.2-0.6-2.9-1.3c-0.7-0.7-1-1.6-1-2.9c0-2.6,2-4.5,5.2-4.5c2,0,3.6,0.5,4.8,1.7
		l-2.2,2.2c-0.9-0.9-2.1-0.8-2.7-0.8c-1.2,0-1.7,0.7-1.7,1.3c0,0.2,0.1,0.4,0.3,0.7c0.2,0.2,0.5,0.4,1,0.4l1.7,0.2
		c1.3,0.2,2.2,0.6,2.8,1.2c0.8,0.7,1.1,1.8,1.1,3.1C58.5,278.8,56,280.4,53,280.4z"/>
	<path class="st5" d="M64.2,280.3c-2.4,0-3.3-1.7-3.3-3.2v-4.6h-1V270h1v-3.1h3.3v3.1h1.7v2.5h-1.7v4.4c0,0.4,0.2,0.7,0.7,0.7h1v2.8
		L64.2,280.3L64.2,280.3z"/>
	<path class="st5" d="M73,280.3v-0.9c-0.7,0.7-1.3,1-2.4,1s-2-0.4-2.6-1s-0.9-1.5-0.9-2.5c0-1.6,1.1-3.1,3.7-3.1H73v-0.3
		c0-1-0.5-1.3-1.6-1.3c-0.8,0-1.2,0.2-1.7,0.7l-2-2c1.1-1.1,2.1-1.4,3.9-1.4c3.1,0,4.7,1.3,4.7,3.9v7L73,280.3L73,280.3z
		 M72.9,275.9h-1.7c-0.6,0-1,0.4-1,0.9s0.4,0.9,1.1,0.9c0.6,0,0.9-0.1,1.3-0.4c0.2-0.2,0.3-0.6,0.3-1.1
		C72.9,276.2,72.9,275.9,72.9,275.9z"/>
	<path class="st5" d="M82.4,283.9c-1.7,0-2.9-0.3-4-1.4l2-2c0.5,0.5,1.1,0.7,1.8,0.7c1.4,0,1.7-0.9,1.7-1.6v-0.8
		c-0.6,0.6-1.3,0.9-2.3,0.9s-1.9-0.3-2.5-1c-1-1-1-2.2-1-4.1c0-2,0-3.2,1-4.1c0.6-0.6,1.5-1,2.5-1c1.1,0,1.7,0.3,2.4,1v-0.9h3.2v10
		C87.2,282,85.3,283.9,82.4,283.9z M82.7,272.3c-1.2,0-1.3,1-1.3,2.1s0.1,2.1,1.3,2.1s1.3-1,1.3-2.1S83.9,272.3,82.7,272.3z"/>
	<path class="st5" d="M92.5,275.9c0,0.9,0.7,1.7,1.9,1.7c1.1,0,1.6-0.3,2.2-0.9l2,2c-1.1,1.1-2.2,1.7-4.2,1.7
		c-2.4,0-5.1-0.9-5.1-5.5c0-3.5,2-5.5,4.8-5.5c3.1,0,4.8,2.3,4.8,5.1v1.5L92.5,275.9L92.5,275.9z M95.5,272.9
		c-0.2-0.5-0.6-0.8-1.4-0.8s-1.2,0.4-1.4,0.8c-0.1,0.3-0.2,0.6-0.2,0.8h3.2C95.7,273.5,95.6,273.2,95.5,272.9z"/>
	<path class="st5" d="M109.7,280.4c-2.4,0-4.7-1.3-4.7-4.5h3.3c0,1,0.6,1.5,1.5,1.5s1.5-0.5,1.5-1.5c0-0.9-0.6-1.5-1.5-1.5h-0.5
		v-2.8h0.5c1,0,1.4-0.7,1.4-1.3c0-0.9-0.6-1.4-1.3-1.4s-1.3,0.5-1.3,1.3h-3.3c0-2.7,2-4.3,4.6-4.3s4.6,1.8,4.6,4.2
		c0,1.6-0.8,2.3-1.5,2.8c0.8,0.5,1.6,1.4,1.6,3.1C114.4,279,112.2,280.4,109.7,280.4z"/>
</g>
<g class="st3">
	<path d="M22.1,303.4v-6.7l-2.3,4.9h-1.1l-2.4-4.9v6.7h-1.5v-10h1.5l2.9,6.2l2.9-6.2h1.5v10H22.1z"/>
	<path d="M30.8,302.7c-0.5,0.5-1.2,0.8-2.1,0.8s-1.7-0.4-2.1-0.8c-0.7-0.7-0.8-1.6-0.8-2.8c0-1.2,0.2-2.1,0.8-2.8
		c0.5-0.5,1.1-0.8,2.1-0.8s1.7,0.4,2.1,0.8c0.7,0.7,0.8,1.6,0.8,2.8C31.6,301.1,31.5,302,30.8,302.7z M29.7,297.9
		c-0.3-0.3-0.6-0.4-1.1-0.4c-0.4,0-0.8,0.1-1,0.4c-0.4,0.4-0.5,1.2-0.5,1.9s0.1,1.5,0.5,1.9c0.3,0.3,0.6,0.4,1,0.4s0.8-0.2,1.1-0.4
		c0.4-0.4,0.5-1.2,0.5-1.9S30.1,298.4,29.7,297.9z"/>
	<path d="M36.2,303.4H35l-2.6-7.1h1.5l1.7,5l1.7-5h1.5L36.2,303.4z"/>
	<path d="M40.9,300.3c0,1.2,0.6,2,1.8,2c0.8,0,1.2-0.2,1.7-0.7l0.9,0.9c-0.7,0.7-1.4,1.1-2.7,1.1c-1.8,0-3.2-0.9-3.2-3.6
		c0-2.3,1.2-3.6,3-3.6c1.9,0,3,1.4,3,3.4v0.6L40.9,300.3L40.9,300.3z M43.9,298.3c-0.2-0.5-0.7-0.9-1.4-0.9s-1.2,0.4-1.4,0.9
		c-0.1,0.3-0.2,0.5-0.2,1h3.2C44.1,298.9,44.1,298.7,43.9,298.3z"/>
	<path d="M54.2,303.5c-1,0-1.9-0.4-2.6-1.1c-1-1-1-2.1-1-4s0-3,1-4c0.7-0.7,1.6-1.1,2.6-1.1c1.8,0,3.2,1.1,3.6,3.1h-1.5
		c-0.2-1-0.9-1.7-2-1.7c-0.6,0-1.1,0.2-1.5,0.6c-0.5,0.5-0.6,1.1-0.6,3.1s0.1,2.6,0.6,3.1c0.3,0.4,0.9,0.6,1.5,0.6
		c1.1,0,1.8-0.7,2-1.7h1.5C57.4,302.4,56,303.5,54.2,303.5z"/>
	<path d="M64.3,302.7c-0.5,0.5-1.2,0.8-2.1,0.8c-1,0-1.7-0.4-2.1-0.8c-0.7-0.7-0.8-1.6-0.8-2.8c0-1.2,0.2-2.1,0.8-2.8
		c0.5-0.5,1.1-0.8,2.1-0.8s1.7,0.4,2.1,0.8c0.7,0.7,0.8,1.6,0.8,2.8C65.2,301.1,65,302,64.3,302.7z M63.2,297.9
		c-0.3-0.3-0.6-0.4-1.1-0.4c-0.4,0-0.8,0.1-1,0.4c-0.4,0.4-0.5,1.2-0.5,1.9s0.1,1.5,0.5,1.9c0.3,0.3,0.6,0.4,1,0.4s0.8-0.2,1.1-0.4
		c0.4-0.4,0.5-1.2,0.5-1.9S63.7,298.4,63.2,297.9z"/>
	<path d="M75.7,303.4v-4.3c0-1.1-0.6-1.6-1.4-1.6s-1.5,0.5-1.5,1.5v4.4h-1.4v-4.3c0-1.1-0.6-1.6-1.4-1.6s-1.5,0.5-1.5,1.6v4.3h-1.4
		v-7.1h1.4v0.7c0.5-0.5,1.2-0.8,1.9-0.8c0.9,0,1.6,0.4,2,1c0.6-0.7,1.3-1,2.2-1c0.7,0,1.4,0.2,1.8,0.6c0.5,0.5,0.8,1.2,0.8,2v4.5
		L75.7,303.4L75.7,303.4z"/>
	<path d="M88,303.4v-4.3c0-1.1-0.6-1.6-1.4-1.6s-1.5,0.5-1.5,1.5v4.4h-1.4v-4.3c0-1.1-0.6-1.6-1.4-1.6s-1.5,0.5-1.5,1.6v4.3h-1.4
		v-7.1h1.4v0.7c0.5-0.5,1.2-0.8,1.9-0.8c0.9,0,1.6,0.4,2,1c0.6-0.7,1.3-1,2.2-1c0.7,0,1.4,0.2,1.8,0.6c0.5,0.5,0.8,1.2,0.8,2v4.5
		L88,303.4L88,303.4z"/>
	<path d="M95.9,303.4v-0.7c-0.5,0.5-1.2,0.8-1.9,0.8c-0.7,0-1.3-0.2-1.8-0.6c-0.5-0.5-0.7-1.2-0.7-2v-4.5H93v4.3
		c0,1.1,0.6,1.6,1.4,1.6s1.5-0.5,1.5-1.6v-4.3h1.4v7.1L95.9,303.4L95.9,303.4z"/>
	<path d="M103.9,303.4v-4.3c0-1.1-0.6-1.6-1.4-1.6s-1.5,0.5-1.5,1.6v4.3h-1.4v-7.1h1.4v0.7c0.5-0.5,1.2-0.8,1.9-0.8
		c0.7,0,1.3,0.2,1.8,0.6c0.5,0.5,0.7,1.2,0.7,2v4.5L103.9,303.4L103.9,303.4z"/>
	<path d="M107.5,294.9v-1.5h1.5v1.5H107.5z M107.6,303.4v-7.1h1.4v7.1H107.6z"/>
	<path d="M114,303.5c-1.6,0-3.2-1-3.2-3.6s1.6-3.6,3.2-3.6c1,0,1.7,0.3,2.3,1l-1,1c-0.4-0.5-0.8-0.7-1.4-0.7c-0.5,0-1,0.2-1.3,0.6
		s-0.4,0.9-0.4,1.7c0,0.8,0.1,1.3,0.4,1.7c0.3,0.4,0.8,0.6,1.3,0.6c0.6,0,0.9-0.2,1.4-0.7l1,0.9C115.7,303.2,115,303.5,114,303.5z"
		/>
	<path d="M121.8,303.4v-0.6c-0.5,0.5-1,0.7-1.9,0.7s-1.5-0.2-1.9-0.6s-0.6-0.9-0.6-1.5c0-1.2,0.8-2,2.5-2h1.9v-0.5
		c0-0.9-0.4-1.3-1.6-1.3c-0.8,0-1.2,0.2-1.6,0.7l-0.9-0.9c0.7-0.8,1.4-1,2.5-1c1.9,0,2.9,0.8,2.9,2.4v4.7L121.8,303.4L121.8,303.4z
		 M121.8,300.3h-1.7c-0.8,0-1.3,0.4-1.3,1s0.4,1,1.3,1c0.5,0,1,0,1.3-0.4c0.2-0.2,0.3-0.5,0.3-1.1L121.8,300.3L121.8,300.3z"/>
	<path d="M127.5,303.4c-1.3,0-1.9-1-1.9-2v-3.9h-0.8v-1.1h0.8v-2.2h1.4v2.2h1.4v1.1H127v3.8c0,0.5,0.3,0.8,0.8,0.8h0.6v1.2h-0.9
		C127.5,303.3,127.5,303.4,127.5,303.4z"/>
	<path d="M130.1,294.9v-1.5h1.5v1.5H130.1z M130.2,303.4v-7.1h1.4v7.1H130.2z"/>
	<path d="M138.6,302.7c-0.5,0.5-1.2,0.8-2.1,0.8s-1.7-0.4-2.1-0.8c-0.7-0.7-0.8-1.6-0.8-2.8c0-1.2,0.2-2.1,0.8-2.8
		c0.5-0.5,1.1-0.8,2.1-0.8s1.7,0.4,2.1,0.8c0.7,0.7,0.8,1.6,0.8,2.8C139.5,301.1,139.3,302,138.6,302.7z M137.6,297.9
		c-0.3-0.3-0.6-0.4-1.1-0.4c-0.4,0-0.8,0.1-1,0.4c-0.4,0.4-0.5,1.2-0.5,1.9s0.1,1.5,0.5,1.9c0.3,0.3,0.6,0.4,1,0.4s0.8-0.2,1.1-0.4
		c0.4-0.4,0.5-1.2,0.5-1.9S138,298.4,137.6,297.9z"/>
	<path d="M145.7,303.4v-4.3c0-1.1-0.6-1.6-1.4-1.6s-1.5,0.5-1.5,1.6v4.3h-1.4v-7.1h1.4v0.7c0.5-0.5,1.2-0.8,1.9-0.8s1.3,0.2,1.8,0.6
		c0.5,0.5,0.7,1.2,0.7,2v4.5L145.7,303.4L145.7,303.4z"/>
</g>
<g class="st3">
	<path d="M14.9,310.6c-0.4,1.2-0.8,2.3-1.4,3.5v12.7h-2v-9c-0.4,0.5-0.7,1-1.1,1.5c-0.2-0.5-0.7-1.7-1-2.3c1.4-1.7,2.8-4.3,3.6-6.9
		L14.9,310.6z M22.9,324.2c1.4,0.5,2.9,1.1,3.8,1.5l-1.8,1.2c-0.9-0.5-2.4-1.2-3.9-1.7l1.2-1h-3.5l1.2,0.8c-1.2,0.8-3,1.5-4.6,1.8
		c-0.3-0.4-0.7-1.1-1.1-1.5c1.3-0.3,2.8-0.7,3.8-1.2h-2.5v-6.7h10.2v6.7L22.9,324.2L22.9,324.2z M22.7,312.4v0.8h3.1v3.7H15.1v-3.7
		h3v-0.8h-3.3v-1.5h11.5v1.5H22.7z M17,315.6h1.1v-1.2H17V315.6z M17.4,319.3h6.1v-0.6h-6.1V319.3z M17.4,321.1h6.1v-0.6h-6.1V321.1
		z M17.4,323h6.1v-0.7h-6.1V323z M20.9,312.4h-1.2v0.8h1.2V312.4z M19.8,315.6H21v-1.2h-1.2V315.6z M22.7,314.4v1.2h1.2v-1.2H22.7z"
		/>
	<path d="M33.3,310.7c-0.5,1.3-1.1,2.6-1.7,3.9v12.2h-2v-9c-0.3,0.4-0.7,0.8-1,1.2c-0.2-0.5-0.8-1.7-1.1-2.2c1.5-1.6,3-4.2,3.9-6.7
		L33.3,310.7z M44.4,324.7v1.8H32.3v-1.8h1.5v-10H37c0.1-0.4,0.1-0.8,0.2-1.2h-4.1v-1.8h4.3c0.1-0.6,0.1-1.1,0.1-1.6l2.3,0.1
		c-0.1,0.5-0.2,1-0.3,1.5H44v1.8h-4.8c-0.1,0.5-0.2,0.8-0.3,1.2h4.2v10H44.4L44.4,324.7z M35.8,316.3v1h5.3v-1H35.8z M41.1,318.8
		h-5.3v1h5.3V318.8z M35.8,321.2v1h5.3v-1H35.8z M35.8,324.7h5.3v-1h-5.3V324.7z"/>
	<path d="M62.4,325.8h-7.5v1.1h-2.1v-9.7c-0.4,0.5-0.8,1-1.2,1.4c-0.1-0.1-0.3-0.3-0.4-0.5l0.2,1.4c-0.6,0.2-1.2,0.4-1.7,0.5v4.3
		c0,1-0.2,1.6-0.8,1.9c-0.6,0.4-1.3,0.4-2.5,0.4c-0.1-0.6-0.3-1.5-0.6-2.1c0.6,0,1.3,0,1.5,0s0.3-0.1,0.3-0.3v-3.7l-1.7,0.5l-0.5-2
		c0.6-0.1,1.4-0.3,2.2-0.5v-3.3h-2v-2h2V310h2.1v3.3h1.8v2h-1.8v2.7l1.2-0.3c-0.3-0.3-0.5-0.5-0.8-0.7c1.6-1.6,3.1-4.2,3.9-6.9
		l2,0.5c-0.3,0.8-0.6,1.6-1,2.4h2.4c-0.2-0.7-0.6-1.5-1-2.2l1.9-0.7c0.5,0.7,1,1.8,1.2,2.5l-1.1,0.5H62v2h-2.9v1.6h2.7v1.9h-2.7v1.6
		h2.6v1.9h-2.6v1.7h3.3C62.4,323.8,62.4,325.8,62.4,325.8z M57.1,315.1h-2.2v1.6h2.2V315.1z M57.1,318.6h-2.2v1.6h2.2V318.6z
		 M54.9,323.8h2.2v-1.7h-2.2V323.8z"/>
	<path d="M80.1,314.1c0,0,0,0.7,0,1c-0.2,7.4-0.3,10-0.9,10.8c-0.4,0.6-0.8,0.8-1.4,0.9c-0.5,0.1-1.4,0.1-2.2,0.1
		c0-0.6-0.3-1.5-0.6-2.1c0.8,0.1,1.5,0.1,1.8,0.1s0.4-0.1,0.6-0.3c0.4-0.5,0.6-2.7,0.7-8.5h-1.6c-0.2,4.8-1.1,8.5-4.1,10.9
		c-0.3-0.4-0.8-1-1.3-1.4c-2.6,0.3-5.2,0.5-7.1,0.7l-0.3-1.8c1-0.1,2.3-0.2,3.7-0.3v-1.1h-3.2v-1.5h3.2v-0.7h-3.1v-5.6h3.1v-0.7
		h-3.5v-1.5h3.5v-0.7c-1,0.1-2.1,0.1-3,0.1c-0.1-0.4-0.3-1.1-0.5-1.5c2.7-0.1,5.8-0.4,7.8-0.9l0.9,1.6c-1,0.2-2.1,0.4-3.2,0.5v0.9
		h3.5v1h1.7c0-1.2,0-2.4,0-3.8h2.1c0,1.3,0,2.6,0,3.8H80.1L80.1,314.1z M65.9,317.5h1.4v-0.8h-1.4V317.5z M67.3,319.6v-0.8h-1.4v0.8
		H67.3z M69.2,324c1-0.1,2.1-0.2,3.1-0.3c1.4-1.9,1.8-4.5,2-7.7h-1.6v-1.4h-3.5v0.7h3.2v5.6h-3.2v0.7h3.3v1.5h-3.3V324z M70.7,317.5
		v-0.8h-1.4v0.8H70.7z M69.2,318.8v0.8h1.4v-0.8H69.2z"/>
	<path d="M84.7,318.3c-0.6-0.6-2-1.4-3-1.8l1.2-1.6c1,0.4,2.4,1.1,3.1,1.6L84.7,318.3z M86.7,320.9c-0.8,1.9-1.7,4-2.7,5.8l-1.9-1.3
		c0.8-1.4,2-3.7,2.9-5.8L86.7,320.9z M85.6,313.6c-0.6-0.6-2-1.4-3-1.9l1.2-1.6c1,0.4,2.4,1.1,3.1,1.7L85.6,313.6z M98.5,324.1h-1.1
		v0.8c0,0.9-0.2,1.4-0.8,1.6c-0.6,0.3-1.5,0.3-2.8,0.3c-0.1-0.5-0.4-1.2-0.7-1.7c0.8,0,1.6,0,1.9,0s0.3-0.1,0.3-0.3V324h-5.7v2.7h-2
		V324h-1.3v-1.7h1.3v-4.5h3.7v-0.7h-5v-1.7h2.9v-0.7h-1.8v-1.4h1.8v-0.7h-2.1v-1.5h2.1V310h2.1v1.2h2.2V310h2.1v1.2h2.3v1.5h-2.3
		v0.7h2.1v1.4h-2.1v0.7h2.9v1.7h-5.1v0.7h4v4.5h1.1V324.1z M89.6,319.4v0.8h1.7v-0.8H89.6z M89.6,322.4h1.7v-0.8h-1.7V322.4z
		 M91.3,313.4h2.2v-0.7h-2.2V313.4z M91.3,315.6h2.2v-0.7h-2.2V315.6z M93.4,319.4v0.8h2v-0.8H93.4z M95.3,322.4v-0.8h-2v0.8H95.3z"
		/>
	<path d="M104.7,318.4c-0.3,1.6-0.8,3.3-1.4,4.7c0.3,0.2,0.6,0.4,1.1,0.7c1.2,0.7,2.9,0.8,5,0.8s5.3-0.2,7.3-0.5
		c-0.2,0.6-0.6,1.6-0.6,2.2c-1.5,0.1-4.7,0.2-6.8,0.2c-2.4,0-3.9-0.2-5.2-1c-0.8-0.4-1.4-1-1.8-1s-1.1,1.2-1.5,2.2l-1.4-2
		c0.6-0.8,1.3-1.4,1.9-1.7c0.4-0.9,0.8-2,1-3.1H100c0.4-1.1,0.9-2.5,1.3-3.9h-1.6v-1.9h4.2c-0.4,1.3-0.8,2.7-1.2,4h0.7l0.3-0.1
		L104.7,318.4z M101.7,313.7c-0.2-0.8-0.7-2.1-1-3.1l1.9-0.6c0.3,1,0.8,2.2,1,3L101.7,313.7z M107.6,323.8h-2v-9.3h4
		c-0.8-0.4-1.7-0.7-2.4-1l1.4-1.1c0.6,0.2,1.4,0.5,2.1,0.8c0.5-0.3,1-0.6,1.4-1h-6.4v-1.6h8.3l0.4-0.1l1.3,1c-0.9,0.9-2,1.7-3.2,2.4
		c0.4,0.2,0.8,0.4,1.1,0.6h2.2v7.4c0,0.9-0.2,1.3-0.7,1.6c-0.6,0.3-1.3,0.3-2.4,0.3c-0.1-0.5-0.3-1.2-0.5-1.7c0.6,0,1.2,0,1.4,0
		c0.2,0,0.3-0.1,0.3-0.3V321h-2.1v2.6h-1.9V321h-2.1L107.6,323.8L107.6,323.8L107.6,323.8z M107.6,316.1v1h2.1v-1H107.6z
		 M109.6,319.6v-1h-2.1v1H109.6z M113.7,316.1h-2.1v1h2.1V316.1z M113.7,319.6v-1h-2.1v1H113.7z"/>
	<path d="M133,320.9c0,0.9-0.2,1.3-0.8,1.6c-0.6,0.3-1.4,0.3-2.4,0.3c1.4,0.7,3,1.3,4.8,1.6c-0.4,0.5-1.1,1.3-1.4,1.9
		c-2.3-0.6-4.3-1.7-5.8-2.9v3.5h-2.3v-3.6c-1.6,1.4-3.7,2.5-6,3.1c-0.3-0.5-0.9-1.4-1.3-1.8c3-0.6,5.8-1.9,7.3-3.7v-1.3h-3.4v3.2
		h-2.3v-5h5.7v-0.9h-6.9v-1.8h4.9c-0.4-0.5-1.1-1.2-1.7-1.8l0.7-0.6H121c-0.6,0.9-1.2,1.7-1.9,2.3c-0.3-0.4-1-1.1-1.4-1.4
		c1-0.9,2.1-2.4,2.6-3.8l1.9,0.5c-0.1,0.2-0.2,0.5-0.3,0.7h3.9v1.6h-2.6c0.5,0.4,0.9,0.9,1.2,1.2l-1.3,1.2h1.9v-1h1.6
		c-0.4-0.3-0.9-0.7-1.2-0.9c1-0.8,1.8-2.1,2.2-3.4l1.9,0.5c-0.1,0.3-0.2,0.5-0.3,0.8h5v1.6h-3.1c0.5,0.4,1,0.8,1.2,1.1l-1.4,1.2
		c-0.4-0.5-1.2-1.2-1.8-1.7l0.8-0.6h-1.5c-0.3,0.5-0.7,1-1.1,1.4v0.9h6.5v1.8h-6.5v0.9h5.6L133,320.9L133,320.9L133,320.9z
		 M127.4,321.2c0.6,0.5,1.4,1,2.3,1.5c-0.1-0.5-0.4-1.2-0.7-1.6c0.6,0.1,1.3,0,1.5,0s0.3-0.1,0.3-0.3v-1.3h-3.4V321.2L127.4,321.2z"
		/>
	<path d="M152.4,312.6c-0.7,1.7-1.8,3.2-3,4.4c1,0.6,2.1,1.1,3.4,1.4c-0.2,0.5-0.4,1.5-0.5,2.1c-0.3-0.1-0.5-0.1-0.7-0.2v6.4h-1.9
		v-0.9H146v0.9h-2v-6.5c-0.3,0.1-0.6,0.2-0.9,0.3c-0.1-0.4-0.3-1.1-0.6-1.6v4.7h-4.7v1.2h-1.6v-13.6h6.3v3.5c1.4-1.2,2.6-3,3.3-4.9
		l1.8,0.5c-0.2,0.5-0.4,0.9-0.6,1.4h3.7l0.4-0.1L152.4,312.6z M137.8,313.1v3.4h1v-3.4H137.8z M137.8,321.9h1v-3.7h-1V321.9z
		 M141,313.1h-0.9v3.4h0.9V313.1z M141,321.9v-3.7h-0.9v3.7H141z M142.5,318.5c1.3-0.4,2.6-0.9,3.7-1.5c-0.5-0.5-0.9-1.1-1.3-1.7
		c-0.4,0.5-0.9,1-1.3,1.4c-0.2-0.4-0.7-1.1-1-1.5L142.5,318.5L142.5,318.5z M150.6,319.9c-1-0.5-2-1-2.8-1.6
		c-0.9,0.6-1.9,1.2-2.9,1.6H150.6z M149.5,323.9v-2.1h-3.7v2.1H149.5z M146.2,313.8c0.4,0.7,0.9,1.4,1.5,2c0.7-0.6,1.3-1.3,1.8-2
		H146.2z"/>
</g>
<polygon class="st2" points="99.3,240.5 81,254.2 62.7,240.5 "/>
<g>
	<g>
		<path class="st1" d="M54.1,36.4c-2.2,0-4-0.4-5.4-1.9l2.2-2.2c0.7,0.7,2,1,3.2,1c1.4,0,2-0.5,2-1.3c0-0.3-0.1-0.6-0.3-0.8
			c-0.2-0.2-0.5-0.3-0.9-0.4l-1.7-0.2c-1.3-0.2-2.2-0.6-2.9-1.3c-0.7-0.7-1-1.6-1-2.9c0-2.6,2-4.5,5.2-4.5c2,0,3.6,0.5,4.8,1.7
			l-2.2,2.2C56.2,24.9,55,25,54.4,25c-1.2,0-1.7,0.7-1.7,1.3c0,0.2,0.1,0.4,0.3,0.7c0.2,0.2,0.5,0.4,1,0.4l1.7,0.2
			c1.3,0.2,2.2,0.6,2.8,1.2c0.8,0.7,1.1,1.8,1.1,3.1C59.6,34.8,57.1,36.4,54.1,36.4z"/>
		<path class="st1" d="M65.3,36.2c-2.4,0-3.3-1.7-3.3-3.2v-4.6h-1v-2.5h1v-3.1h3.3v3.1H67v2.5h-1.7v4.4c0,0.4,0.2,0.7,0.7,0.7h1v2.8
			L65.3,36.2L65.3,36.2z"/>
		<path class="st1" d="M74.1,36.2v-0.9c-0.7,0.7-1.3,1-2.4,1s-2-0.4-2.6-1s-0.9-1.5-0.9-2.5c0-1.6,1.1-3.1,3.7-3.1H74v-0.3
			c0-1-0.5-1.3-1.6-1.3c-0.8,0-1.2,0.2-1.7,0.7l-2-2c1.1-1.1,2.1-1.4,3.9-1.4c3.1,0,4.7,1.3,4.7,3.9v7L74.1,36.2L74.1,36.2z
			 M74,31.9h-1.7c-0.6,0-1,0.4-1,0.9s0.4,0.9,1.1,0.9c0.6,0,0.9-0.1,1.3-0.4c0.2-0.2,0.3-0.6,0.3-1.1C74,32.2,74,31.9,74,31.9z"/>
		<path class="st1" d="M83.5,39.8c-1.7,0-2.9-0.3-4-1.4l2-2c0.5,0.5,1.1,0.7,1.8,0.7c1.4,0,1.7-0.9,1.7-1.6v-0.8
			c-0.6,0.6-1.3,0.9-2.3,0.9s-1.9-0.3-2.5-1c-1-1-1-2.2-1-4.1s0-3.2,1-4.1c0.6-0.6,1.5-1,2.5-1c1.1,0,1.7,0.3,2.4,1v-0.9h3.2v10
			C88.3,38,86.4,39.8,83.5,39.8z M83.8,28.3c-1.2,0-1.3,1-1.3,2.1s0.1,2.1,1.3,2.1s1.3-1,1.3-2.1S85,28.3,83.8,28.3z"/>
		<path class="st1" d="M93.6,31.9c0,0.9,0.7,1.7,1.9,1.7c1.1,0,1.6-0.3,2.2-0.9l2,2c-1.1,1.1-2.2,1.7-4.2,1.7
			c-2.4,0-5.1-0.9-5.1-5.5c0-3.5,2-5.5,4.8-5.5c3.1,0,4.8,2.3,4.8,5.1V32L93.6,31.9L93.6,31.9z M96.6,28.9c-0.2-0.5-0.6-0.8-1.4-0.8
			s-1.2,0.4-1.4,0.8c-0.1,0.3-0.2,0.6-0.2,0.8h3.2C96.8,29.5,96.7,29.2,96.6,28.9z"/>
		<path class="st1" d="M110,36.2V25.5l-3,2.6v-3.5l3-2.6h3.3v14.2H110L110,36.2z"/>
	</g>
</g>
<g class="st3">
	<path d="M21.8,74.2c-0.7-0.5-2.3-1.4-3.4-1.9l1.2-1.6c1,0.5,2.6,1.3,3.4,1.7L21.8,74.2z M24.1,76.5c-1,1.9-2.1,3.9-3.2,5.7
		l-1.8-1.4c1-1.4,2.3-3.6,3.4-5.7L24.1,76.5z M22.8,69.4c-0.7-0.6-2.2-1.5-3.2-2.1l1.3-1.5c1,0.5,2.5,1.4,3.3,1.9L22.8,69.4z
		 M34.5,80c0,1-0.2,1.6-0.9,1.9s-1.6,0.4-3,0.4c-0.1-0.6-0.4-1.5-0.6-2c0.8,0.1,1.8,0.1,2.1,0c0.3,0,0.4-0.1,0.4-0.3v-2.5
		c-1.8,0.5-3.7,1-5.2,1.3L26.7,77c1.5-0.3,3.7-0.8,5.8-1.3v-3.3h-5.8V76c0,2-0.1,4.7-1.1,6.4c-0.4-0.3-1.2-1-1.7-1.2
		c0.8-1.5,0.9-3.5,0.9-5.2v-5.5h3.9v-5h2.2v5h3.8L34.5,80L34.5,80L34.5,80z M25.8,70.2c-0.2-0.9-0.9-2.3-1.6-3.3l1.8-0.8
		c0.7,1,1.5,2.3,1.8,3.2L25.8,70.2z M27.8,73.2c1.4,0.3,3.1,0.9,4,1.4l-0.9,1.5c-0.9-0.5-2.6-1.2-4-1.6L27.8,73.2z M35.2,66.7
		c-0.6,1.3-1.3,2.5-1.8,3.4l-1.9-0.7c0.5-0.9,1.2-2.4,1.6-3.4L35.2,66.7z"/>
	<path d="M49.2,79.6c1.5,0.5,2.9,1,3.9,1.5l-1.6,1.3c-1.2-0.6-3.2-1.4-5.1-2.1l0.7-0.7h-4.4l1.3,0.6c-1.5,0.9-3.8,1.7-5.6,2.2
		c-0.3-0.4-1.1-1.2-1.5-1.5c1.6-0.3,3.4-0.7,4.7-1.2h-2.4v-5.3c-0.4,0.1-0.9,0.2-1.3,0.3c-0.2-0.5-0.7-1.3-1-1.7
		c2.1-0.3,3.4-0.7,4.2-1.3h-2.9c0.2-0.9,0.4-2.2,0.5-3.3H42v-0.7h-4.1v-1.3H42v-0.8h2v0.8h2v-0.8h2v0.8h3.8v3.2H48v0.8h5
		c0,0,0,0.3,0,0.6c-0.1,1.1-0.2,1.7-0.5,2.1c-0.3,0.3-0.6,0.4-1,0.4c-0.1,0-0.2,0-0.3,0v6.2L49.2,79.6L49.2,79.6z M40.2,70.4h1.7
		c0.1-0.3,0.1-0.5,0.1-0.8h-1.7L40.2,70.4z M41.2,73.9v0.7H49v-0.7H41.2z M41.2,75.8v0.7H49v-0.7H41.2z M41.2,78.4H49v-0.8h-7.7
		L41.2,78.4L41.2,78.4z M43.5,71.6c-0.2,0.4-0.5,0.8-0.8,1.1H46v-1.1H43.5z M46,69.6h-2c0,0.3,0,0.5-0.1,0.8H46V69.6z M44,68.3h2
		v-0.7h-2V68.3z M48,67.6v0.7h1.9v-0.7H48z M48,71.6v1.1h1.6c-0.1-0.2-0.1-0.4-0.3-0.6c0.4,0.1,0.8,0.1,1,0.1s0.3,0,0.4-0.1
		c0.1-0.1,0.1-0.2,0.1-0.5H48L48,71.6z"/>
	<path d="M64.6,72.9c-0.7,0.5-1.4,1-2.1,1.4H69v8h-2.2v-0.5h-6.2v0.5h-2.1v-5.9c-0.9,0.4-1.8,0.8-2.8,1.1c-0.3-0.5-0.9-1.3-1.3-1.8
		c2.4-0.7,4.6-1.8,6.7-3H55V71h5.8v-1.6h-4.2v-1.9h4.2v-1.9h2.1v1.9h3.9v0.9c0.7-0.7,1.3-1.5,1.9-2.3l1.8,0.9c-1,1.4-2.2,2.8-3.5,4
		h4.2v1.9H64.6z M66.8,76.1h-6.2v1.2h6.2V76.1z M66.8,80.1v-1.2h-6.2v1.2H66.8z M62.8,71h1c0.7-0.5,1.3-1.1,1.9-1.6h-2.9L62.8,71
		L62.8,71z"/>
	<path d="M77.8,66.2c-0.4,1.2-0.8,2.3-1.4,3.5v12.7h-2v-9c-0.4,0.5-0.7,1-1.1,1.5c-0.2-0.5-0.7-1.7-1-2.3c1.4-1.7,2.8-4.3,3.6-6.9
		L77.8,66.2z M85.9,79.7c1.4,0.5,2.9,1.1,3.8,1.5l-1.8,1.2c-0.9-0.5-2.4-1.2-3.9-1.7l1.2-1h-3.5l1.2,0.8c-1.2,0.8-3,1.5-4.6,1.8
		c-0.3-0.4-0.7-1.1-1.1-1.5c1.3-0.3,2.8-0.7,3.8-1.2h-2.5V73h10.2v6.7C88.5,79.7,85.9,79.7,85.9,79.7z M85.6,67.9v0.8h3.1v3.7H78.1
		v-3.7h3v-0.8h-3.3v-1.5h11.5v1.5H85.6z M79.9,71.1H81v-1.2h-1.1V71.1z M80.3,74.9h6.1v-0.6h-6.1V74.9z M80.3,76.7h6.1V76h-6.1V76.7
		z M80.3,78.5h6.1v-0.7h-6.1V78.5z M83.9,67.9h-1.2v0.8h1.2V67.9z M82.7,71.1h1.2v-1.2h-1.2V71.1z M85.6,69.9v1.2h1.2v-1.2H85.6z"/>
	<path d="M96.2,66.3c-0.4,1.3-1.1,2.6-1.7,3.9v12.2h-2v-9c-0.3,0.4-0.7,0.8-1,1.2c-0.2-0.5-0.8-1.7-1.1-2.2c1.5-1.6,3-4.2,3.9-6.7
		L96.2,66.3z M107.4,80.2V82H95.3v-1.8h1.5v-10h3.1c0.1-0.4,0.1-0.8,0.2-1.2H96v-1.8h4.3c0.1-0.6,0.1-1.1,0.1-1.6l2.3,0.1
		c-0.1,0.5-0.2,1-0.3,1.5h4.4V69H102c-0.1,0.4-0.2,0.8-0.3,1.2h4.2v10H107.4L107.4,80.2z M98.7,71.8v1h5.3v-1H98.7z M104,74.3h-5.3
		v1h5.3V74.3z M98.7,76.7v1h5.3v-1H98.7z M98.7,80.2h5.3v-1h-5.3V80.2z"/>
	<path d="M114,76.2l0.4,1.9c-1.7,0.7-3.6,1.5-5.2,2.1l-0.7-2.1c0.6-0.2,1.2-0.4,1.9-0.6v-5.6h-1.6v-2h1.6v-4h2v4h1.6v2h-1.6v4.9
		L114,76.2z M124.6,68.1v6.2h-10v-6.2h2.1c-0.3-0.6-0.7-1.3-1.1-1.9l1.8-0.7c0.5,0.6,1,1.5,1.3,2.1l-1.2,0.6h2.8
		c0.5-0.8,1-1.8,1.3-2.6l2.2,0.7c-0.5,0.7-1,1.4-1.4,2L124.6,68.1L124.6,68.1z M115.5,75.1h8.4v7.2h-2v-0.9h-4.4v0.9h-1.9
		L115.5,75.1L115.5,75.1z M116.4,73h2.4v-3.4h-2.4V73z M117.6,69.8c0.5,0.8,0.9,1.8,1.1,2.5l-1.2,0.4c-0.1-0.7-0.6-1.7-1-2.5
		L117.6,69.8z M117.5,76.7v1h4.4v-1H117.5z M121.8,80v-0.8h-4.4V80H121.8z M120.4,69.5V73h2.5v-3.4L120.4,69.5L120.4,69.5z
		 M120.4,72.3c0.4-0.7,0.8-1.7,1.1-2.5l1.3,0.4c-0.5,0.8-1,1.8-1.4,2.4L120.4,72.3z"/>
	<path d="M142.6,77c-1,0.7-2.1,1.4-3.2,2c1.1,0.7,2.5,1.2,4.1,1.5c-0.5,0.4-1.1,1.3-1.4,1.9c-4-0.9-6.4-3-8-6.3h-2.6v3.8l3.9-0.8
		c-0.1,0.6-0.2,1.5-0.2,1.9c-4.3,1-5.3,1.2-5.8,1.4l-0.1,0.1c-0.1-0.5-0.6-1.6-0.9-2.1c0.4-0.2,0.9-0.6,0.9-1.4v-3h-2.6v-1.9h3v-8
		h11.4v1.7h-9.2v1h8.7v1.7h-8.7v0.9h8.7v1.7h-8.7v1H143V76h-1.9L142.6,77z M136.5,76c0.4,0.7,0.9,1.3,1.5,1.8
		c0.9-0.6,1.9-1.2,2.6-1.8H136.5z"/>
</g>
<g class="st3">
	<path d="M33.8,100.4c-2,0.7-4.1,1.4-5.9,1.9l-0.5-2.2c0.6-0.2,1.4-0.4,2.2-0.6v-4.2h-1.8v-2h1.8v-3.2h-2v-2h5.9v2h-1.9v3.2h1.6v2
		h-1.6v3.6c0.6-0.2,1.2-0.4,1.8-0.6L33.8,100.4z M44.5,101.5v1.9H32.9v-1.9h5v-1.7h-3.7v-1.9h3.7v-1.5h-3.6V88h9.4v8.4h-3.6v1.5h3.8
		v1.9h-3.8v1.7H44.5z M36.2,91.2h1.9v-1.5h-1.9V91.2z M36.2,94.5h1.9V93h-1.9V94.5z M41.7,89.7h-1.8v1.5h1.8V89.7z M41.7,92.9h-1.8
		v1.5h1.8V92.9z"/>
	<path d="M48.9,94.4c-0.6,1.1-1.3,2-2,2.6c-0.3-0.5-0.9-1.1-1.4-1.5c1.2-0.9,2.4-2.4,3.1-4H46v-1.8h3v-2.5h2v2.5h2.5v1.8H51v0.7
		c0.7,0.4,2.4,1.6,2.8,2l-1.1,1.7c-0.4-0.4-1.1-1.1-1.7-1.7V98h-2L48.9,94.4L48.9,94.4z M45.6,102c0.6-1,1.3-2.4,1.6-3.7l1.9,0.8
		c-0.4,1.3-0.9,2.9-1.5,3.9L45.6,102z M55.9,101.7c0.8,0,1-0.3,1.1-2.1c0.4,0.3,1.3,0.6,1.9,0.8c-0.3,2.6-0.9,3.2-2.8,3.2h-3.2
		c-2.4,0-3.1-0.6-3.1-2.5v-2.5h2.1v2.4c0,0.5,0.2,0.6,1.2,0.6C53,101.7,55.9,101.7,55.9,101.7z M53.8,97.3l0.4,0.3v-9.5h7.3v9.7
		h-7.1c0.7,0.6,1.5,1.4,1.9,1.9l-1.5,1.3c-0.5-0.6-1.6-1.7-2.4-2.5L53.8,97.3z M56.1,90.8h3.3v-1h-3.3V90.8z M56.1,93.4h3.3v-1h-3.3
		V93.4z M56.1,96.1h3.3V95h-3.3V96.1z M60.2,98.1c0.7,1.1,1.8,2.6,2.2,3.6l-2,1c-0.4-1-1.4-2.5-2.1-3.7L60.2,98.1z"/>
	<path d="M79.5,89.4c-0.6,1.9-1.4,3.5-2.5,4.8c1,0.8,2.3,1.5,3.7,2c-0.4,0.4-1,1.2-1.3,1.8l0,0v5.9h-2.1v-0.6h-3.4v0.6h-2V98
		l-0.4,0.2c-0.1-0.3-0.4-0.7-0.7-1v0.5h-2v2.4l2.1-0.5l0.2,1.9c-2.5,0.6-5.3,1.3-7.3,1.7l-0.4-2.1l0.8-0.1v-6h1.7v5.7l0.9-0.2v-6.8
		h-2.5v-6h6.2v4.5c1.3-1.3,2.4-3.2,3-5.1l2,0.5c-0.1,0.4-0.3,0.8-0.4,1.2h2.5l0.4-0.1L79.5,89.4z M66.3,91.9h2.4v-2.3h-2.4V91.9z
		 M70.8,96.4c1.2-0.5,2.4-1.3,3.4-2.3c-0.4-0.5-0.8-1.1-1.1-1.6c-0.3,0.4-0.7,0.9-1.1,1.2c-0.3-0.3-1-0.9-1.4-1.2v1.2h-1.8v2.1h2
		V96.4L70.8,96.4z M77.9,97.3c-0.8-0.5-1.6-1-2.3-1.6c-0.7,0.6-1.4,1.2-2.2,1.6H77.9z M77.3,101.5v-2.4h-3.4v2.4H77.3z M74.4,90.7
		L74.2,91c0.4,0.6,0.8,1.2,1.3,1.9c0.5-0.7,1-1.4,1.3-2.1h-2.4V90.7z"/>
	<path d="M87.2,91.7c-0.4,0.7-0.9,1.5-1.4,2.2V104h-2v-7.7c-0.5,0.5-0.9,0.9-1.4,1.3c-0.2-0.5-0.8-1.5-1.1-2c1.5-1.1,3.1-2.9,4-4.6
		L87.2,91.7z M86.9,87.9c-1.1,1.5-2.8,3.3-4.3,4.4c-0.3-0.4-0.8-1.2-1.1-1.6c1.3-0.9,2.8-2.4,3.5-3.6L86.9,87.9z M98.4,101.6v1.9
		H86.7v-1.9h4.9v-2.2h-3.9v-1.8h9.9v1.8h-3.8v2.2H98.4z M90.7,90.7c-0.5,1.1-1.1,2-1.6,2.8c0.7,1,1.5,2.2,1.8,3L89,97
		c-0.3-1-1.1-2.3-1.9-3.5c0.6-1.1,1.3-2.4,1.7-3.3L90.7,90.7z M98.2,89.9H87.4V88h10.8C98.2,88,98.2,89.9,98.2,89.9z M92.6,97.1
		c-0.4-1-1.2-2.3-2.2-3.5c0.7-1.1,1.4-2.4,1.8-3.3l1.9,0.4c-0.5,1.1-1.1,1.9-1.7,2.8c0.8,1,1.6,2.2,2,3L92.6,97.1z M96.2,97.1
		c-0.5-1-1.5-2.3-2.5-3.5c0.8-1.1,1.6-2.4,2-3.3l1.9,0.4c-0.6,1.1-1.2,1.9-1.8,2.8c0.9,1,1.8,2.2,2.3,3L96.2,97.1z"/>
	<path d="M104.4,87.7c-0.3,1.2-0.6,2.4-1.1,3.6V104h-2v-8.6c-0.3,0.4-0.5,0.8-0.8,1.1c-0.1-0.5-0.7-1.7-1-2.3c1.4-1.7,2.4-4.3,3-7
		L104.4,87.7z M106.6,100.5v3.5h-2V87.8h5.1V94h-3.2v1.4h2.9v1.7h-2.9v1.5h3.1v1.8L106.6,100.5L106.6,100.5z M106.6,89.6v2.7h1.3
		v-2.7H106.6z M115.8,95.2c-0.4,2.2-1.1,4-2,5.3c0.8,0.8,1.7,1.4,2.8,1.9c-0.4,0.4-1,1.1-1.2,1.6c-1.1-0.5-2-1.2-2.8-2
		c-0.9,0.9-2,1.5-3.3,2.1c-0.2-0.5-0.7-1.2-1.1-1.6c1.2-0.4,2.3-1.1,3.2-2c-0.6-1.1-1.1-2.2-1.5-3.6l1.1-0.3h-1.2v-1.7h4.4l0.3-0.1
		L115.8,95.2z M115.5,94h-5.2v-1.8h3.3v-2.5h-3.3v-1.8h5.2V94z M111.6,96.6c0.3,0.8,0.6,1.6,1,2.3c0.4-0.7,0.7-1.5,1-2.3H111.6z"/>
	<path d="M124.7,91.8h-7v-1.7h3c-0.3-0.7-0.7-1.6-1.2-2.3l1.7-0.8c0.5,0.7,1,1.7,1.3,2.4l-1.2,0.6h3.4
		C124.7,90,124.7,91.8,124.7,91.8z M124,93c1.8-1,2-2.2,2-3.4v-1.9h6.1v3.9c0,0.5,0,0.7,0.3,0.7h0.7c0.3,0,0.6-0.1,0.9-0.1
		c0,0.5,0.1,1.3,0.1,1.8c-0.3,0.1-0.6,0.1-1,0.1h-0.9c-1.7,0-2-0.8-2-2.5v-1.9H128l0,0c0,1.7-0.5,3.8-2.8,5c-0.2-0.3-0.8-1-1.2-1.3
		v0.9h-5.5v-1.6h5.5V93L124,93z M124,96.7h-5.5V95h5.5V96.7z M133.7,95.4c-0.6,2.2-1.6,3.9-2.9,5.2c1.1,0.6,2.3,1,3.7,1.3
		c-0.4,0.4-1,1.4-1.3,1.9c-1.6-0.4-3-1-4.2-1.8c-1.2,0.8-2.6,1.4-4.2,1.8c-0.2-0.4-0.5-1.1-0.8-1.6v0.6h-3.7v0.8h-1.8v-6.2h5.5v4.4
		c1.2-0.3,2.3-0.7,3.3-1.3c-0.9-0.9-1.7-2.1-2.4-3.3l1.2-0.4h-1.7v-2h7.5l0.4-0.1L133.7,95.4z M122.2,99.2h-1.8v2h1.8V99.2z
		 M126.9,96.9c0.5,1,1.2,1.8,2.1,2.6c0.8-0.7,1.4-1.6,1.9-2.6H126.9z"/>
</g>
<g class="st3">
	<path class="st4" d="M221.9,68.1c-1,1-2.5,1.5-4.1,1.5h-5.7V53.9h5.7c1.6,0,3.1,0.5,4.1,1.5c1.8,1.8,1.6,3.9,1.6,6.3
		C223.5,64,223.7,66.3,221.9,68.1z M219.8,57.6c-0.5-0.6-1.2-1-2.3-1h-2.3v10.2h2.3c1.1,0,1.8-0.3,2.3-1c0.6-0.7,0.7-1.8,0.7-4.2
		C220.5,59.3,220.4,58.3,219.8,57.6z"/>
	<path class="st4" d="M230.8,69.7c-2.6,0-4.8-1.7-4.8-4.7v-6.6c0-3,2.2-4.7,4.8-4.7s4.8,1.7,4.8,4.7V65
		C235.6,68,233.4,69.7,230.8,69.7z M232.7,58.5c0-1.3-0.8-2.1-1.9-2.1s-1.9,0.8-1.9,2.1V65c0,1.3,0.8,2.1,1.9,2.1s1.9-0.8,1.9-2.1
		V58.5z"/>
</g>
<g class="st3">
	<path class="st4" d="M345.7,68.1c-1,1-2.5,1.5-4.1,1.5h-5.7V53.9h5.7c1.6,0,3.1,0.5,4.1,1.5c1.8,1.8,1.6,3.9,1.6,6.3
		C347.3,64,347.4,66.3,345.7,68.1z M343.5,57.6c-0.5-0.6-1.2-1-2.3-1h-2.3v10.2h2.3c1.1,0,1.8-0.3,2.3-1c0.6-0.7,0.7-1.8,0.7-4.2
		C344.2,59.3,344.1,58.3,343.5,57.6z"/>
	<path class="st4" d="M354,69.6V57l-3.2,2.8v-3.1l3.2-2.8h2.9v15.7H354z"/>
</g>
<g class="st3">
	<path class="st4" d="M469.2,68.1c-1,1-2.5,1.5-4.1,1.5h-5.7V54h5.7c1.6,0,3.1,0.5,4.1,1.5c1.8,1.8,1.6,3.9,1.6,6.3
		C470.8,64.1,471,66.4,469.2,68.1z M467.1,57.7c-0.5-0.6-1.2-1-2.3-1h-2.3v10.2h2.3c1.1,0,1.8-0.3,2.3-1c0.6-0.7,0.7-1.8,0.7-4.2
		C467.8,59.3,467.7,58.4,467.1,57.7z"/>
	<path class="st4" d="M473.4,69.6V67l5.9-6.8c0.6-0.7,0.8-1.2,0.8-1.9c0-1.2-0.7-2-1.9-2c-0.9,0-1.9,0.5-1.9,2h-2.9
		c0-2.9,2.1-4.6,4.8-4.6c2.8,0,4.8,1.7,4.8,4.6c0,1.5-0.6,2.3-1.7,3.6l-4.4,5.1h6.1v2.6C482.9,69.6,473.4,69.6,473.4,69.6z"/>
</g>
<g class="st3">
	<path class="st4" d="M590,68.1c-1,1-2.5,1.5-4.1,1.5h-5.7V53.9h5.7c1.6,0,3.1,0.5,4.1,1.5c1.8,1.8,1.6,3.9,1.6,6.3
		C591.6,64,591.7,66.3,590,68.1z M587.8,57.6c-0.5-0.6-1.2-1-2.3-1h-2.3v10.2h2.3c1.1,0,1.8-0.3,2.3-1c0.6-0.7,0.7-1.8,0.7-4.2
		C588.5,59.3,588.4,58.3,587.8,57.6z"/>
	<path class="st4" d="M598.8,69.7c-2.6,0-4.9-1.3-5-4.6h2.9c0,1.4,1,2,2.1,2c1.2,0,2.1-0.8,2.1-2.2c0-1.3-0.8-2.2-2.2-2.2h-0.4v-2.5
		h0.4c1.4,0,2-0.9,2-2c0-1.3-0.9-2-1.9-2c-1.1,0-1.9,0.7-1.9,1.9H594c0.1-2.8,2.2-4.5,4.8-4.5c2.8,0,4.8,1.8,4.8,4.5
		c0,1.7-0.8,2.7-1.8,3.2c1.1,0.6,2,1.7,2,3.6C603.7,68.2,601.5,69.7,598.8,69.7z"/>
</g>
<g>
	<path class="st5" d="M196.8,230.2c0,0,0,0.3,0,0.4c-0.1,2.6-0.2,3.6-0.5,3.9c-0.2,0.3-0.4,0.3-0.8,0.4c-0.3,0-0.8,0-1.3,0
		c0-0.3-0.1-0.7-0.3-1c0.5,0,0.9,0,1.1,0c0.2,0,0.3,0,0.4-0.1c0.2-0.2,0.3-0.9,0.3-2.7h-1.6c-0.2,1.8-0.7,3.2-2.5,4.1
		c-0.1-0.2-0.3-0.6-0.6-0.7l-0.4,0.2c0-0.2-0.1-0.4-0.2-0.6c-2.5,0.7-2.9,0.8-3.1,1l0,0c-0.1-0.2-0.4-0.7-0.6-0.8
		c0.2-0.2,0.5-0.5,0.5-1.1v-2.5c1.2-0.3,2.5-0.6,3.4-1l0.7,0.8c-0.9,0.3-2,0.6-3,0.8v2.3l1.7-0.4c-0.2-0.4-0.4-0.8-0.6-1.1l0.9-0.4
		c0.5,0.8,1.1,1.8,1.3,2.5c1.1-0.7,1.4-1.7,1.5-3h-1.3v-1L196.8,230.2L196.8,230.2z M187.8,235.6h8.1v5h-1.2v-0.4h-5.8v0.4h-1.1
		V235.6z M188.9,236.5v1h2.4v-1H188.9z M191.3,239.3v-1h-2.4v1H191.3z M194.7,236.5h-2.4v1h2.4V236.5z M194.7,239.3v-1h-2.4v1H194.7
		z"/>
	<path class="st5" d="M202.3,232.2c-0.2,0.4-0.4,0.8-0.6,1.2h5.7v6c0,0.6-0.1,0.9-0.6,1.1c-0.4,0.2-1.1,0.2-2.1,0.2
		c0-0.3-0.2-0.8-0.3-1.1c0.7,0,1.4,0,1.6,0c0.2,0,0.3-0.1,0.3-0.2v-1h-4.8c-0.2,0.9-0.6,1.8-1.3,2.4c-0.1-0.3-0.6-0.7-0.8-0.9
		c1-0.9,1.1-2.2,1.1-3.3v-1.4c-0.5,0.6-1.1,1.1-1.7,1.6c-0.2-0.3-0.5-0.6-0.7-0.9c1.3-0.9,2.3-2.2,3.1-3.7h-2.8v-1h3.3
		c0.2-0.5,0.4-1,0.5-1.5l1.1,0.3c-0.1,0.4-0.3,0.8-0.4,1.2h6v1L202.3,232.2L202.3,232.2z M206.3,237.4v-1h-4.7v0.2
		c0,0.3,0,0.6,0,0.8H206.3z M206.3,234.4h-4.7v1h4.7V234.4z"/>
	<path class="st5" d="M217.2,231.4c0,0.1,0,0.2,0,0.3c0.6,0.7,1.9,1.1,3.5,1.2c-0.2,0.2-0.5,0.6-0.6,0.9c-1.4-0.2-2.5-0.6-3.2-1.3
		c-0.4,0.6-1.4,1.1-3.4,1.4c-0.1-0.2-0.4-0.6-0.6-0.8h-3v-0.9h3.5v0.8c2.6-0.3,2.9-1,2.9-1.5v-0.2h-1c-0.3,0.4-0.6,0.8-0.9,1.1
		c-0.2-0.2-0.6-0.4-0.8-0.6c0.6-0.5,1.1-1.4,1.4-2.2l1,0.2c-0.1,0.2-0.1,0.4-0.2,0.6h3.7h0.2l0.8,0.3c-0.3,0.6-0.7,1.3-1,1.8
		l-0.9-0.3c0.2-0.2,0.3-0.5,0.5-0.8h-1.7H217.2L217.2,231.4L217.2,231.4z M217.1,238.7c1.2,0.4,2.6,0.9,3.4,1.3l-1,0.6
		c-0.7-0.4-2-0.9-3.2-1.4l0.7-0.6h-3.6l1,0.5c-1,0.6-2.5,1.2-3.7,1.5c-0.2-0.2-0.6-0.6-0.8-0.8c1.2-0.2,2.6-0.6,3.5-1.1h-1.9v-4.8
		h7.8v4.8H217.1L217.1,238.7L217.1,238.7z M213,231.1h-2.9v-0.8h2.9V231.1z M212.4,235.3h5.6v-0.7h-5.6V235.3z M212.4,236.6h5.6
		v-0.7h-5.6V236.6z M212.4,238h5.6v-0.7h-5.6V238z"/>
	<path class="st5" d="M223.3,235.5c-0.2,1.3-0.7,3-1.4,3.9c-0.1-0.4-0.3-0.9-0.5-1.3c0.5-0.7,1-1.9,1.2-2.9L223.3,235.5z
		 M224.9,235.3c0.3,0.4,1.1,1.9,1.3,2.3l-0.8,0.9c-0.2-0.6-0.7-1.8-1-2.4v4.7h-1v-6h-1.9v-1h1.9v-4h1v4h1.9v1h-1.9v1L224.9,235.3z
		 M222.1,233.3c0-0.7-0.3-1.8-0.6-2.7l0.8-0.2c0.3,0.9,0.6,2,0.7,2.7L222.1,233.3z M226.3,230.6c-0.3,0.9-0.7,2-1,2.7l-0.7-0.2
		c0.3-0.7,0.6-1.9,0.7-2.7L226.3,230.6z M231,237.3v3.3h-1v-3.1l-3.6,0.6l-0.2-1l3.7-0.7v-6.8h1v6.6l1.3-0.2l0.2,1L231,237.3z
		 M228.4,235.6c-0.4-0.4-1.3-1.1-2-1.4l0.5-0.8c0.7,0.4,1.6,0.9,2,1.4L228.4,235.6z M228.9,232.7c-0.4-0.5-1.2-1.1-1.9-1.5l0.6-0.8
		c0.7,0.4,1.5,1,1.9,1.4L228.9,232.7z"/>
	<path class="st5" d="M237.4,236.1l-1,0.9c-0.8-0.9-1.8-2-2.6-2.7l1-0.9C235.6,234.2,236.7,235.3,237.4,236.1z"/>
	<path class="st5" d="M241,235.1c-0.5-0.3-1.5-0.9-2.2-1.3l0.6-0.8c0.7,0.3,1.7,0.9,2.2,1.2L241,235.1z M239.1,239.7
		c0.6-0.9,1.6-2.4,2.3-3.8l0.8,0.7c-0.6,1.2-1.4,2.7-2.1,3.8L239.1,239.7z M241.6,231.9c-0.5-0.3-1.5-0.9-2.2-1.3l0.6-0.8
		c0.7,0.3,1.7,0.9,2.2,1.2L241.6,231.9z M246.6,234.2v1.8h2.5v4.6H248v-0.4h-4v0.5h-1V236h2.5v-1.8h-3.3v-1.1h3.3v-1.7
		c-0.8,0.1-1.7,0.2-2.5,0.3c0-0.3-0.2-0.7-0.3-0.9c2.1-0.2,4.4-0.6,5.7-1.1l0.9,0.9c-0.8,0.3-1.7,0.5-2.7,0.7v1.9h3.2v1.1
		L246.6,234.2L246.6,234.2L246.6,234.2z M248,237h-4v2.2h4V237z"/>
	<path class="st5" d="M261.2,232.4c0,0,0,0.4,0,0.5c-0.1,5-0.2,6.7-0.6,7.2c-0.2,0.4-0.5,0.5-0.9,0.5s-0.9,0-1.5,0
		c0-0.3-0.1-0.8-0.3-1.1c0.6,0,1,0,1.3,0c0.2,0,0.3,0,0.4-0.2c0.3-0.3,0.4-1.9,0.5-6h-1.4c-0.2,3.2-0.7,5.7-2.8,7.3
		c-0.2-0.3-0.5-0.6-0.8-0.8c0.1,0,0.1-0.1,0.2-0.2c-1.7,0.2-3.5,0.4-4.7,0.5l-0.1-0.9c0.7,0,1.6-0.1,2.5-0.2v-0.9h-2.2v-0.8h2.2
		v-0.6h-2.1v-3.6h2.1v-0.6h-2.5v-0.8h2.5V231c-0.7,0.1-1.5,0.1-2.1,0.1c0-0.2-0.2-0.6-0.3-0.8c1.8-0.1,3.9-0.3,5.1-0.6l0.5,0.8
		c-0.6,0.1-1.4,0.3-2.3,0.3v0.8h2.4v0.7h1.3c0-0.8,0-1.7,0-2.6h1.1c0,0.9,0,1.8,0,2.6L261.2,232.4L261.2,232.4L261.2,232.4z
		 M251.8,234.6h1.2v-0.7h-1.2V234.6z M253,236v-0.7h-1.2v0.7H253z M254,239c0.7-0.1,1.5-0.1,2.3-0.2c1-1.4,1.3-3.2,1.4-5.4h-1.3
		v-0.9H254v0.6h2.2v3.6H254v0.6h2.3v0.8H254V239L254,239z M255.3,234.6v-0.7H254v0.7H255.3z M254,235.3v0.7h1.3v-0.7H254z"/>
	<path class="st5" d="M210.5,255h-1.2v-0.6h-4.9v0.6h-1.1v-3.8c-0.6,0.2-1.3,0.4-1.9,0.5c-0.1-0.3-0.4-0.8-0.6-1
		c1.5-0.3,3-0.8,4.4-1.5c-0.5-0.5-1.4-1.2-2.1-1.8c-0.4,0.3-0.8,0.5-1.2,0.7c-0.2-0.3-0.5-0.7-0.8-0.9c1.9-0.9,3.3-2.1,4-3.3
		l1.3,0.3c-0.2,0.3-0.5,0.6-0.7,1h3.9l0.2-0.1l0.8,0.5c-0.9,1.8-2.5,3.2-4.3,4.3h4.4v5.1H210.5z M204.7,246.2
		c-0.2,0.2-0.4,0.4-0.6,0.6c0.8,0.5,1.7,1.3,2.2,1.8c1-0.7,1.9-1.4,2.6-2.4L204.7,246.2L204.7,246.2z M209.4,253.4v-2.5h-4.9v2.5
		H209.4z"/>
	<path class="st5" d="M223.3,253.4h-4.8v1.6h-1.1v-1.6h-4.7v-1h4.7v-0.8h-3.5v-4.3h8.3v4.3h-3.7v0.8h4.8V253.4L223.3,253.4z
		 M217.6,246.8h-4.1v-2.4h4.1V246.8z M216.6,245.2h-2v0.9h2V245.2z M215,249.1h2.4v-0.8H215V249.1z M217.4,250.8v-0.9H215v0.9H217.4
		z M222.6,246.8h-4.1v-2.4h4.1V246.8z M221.1,248.3h-2.6v0.8h2.6V248.3z M221.1,249.9h-2.6v0.9h2.6V249.9z M221.5,245.2h-2v0.9h2
		V245.2z"/>
	<path class="st5" d="M234.2,250.9c-0.4-0.4-1.1-1-1.7-1.6c-0.3,0.5-0.6,0.9-0.9,1.2c-0.2-0.2-0.6-0.4-0.9-0.6
		c1.1,1.5,2.9,2.8,4.7,3.5c-0.3,0.2-0.6,0.7-0.8,1c-1.6-0.7-3-1.9-4.2-3.3v3.8h-1.2v-3.8c-1.1,1.4-2.6,2.6-4.1,3.3
		c-0.2-0.3-0.5-0.7-0.8-0.9c1.9-0.8,3.9-2.4,4.9-4v-2.9h-4.5v-1.1h4.5V244h1.2v1.6h4.6v1.1h-4.6v2.8c0.1,0.2,0.2,0.3,0.3,0.5
		c0.8-0.7,1.4-1.8,1.6-3.1l1.1,0.2c-0.1,0.5-0.2,0.9-0.4,1.3c0.7,0.6,1.6,1.3,2.1,1.7L234.2,250.9z M227.7,247.1
		c-0.1,0.5-0.3,0.9-0.4,1.4c0.5,0.4,1,0.9,1.3,1.2l-0.8,0.8c-0.2-0.3-0.6-0.6-1-1c-0.4,0.7-0.9,1.3-1.5,1.8
		c-0.2-0.2-0.6-0.6-0.9-0.7c1.1-0.8,1.8-2.1,2.1-3.6L227.7,247.1z"/>
	<path class="st5" d="M237.9,249.4c-0.4-0.3-1.3-0.9-2-1.3l0.6-0.8c0.6,0.3,1.5,0.8,2,1.2L237.9,249.4z M238.8,251.1
		c-0.5,1.2-1.1,2.7-1.6,3.8l-1-0.6c0.5-0.9,1.2-2.5,1.8-3.8L238.8,251.1z M238.4,246.3c-0.4-0.3-1.3-0.9-2-1.3l0.7-0.8
		c0.6,0.3,1.5,0.9,2,1.2L238.4,246.3z M240.6,247.9c0,2.1-0.2,5.1-1.6,7.1c-0.2-0.2-0.7-0.5-0.9-0.6c1.3-1.9,1.5-4.6,1.5-6.5v-3.3
		h7.3v1h-6.2L240.6,247.9L240.6,247.9z M242.5,251.9c-0.4,0.9-1,1.8-1.5,2.4c-0.2-0.1-0.6-0.4-0.9-0.5c0.5-0.6,1-1.4,1.3-2.2
		L242.5,251.9z M244.2,251v2.9c0,0.5-0.1,0.8-0.4,0.9c-0.3,0.2-0.9,0.2-1.7,0.2c0-0.3-0.2-0.7-0.3-1c0.5,0,1,0,1.1,0s0.2,0,0.2-0.2
		v-2.9h-2v-4.2h1.7c0.1-0.4,0.3-0.8,0.3-1.1l1.2,0.2c-0.2,0.3-0.3,0.6-0.5,0.9h2.5v4.2L244.2,251L244.2,251z M242.1,248.6h3.2v-0.9
		h-3.2V248.6z M242.1,250.2h3.2v-0.9h-3.2V250.2z M245.8,251.5c0.4,0.7,1,1.7,1.3,2.3l-1,0.4c-0.3-0.6-0.8-1.6-1.2-2.4L245.8,251.5z
		"/>
</g>
<g>
	<path class="st5" d="M331.5,231.2h2.1v0.9h-4.5v-0.9h2.2c-0.1-0.4-0.5-1-0.8-1.4l0.8-0.4c0.3,0.4,0.7,1,0.8,1.5L331.5,231.2z
		 M329.5,234.6h3.8v0.9h-3.8V234.6z M333.3,232.9v0.9h-3.6v-0.9H333.3z M333.3,239.6h-2.6v0.6h-1v-3.9h3.6V239.6L333.3,239.6z
		 M330.8,237.1v1.7h1.5v-1.7H330.8z M340,238.8v1.1h-6.4v-1.1h2.5V236H334v-1h2.1v-2.3h-2.3v-1h2.7c-0.2-0.5-0.7-1.3-1.1-1.8
		l0.9-0.5c0.5,0.5,1,1.3,1.2,1.8l-0.8,0.5h3.1v1h-2.5v2.3h2.2v1h-2.2v2.8H340L340,238.8z"/>
	<path class="st5" d="M351.8,235.4h-1.1v3.7c0,0.5-0.1,0.9-0.4,1.1c-0.3,0.2-0.8,0.2-1.5,0.2c0-0.3-0.2-0.8-0.3-1.1c0.4,0,0.9,0,1,0
		s0.2-0.1,0.2-0.2v-3.6h-1.6v4.8h-1v-4.8h-1.5v4.8h-1v-4.8H343v5h-1.1v-5h-1.2v-1.1h1.2V230h8.8v4.3h1.1V235.4L351.8,235.4z
		 M344.5,234.3v-3.2H343v3.2H344.5z M347,234.3v-3.2h-1.5v3.2H347z M349.6,234.3v-3.2H348v3.2H349.6z"/>
	<path class="st5" d="M358.1,238.4c-1.8,0.4-3.8,0.8-5.1,1.1l-0.2-1.1c1.3-0.2,3.3-0.6,5.3-1L358.1,238.4z M362.8,233.2
		c-0.5,1.6-1.2,3-2.1,4.2c0.4,1.1,0.8,1.7,1.3,1.7c0.3,0,0.4-0.6,0.5-2.2c0.2,0.3,0.6,0.5,1,0.6c-0.2,2.1-0.6,2.7-1.6,2.7
		c-0.8,0-1.5-0.7-2-1.8c-0.7,0.7-1.4,1.4-2.2,1.9c-0.2-0.2-0.6-0.7-0.9-0.9c1-0.6,1.9-1.3,2.7-2.2c-0.4-1.4-0.7-3.2-0.8-5h-5.8v-1.1
		h5.7c0-0.6,0-1.2-0.1-1.8h1.2c0,0.6,0,1.2,0,1.8h2.4c-0.4-0.4-1.2-0.8-1.8-1.1l0.7-0.7c0.7,0.3,1.5,0.8,2,1.2l-0.6,0.6h0.9v1.1
		h-3.5c0.1,1.4,0.3,2.7,0.6,3.8c0.6-0.9,1-1.9,1.4-3.1L362.8,233.2z M357.6,233.2v3.7h-4.2v-3.7H357.6z M356.6,234.1h-2.1v1.8h2.1
		V234.1z"/>
	<path class="st5" d="M328.7,245.8c0,0,0,0.4,0,0.6c-0.2,5.1-0.4,6.9-0.8,7.5c-0.3,0.3-0.5,0.5-0.9,0.5c-0.3,0-0.8,0-1.3,0
		c0-0.3-0.1-0.8-0.3-1.1c0.5,0,0.9,0,1.1,0s0.3,0,0.4-0.2c0.3-0.4,0.5-1.9,0.7-6.2h-1.5c-0.1,3-0.6,5.9-2,7.7
		c-0.2-0.3-0.6-0.6-0.9-0.8c1.3-1.6,1.7-4.2,1.8-7h-1.5v-1.1h1.6c0-0.7,0-1.4,0-2.1h1.1c0,0.7,0,1.4,0,2.1L328.7,245.8L328.7,245.8z
		 M333.7,245.1v9.3h-1.2v-0.8h-2v0.9h-1.1v-9.4H333.7L333.7,245.1z M332.5,252.6v-6.4h-2v6.4H332.5z"/>
	<path class="st5" d="M341.1,244.4c0,2.2,0.3,6.6,4.8,9.3c-0.3,0.2-0.7,0.7-0.9,0.9c-2.7-1.6-4-4.1-4.6-6.3c-0.9,2.9-2.4,5-4.6,6.3
		c-0.2-0.2-0.7-0.7-1-0.9c2.6-1.3,4-3.7,4.7-6.9l0.6,0.1c-0.1-0.5-0.1-1-0.2-1.4H337v-1.1L341.1,244.4L341.1,244.4L341.1,244.4z"/>
	<path class="st5" d="M352.9,244c-0.1,0.1-0.1,0.2-0.2,0.2c1.1,1,3.1,1.9,5,2.3c-0.2,0.2-0.5,0.6-0.7,0.9c-0.3-0.1-0.6-0.2-0.9-0.3
		v3.1H348v-3c-0.3,0.1-0.6,0.2-0.9,0.3c-0.1-0.2-0.4-0.7-0.6-0.9c2.2-0.6,4.3-1.6,5.4-3L352.9,244z M356.1,247.1
		c-0.6-0.2-1.3-0.5-1.9-0.9v0.4H350v-0.3c-0.6,0.3-1.1,0.6-1.7,0.8H356.1z M348.7,250.7h6.8v3.9h-1.1v-0.3h-4.6v0.4h-1.1
		L348.7,250.7L348.7,250.7z M350.4,247.9c0.3,0.4,0.5,1,0.6,1.3l-0.8,0.3h1.4v-1.7H349v1.7h1.2c-0.1-0.4-0.3-0.9-0.6-1.3
		L350.4,247.9z M349.8,251.5v0.7h4.6v-0.7H349.8z M354.4,253.6v-0.7h-4.6v0.7H354.4z M353.5,245.8c-0.5-0.3-0.9-0.6-1.3-1
		c-0.4,0.4-0.8,0.7-1.3,1H353.5z M355.2,247.8h-2.7v1.7h1.3l-0.7-0.2c0.2-0.4,0.5-1,0.6-1.4l0.9,0.3c-0.3,0.5-0.5,1-0.7,1.4h1.3
		L355.2,247.8L355.2,247.8z"/>
	<path class="st5" d="M365.8,252.7c1.2,0.3,2.6,0.9,3.5,1.2l-1,0.8c-0.9-0.4-2.5-1-3.8-1.4l0.9-0.6H362l0.8,0.6
		c-1,0.6-2.5,1.2-3.7,1.5c-0.2-0.2-0.6-0.6-0.8-0.8c1.1-0.3,2.5-0.8,3.3-1.2h-2.1v-5.2h8.6v5.2h-2.3V252.7z M367.6,246.9H360v-2.8
		h7.6V246.9z M360.6,249h6.3v-0.7h-6.3V249z M360.6,250.4h6.3v-0.7h-6.3V250.4z M360.6,251.9h6.3v-0.7h-6.3V251.9z M366.5,245h-5.3
		v1h5.3V245z"/>
</g>
<g>
	<path class="st5" d="M571.2,239.1c0.4,0,0.5-0.2,0.5-1.5c0.3,0.2,0.7,0.4,1,0.4c-0.1,1.7-0.4,2.1-1.4,2.1h-1.7
		c-1.2,0-1.5-0.3-1.5-1.4V236h-1.9c-0.2,2.4-0.8,3.7-3.8,4.3c-0.1-0.3-0.4-0.7-0.6-0.9c2.7-0.5,3.1-1.4,3.2-3.4h-3v-1h10.6v1h-3.3
		v2.7c0,0.4,0.1,0.4,0.5,0.4H571.2L571.2,239.1z M563.4,233.4h-1.1v-2.8h4.5c-0.1-0.4-0.3-0.8-0.5-1.1l1.1-0.3
		c0.3,0.4,0.5,1,0.7,1.4h4.2v2.8h-1.2v-1.7h-7.7V233.4z M564.1,233.8v-1h6.3v1H564.1z"/>
	<path class="st5" d="M583.7,233.4c-0.5,1.5-1.2,2.9-2.1,4.1c0.4,1,0.9,1.6,1.4,1.6c0.3,0,0.5-0.6,0.5-2.2c0.3,0.3,0.7,0.5,1,0.6
		c-0.2,2.1-0.6,2.7-1.6,2.7c-0.9,0-1.6-0.7-2.1-1.8c-0.7,0.7-1.4,1.3-2.3,1.8c-0.2-0.2-0.6-0.7-0.8-0.9c1-0.6,1.9-1.2,2.6-2.1
		c-0.4-1.4-0.7-3.1-0.9-4.9h-3.8v1.4h3v0.4c-0.1,2.6-0.1,3.6-0.4,4c-0.2,0.3-0.4,0.3-0.8,0.4c-0.3,0-0.8,0-1.4,0
		c0-0.3-0.1-0.8-0.3-1c0.5,0,1,0.1,1.2,0.1s0.3,0,0.4-0.1c0.1-0.2,0.2-0.9,0.2-2.7h-1.9c0,1.7-0.2,4.1-1.3,5.6
		c-0.2-0.2-0.7-0.6-0.9-0.8c1-1.4,1-3.5,1-5v-3.4h4.9c0-0.6-0.1-1.3-0.1-1.9h1.2c0,0.6,0,1.3,0,1.9h2.3c-0.5-0.4-1.2-0.9-1.9-1.3
		l0.7-0.7c0.7,0.4,1.6,0.9,2.1,1.3l-0.6,0.6h1.2v1.1h-3.8c0.1,1.4,0.3,2.7,0.6,3.8c0.6-0.9,1-1.9,1.4-3L583.7,233.4z"/>
	<path class="st5" d="M585.2,238.6c2.6-2.3,3.9-4,3.9-5.5c0-1-0.5-1.6-1.5-1.6c-0.7,0-1.3,0.4-1.7,1l-0.8-0.8
		c0.8-0.8,1.5-1.3,2.7-1.3c1.6,0,2.7,1.1,2.7,2.6c0,1.7-1.4,3.5-3.2,5.3c0.5,0,1-0.1,1.4-0.1h2.2v1.2h-5.7L585.2,238.6L585.2,238.6z
		"/>
	<path class="st5" d="M595.6,237.1h-3.8V236h3.8V237.1z M595.3,232.2h-3.2v-1.1h3.2V232.2z M599,233.8c0,0.1,0,0.2,0,0.4
		c0.5,2.4,1.6,4.3,3.8,5.1c-0.3,0.2-0.6,0.7-0.8,1c-1.7-0.7-2.7-2-3.4-3.8c-0.5,1.4-1.5,2.8-3.6,3.9c-0.2-0.3-0.6-0.7-0.8-0.9
		c3.3-1.6,3.6-4,3.6-5.7v-1h1.2V233.8L599,233.8z M597,232.4c-0.4,1-0.8,1.8-1.3,2.5c-0.3-0.2-0.8-0.5-1.1-0.6c1-1.1,1.6-3,2-4.9
		l1.2,0.2c-0.1,0.6-0.3,1.2-0.4,1.7h4l0.2-0.1l0.8,0.5c-0.3,1.2-0.8,2.5-1.2,3.3c-0.2-0.1-0.7-0.4-0.9-0.5c0.3-0.5,0.6-1.4,0.8-2.1
		L597,232.4L597,232.4z"/>
	<path class="st5" d="M608.5,236.9c-1.6,0.7-3.4,1.5-4.7,2.1l-0.4-1.2c0.5-0.2,1-0.4,1.6-0.6l-0.2-7.2h1.2l0.2,6.8
		c0.7-0.3,1.4-0.6,2.1-0.9L608.5,236.9z M613.6,240.3c-0.5-0.8-1.5-2-2.5-3c-0.9,1.3-2.2,2.3-3.9,3.1c-0.2-0.2-0.6-0.8-0.9-1
		c4-1.5,5.2-4.4,5.7-9.4l1.2,0.1c-0.3,2.5-0.7,4.5-1.5,6.1c1,1.1,2.2,2.3,2.8,3.2L613.6,240.3z M609.1,234.2
		c-0.3-0.8-1.1-2.1-1.8-2.9l1-0.5c0.8,0.9,1.5,2,1.9,2.9L609.1,234.2z"/>
	<path class="st5" d="M626,238.6v1.1h-10.7v-1.1h4.4v-9.1h1.2v3.6h4.3v1.1h-4.3v4.5L626,238.6L626,238.6z"/>
	<path class="st5" d="M579.2,249c-0.5,1.2-1.1,2.1-1.9,2.9c1.2,0.8,2.7,1.4,4.6,1.7c-0.2,0.2-0.5,0.7-0.7,1c-1.9-0.4-3.5-1-4.7-2
		c-1.3,1-2.9,1.6-4.7,2.1c-0.1-0.3-0.5-0.8-0.7-1c1.8-0.4,3.4-0.9,4.6-1.8c-0.8-0.8-1.4-1.8-1.8-2.9l1-0.3c0.4,1,0.9,1.8,1.7,2.5
		c0.7-0.7,1.3-1.5,1.7-2.6L579.2,249z M575.2,247.1c-0.8,1-2.1,2.1-3.1,2.8c-0.2-0.2-0.6-0.6-0.9-0.8c1.1-0.6,2.2-1.5,2.9-2.4
		L575.2,247.1z M581.6,246.4h-10.3v-1.1h4.8c-0.2-0.4-0.5-0.9-0.7-1.4l1.1-0.4c0.3,0.5,0.7,1.2,0.9,1.6l-0.3,0.1h4.6L581.6,246.4
		L581.6,246.4z M578.6,246.6c1.1,0.7,2.4,1.8,3.1,2.5l-0.9,0.7c-0.6-0.7-1.9-1.9-3-2.6L578.6,246.6z"/>
	<path class="st5" d="M592.9,249.8c0,0,0,0.3,0,0.5c-0.2,2.6-0.5,3.7-0.9,4.1c-0.3,0.3-0.5,0.3-0.9,0.4c-0.3,0-0.9,0-1.5,0
		c0-0.3-0.1-0.7-0.3-0.9c0.6,0.1,1.1,0.1,1.3,0.1s0.3,0,0.4-0.1c0.2-0.2,0.5-1,0.6-2.9h-1.3c-0.6,1.7-1.7,3.1-2.8,4
		c-0.2-0.2-0.6-0.5-0.9-0.7c1.1-0.8,1.9-2,2.5-3.3H588c-0.9,1.5-2.2,2.8-3.6,3.7c-0.2-0.2-0.6-0.6-0.8-0.8c1.2-0.7,2.4-1.7,3.2-2.9
		h-1.4c-0.6,0.6-1.3,1.1-1.9,1.5c-0.2-0.2-0.6-0.6-0.9-0.8c1.1-0.6,2.2-1.5,3-2.6h-1.2v-4.7h7.7v4.7h-5.2c-0.2,0.3-0.4,0.6-0.6,0.9
		L592.9,249.8L592.9,249.8z M585.4,246.1h5.5v-1h-5.5V246.1z M585.4,248h5.5v-1h-5.5V248z"/>
	<path class="st5" d="M596.6,245.7h2.4v0.9h-4.6v-0.9H596.6c-0.2-0.4-0.6-1.1-0.9-1.6l0.9-0.4c0.3,0.5,0.7,1.1,0.9,1.6L596.6,245.7z
		 M594.9,247.3h3.7v0.9h-3.7V247.3z M594.9,248.9h3.7v0.9h-3.7V248.9z M598.6,254h-2.7v0.5h-1v-4.1h3.7V254L598.6,254z M595.9,251.4
		v1.7h1.7v-1.7H595.9z M605.3,245.8h-1.7v7.4c0,0.7-0.2,1-0.6,1.2c-0.5,0.2-1.3,0.2-2.4,0.2c-0.1-0.3-0.3-0.8-0.4-1.1
		c0.9,0,1.8,0,2,0s0.3-0.1,0.3-0.3v-7.4h-3.2v-1.1h6.1L605.3,245.8L605.3,245.8z"/>
	<path class="st5" d="M616.8,253.1H612v1.6h-1.1v-1.6h-4.7v-1h4.7v-0.8h-3.5V247h8.3v4.3H612v0.8h4.8V253.1L616.8,253.1z
		 M611.1,246.5H607v-2.4h4.1V246.5z M610.1,244.9h-2v0.9h2V244.9z M608.5,248.8h2.4V248h-2.4V248.8z M610.9,250.5v-0.9h-2.4v0.9
		H610.9L610.9,250.5z M616.1,246.5H612v-2.4h4.1V246.5z M614.6,247.9H612v0.8h2.6V247.9z M614.6,249.6H612v0.9h2.6V249.6z
		 M615,244.9h-2v0.9h2V244.9z"/>
</g>
<g>
	<g>
		<path class="st1" d="M155.7,16.7c-0.4,1.1-1.1,2.5-1.6,3.3c-0.3-0.3-1.1-0.8-1.5-1c0.5-0.7,1-1.9,1.4-2.8L155.7,16.7z M158.1,15.9
			v5.2h-2.3v-5.2H153V14h2.9v-1h-3v-1.9h1.4c-0.1-0.4-0.2-0.9-0.4-1.3l1.2-0.3h-2v-2h2.5c-0.1-0.4-0.2-0.8-0.4-1.2l2.3-0.6
			c0.2,0.5,0.5,1.2,0.6,1.7h2.1v1.9h-1.8l1.2,0.2c-0.2,0.5-0.4,1-0.6,1.4h1.5v1.9h-2.6v1h2.2v1.9L158.1,15.9L158.1,15.9z M155.8,9.4
			c0.2,0.4,0.3,1,0.4,1.3L155,11h2.1c0.2-0.5,0.4-1.1,0.6-1.6H155.8z M168,13.4h-1.3v7.7h-2.3v-7.7h-1.1c0,2.4-0.2,5.8-1.5,7.8
			c-0.4-0.4-1.3-1.1-1.8-1.4c0.3-0.4,0.5-0.9,0.6-1.4l-1.1,0.7c-0.3-0.6-0.8-1.6-1.2-2.3l1.5-0.8c0.4,0.5,0.7,1.1,1,1.7
			c0.3-1.4,0.3-2.9,0.3-4.2v-6c1.7-0.3,3.6-0.9,4.8-1.5l1.8,1.7c-1.3,0.5-2.9,0.9-4.4,1.2v2.2h4.7V13.4L168,13.4z"/>
		<path class="st1" d="M178,6.6c-0.1,0.1-0.2,0.2-0.2,0.3c1.4,1.2,4,2.2,6.6,2.6c-0.5,0.4-1.1,1.2-1.5,1.8c-0.3-0.1-0.5-0.1-0.8-0.2
			v4.2h-11.4v-4.1c-0.3,0.1-0.6,0.2-0.8,0.3c-0.2-0.5-0.8-1.4-1.2-1.8c3-0.7,5.8-2,7.3-3.8L178,6.6z M171.6,15.6h9.7v5.6h-2.4v-0.3
			h-5v0.4h-2.3V15.6z M180.9,10.6c-0.6-0.2-1.2-0.5-1.7-0.8v0.4h-5.7V10c-0.5,0.2-1,0.4-1.5,0.7L180.9,10.6L180.9,10.6z M173.3,13.8
			c-0.1-0.4-0.2-1.1-0.4-1.5L174,12h-1.4v1.8H173.3z M173.8,17.1v0.4h5v-0.4H173.8z M178.9,19.3v-0.4h-5v0.4H178.9z M175.4,12h-0.8
			c0.2,0.5,0.4,1.1,0.4,1.5l-0.9,0.3h1.3V12L175.4,12z M177.4,8.8c-0.3-0.2-0.6-0.5-0.9-0.7c-0.3,0.2-0.6,0.5-0.9,0.7H177.4z
			 M177.2,12v1.8h1.1l-0.8-0.2c0.2-0.4,0.4-1.1,0.5-1.6H177.2z M180,12h-1.2l1,0.2c-0.3,0.6-0.5,1.2-0.8,1.6h0.9V12H180z"/>
		<path class="st1" d="M196.3,18.3c1.4,0.4,2.8,0.9,3.8,1.3l-2.1,1.6c-1.3-0.6-3.5-1.4-5.2-1.8l1.5-1.1h-4.1l1.3,1
			c-1.3,0.7-3.4,1.5-5,1.9c-0.4-0.5-1.2-1.2-1.8-1.7c1.2-0.3,2.7-0.7,3.7-1.2h-2.2v-7.2h12v7.2C198.2,18.3,196.3,18.3,196.3,18.3z
			 M197.8,10.7h-10.7V6.4h10.7V10.7z M188.7,13.1h7.2v-0.4h-7.2V13.1z M188.7,14.9h7.2v-0.4h-7.2V14.9z M188.7,16.8h7.2v-0.4h-7.2
			V16.8z M195.3,8.2h-5.9v0.7h5.9V8.2z"/>
	</g>
</g>
<g>
	<g>
		<path class="st1" d="M647.9,18.3c0.8,0.2,1.8,0.3,3,0.3c1.5,0,5.4,0,7.1-0.1c-0.4,0.5-0.7,1.6-0.9,2.3h-6.3c-2.8,0-4.7-0.3-6-2
			c-0.2,0.9-0.4,1.7-0.7,2.3c-0.4-0.3-1.4-0.8-1.9-1c0.8-1.6,0.9-4.2,0.9-6.9l2,0.1c0,0.7,0,1.5-0.1,2.1c0.2,0.5,0.4,0.9,0.6,1.3
			v-4.2h-3v-2h2.6v-1H643v-2h2.2V6h2.1v1.5h2.1v2h-2.1v1.2h2.4v0.2c0.8-0.6,1.4-1.4,1.6-2.4h-1.4v-2h7.1c0,0,0,0.5,0,0.8
			c-0.1,2.6-0.2,3.8-0.6,4.2c-0.3,0.4-0.7,0.5-1.2,0.6c-0.4,0.1-1.1,0.1-1.8,0.1c0-0.6-0.3-1.4-0.6-1.9c-0.4,0.9-1.1,1.6-1.9,2.2
			c-0.3-0.3-0.8-0.7-1.3-1v1.2h-2.1v1.4h1.9v2h-1.9L647.9,18.3L647.9,18.3z M650.6,12.7h6.4v5.1h-6.4V12.7z M652.8,16h1.9v-1.4h-1.9
			V16z M653.8,8.5c-0.1,0.7-0.4,1.3-0.6,1.8c0.5,0,0.9,0,1.2,0c0.2,0,0.3,0,0.5-0.2c0.1-0.2,0.2-0.6,0.3-1.7L653.8,8.5L653.8,8.5z"
			/>
		<path class="st1" d="M659.4,12.6c-0.1-0.4-0.5-1.5-0.7-2c0.4-0.1,0.6-0.4,0.9-0.8c0.3-0.4,1.3-2.2,1.8-3.8l2.1,0.9
			c-0.5,1.2-1.2,2.5-2,3.5h0.8c0.4-0.7,0.8-1.4,1.1-2.1l1.9,1.2c-0.6,1.1-1.4,2.2-2.3,3.3l1.3-0.5c0.5,1,1,2.3,1.1,3.2l-1.7,0.7
			c0-0.2-0.1-0.4-0.1-0.7c-3.2,0.6-3.9,0.8-4.3,1c-0.1-0.4-0.5-1.5-0.7-2c0.5-0.1,0.8-0.4,1.4-1c0.2-0.2,0.5-0.5,0.8-1
			C660,12.3,659.7,12.4,659.4,12.6L659.4,12.6L659.4,12.6z M661.1,17c-0.1,1.4-0.3,3-0.6,3.9c-0.4-0.2-1.2-0.5-1.7-0.6
			c0.4-0.9,0.5-2.3,0.6-3.6L661.1,17z M662.7,16.6c0.2,1,0.4,2.3,0.4,3.2l-1.6,0.4c0-0.9-0.2-2.2-0.3-3.2L662.7,16.6z M663.3,13.6
			c-0.1-0.3-0.2-0.5-0.3-0.7c-0.3,0.3-0.5,0.6-0.8,0.9L663.3,13.6z M673.7,11.5c-0.4,2.5-1.1,4.5-2,6.2c0.6,0.6,1.4,1.1,2.2,1.5
			c-0.5,0.4-1.2,1.3-1.5,1.9c-0.8-0.4-1.5-0.9-2.1-1.6c-0.6,0.6-1.3,1.2-2,1.7c-0.3-0.5-0.8-1.2-1.3-1.6c-0.2,0.6-0.5,1.1-0.8,1.5
			c-0.4-0.4-1.5-1.2-2-1.5c0.2-0.3,0.4-0.6,0.5-0.9l-1.2,0.4c-0.1-0.7-0.4-1.8-0.7-2.6l1.5-0.5c0.2,0.6,0.5,1.4,0.7,2
			c0.9-2.4,1.1-5.6,1.1-9.3H665V6.6h5.3l0.4-0.1l1.6,0.2c-0.2,1.4-0.4,3-0.7,4.4h0.3l0.4-0.1L673.7,11.5z M668.9,17.7
			c-0.4-0.6-0.7-1.2-0.9-1.9c-0.2,1.3-0.5,2.5-0.9,3.5C667.7,18.9,668.3,18.4,668.9,17.7z M668.4,8.8c0,0.8,0,1.6-0.1,2.3h1
			c0.1-0.7,0.3-1.6,0.4-2.3H668.4z M669.1,13.1c0.3,0.9,0.6,1.8,1.1,2.6c0.4-0.8,0.7-1.6,0.9-2.6H669.1z"/>
		<path class="st1" d="M683.9,6.6c-0.1,0.1-0.2,0.2-0.2,0.3c1.4,1.2,4,2.2,6.6,2.6c-0.5,0.4-1.1,1.2-1.5,1.8
			c-0.3-0.1-0.5-0.1-0.8-0.2v4.2h-11.4v-4.1c-0.3,0.1-0.6,0.2-0.8,0.3c-0.2-0.5-0.8-1.4-1.2-1.8c3-0.7,5.8-2,7.3-3.8L683.9,6.6z
			 M677.4,15.6h9.7v5.6h-2.4v-0.3h-5v0.4h-2.3V15.6L677.4,15.6z M686.8,10.6c-0.6-0.2-1.2-0.5-1.7-0.8v0.4h-5.7V10
			c-0.5,0.2-1,0.4-1.5,0.7L686.8,10.6L686.8,10.6z M679.2,13.8c-0.1-0.4-0.2-1.1-0.4-1.5l1.1-0.3h-1.4v1.8H679.2z M679.7,17.1v0.4h5
			v-0.4H679.7z M684.8,19.3v-0.4h-5v0.4H684.8z M681.2,12h-0.8c0.2,0.5,0.4,1.1,0.4,1.5l-0.9,0.3h1.3V12z M683.3,8.8
			c-0.3-0.2-0.6-0.5-0.9-0.7c-0.3,0.2-0.6,0.5-0.9,0.7H683.3z M683.1,12v1.8h1.1l-0.8-0.2c0.2-0.4,0.4-1.1,0.5-1.6H683.1z M685.9,12
			h-1.2l1,0.2c-0.3,0.6-0.5,1.2-0.8,1.6h0.9L685.9,12L685.9,12z"/>
		<path class="st1" d="M702.2,18.3c1.4,0.4,2.8,0.9,3.8,1.3l-2.1,1.6c-1.3-0.6-3.5-1.4-5.2-1.8l1.5-1.1h-4.1l1.3,1
			c-1.3,0.7-3.4,1.5-5,1.9c-0.4-0.5-1.2-1.2-1.8-1.7c1.2-0.3,2.7-0.7,3.7-1.2h-2.2v-7.2h12v7.2C704.1,18.3,702.2,18.3,702.2,18.3z
			 M703.7,10.7H693V6.4h10.7V10.7z M694.6,13.1h7.2v-0.4h-7.2V13.1z M694.6,14.9h7.2v-0.4h-7.2V14.9z M694.6,16.8h7.2v-0.4h-7.2
			V16.8z M701.2,8.2h-5.9v0.7h5.9V8.2z"/>
	</g>
</g>
<g class="st3">
	<path d="M42.1,59.4h-4v-10H42c1.8,0,3,1.1,3,2.7c0,1.1-0.7,1.8-1.3,2.1c0.8,0.3,1.5,1.1,1.5,2.3C45.1,58.4,43.9,59.4,42.1,59.4z
		 M41.8,50.8h-2.2v2.9h2.2c1,0,1.6-0.5,1.6-1.4S42.8,50.8,41.8,50.8z M42,55h-2.4v3H42c1.1,0,1.6-0.6,1.6-1.5S43,55,42,55z"/>
	<path d="M51.5,59.4v-0.7c-0.5,0.5-1.2,0.8-1.9,0.8s-1.3-0.2-1.8-0.6c-0.5-0.5-0.7-1.2-0.7-2v-4.5h1.4v4.3c0,1.1,0.6,1.6,1.4,1.6
		c0.8,0,1.5-0.5,1.5-1.6v-4.3h1.4v7.1L51.5,59.4L51.5,59.4z"/>
	<path d="M57.4,59.5c-1.2,0-2.1-0.2-3-1l0.9-0.9c0.6,0.6,1.3,0.7,2,0.7c0.9,0,1.6-0.3,1.6-1c0-0.5-0.3-0.8-1-0.8l-1.1-0.1
		c-1.3-0.1-2.1-0.7-2.1-2c0-1.4,1.2-2.2,2.7-2.2c1.1,0,2,0.2,2.6,0.8l-0.9,0.9c-0.4-0.4-1.1-0.5-1.8-0.5c-0.9,0-1.3,0.4-1.3,0.9
		c0,0.4,0.2,0.7,1,0.8l1.1,0.1c1.3,0.1,2.1,0.7,2.1,2C60.4,58.7,59.1,59.5,57.4,59.5z"/>
	<path d="M62.1,50.9v-1.5h1.5v1.5H62.1z M62.1,59.4v-7.1h1.4v7.1H62.1z"/>
	<path d="M70.2,59.4v-4.3c0-1.1-0.6-1.6-1.4-1.6s-1.5,0.5-1.5,1.6v4.3h-1.4v-7.1h1.4V53c0.5-0.5,1.2-0.8,1.9-0.8
		c0.7,0,1.3,0.2,1.8,0.6c0.5,0.5,0.7,1.2,0.7,2v4.5C71.6,59.4,70.2,59.4,70.2,59.4z"/>
	<path d="M74.8,56.3c0,1.2,0.6,2,1.8,2c0.8,0,1.2-0.2,1.7-0.7l0.9,0.9c-0.7,0.7-1.4,1.1-2.7,1.1c-1.8,0-3.2-0.9-3.2-3.6
		c0-2.3,1.2-3.6,3-3.6c1.9,0,3,1.4,3,3.4v0.6L74.8,56.3L74.8,56.3z M77.8,54.3c-0.2-0.5-0.7-0.9-1.4-0.9s-1.2,0.4-1.4,0.9
		c-0.1,0.3-0.2,0.5-0.2,1H78C78,54.8,78,54.6,77.8,54.3z"/>
	<path d="M83.6,59.5c-1.2,0-2.1-0.2-3-1l0.9-0.9c0.6,0.6,1.3,0.7,2,0.7c0.9,0,1.6-0.3,1.6-1c0-0.5-0.3-0.8-1-0.8L83,56.4
		c-1.3-0.1-2.1-0.7-2.1-2c0-1.4,1.2-2.2,2.7-2.2c1.1,0,2,0.2,2.6,0.8l-0.9,0.9c-0.4-0.4-1.1-0.5-1.8-0.5c-0.9,0-1.3,0.4-1.3,0.9
		c0,0.4,0.2,0.7,1,0.8l1.1,0.1c1.3,0.1,2.1,0.7,2.1,2C86.6,58.7,85.3,59.5,83.6,59.5z"/>
	<path d="M90.5,59.5c-1.2,0-2.1-0.2-3-1l0.9-0.9c0.6,0.6,1.3,0.7,2,0.7c0.9,0,1.6-0.3,1.6-1c0-0.5-0.3-0.8-1-0.8l-1-0.1
		c-1.3-0.1-2.1-0.7-2.1-2c0-1.4,1.2-2.2,2.7-2.2c1.1,0,2,0.2,2.6,0.8l-0.9,0.9c-0.4-0.4-1.1-0.5-1.8-0.5c-0.9,0-1.3,0.4-1.3,0.9
		c0,0.4,0.2,0.7,1,0.8l1.1,0.1c1.3,0.1,2.1,0.7,2.1,2C93.5,58.7,92.2,59.5,90.5,59.5z"/>
	<path d="M100.2,53.5v5.9h-1.4v-5.9H98v-1.1h0.8v-1.1c0-1,0.6-2,1.9-2h0.9v1.2H101c-0.5,0-0.8,0.3-0.8,0.8v1h1.4v1.1L100.2,53.5
		L100.2,53.5z M104.9,59.4c-1.4,0-1.9-0.9-1.9-2v-8h1.4v7.9c0,0.5,0.2,0.8,0.8,0.8h0.6v1.2C105.8,59.4,104.9,59.4,104.9,59.4z"/>
	<path d="M112.1,58.7c-0.5,0.5-1.2,0.8-2.1,0.8c-1,0-1.7-0.4-2.1-0.8c-0.7-0.7-0.8-1.6-0.8-2.8s0.2-2.1,0.8-2.8
		c0.5-0.5,1.1-0.8,2.1-0.8s1.7,0.4,2.1,0.8c0.7,0.7,0.8,1.6,0.8,2.8C112.9,57.1,112.8,58,112.1,58.7z M111,53.9
		c-0.3-0.3-0.6-0.4-1.1-0.4c-0.4,0-0.8,0.1-1,0.4c-0.4,0.4-0.5,1.2-0.5,1.9s0.1,1.5,0.5,1.9c0.3,0.3,0.6,0.4,1,0.4s0.8-0.2,1.1-0.4
		c0.4-0.4,0.5-1.2,0.5-1.9S111.4,54.3,111,53.9z"/>
	<path d="M121.7,59.4h-1.2l-1.7-5l-1.7,5h-1.2l-2.2-7.1h1.5l1.4,5l1.7-5h1.1l1.6,5l1.4-5h1.5L121.7,59.4z"/>
</g>
</svg>
