<?xml version="1.0" encoding="utf-8"?>
<!-- Generator: Adobe Illustrator 26.2.1, SVG Export Plug-In . SVG Version: 6.00 Build 0)  -->
<svg version="1.1" id="圖層_1" xmlns="http://www.w3.org/2000/svg" xmlns:xlink="http://www.w3.org/1999/xlink" x="0px" y="0px"
	 width="420px" height="570px" viewBox="0 0 420 570" style="enable-background:new 0 0 420 570;" xml:space="preserve">
<style type="text/css">
	.st0{fill:#C9CACA;}
	.st1{fill:#EE87B4;}
	.st2{fill:#040000;}
	.st3{enable-background:new    ;}
	.st4{fill:#FFFFFF;}
	.st5{fill:#796BAE;}
	.st6{fill:#606060;}
</style>
<g>
	<path class="st0" d="M393.5,73.6l-17.3-17.3v12.5c-1.5,0-4.9-0.4-8.7-4.2c-4.8-4.8-20.6-23.6-28-31.5c-9-9.6-14.4-12.2-22.3-12.2
		H309v11.2h10.8c4.7,0,8.6,3.5,16.3,11.2c7.7,7.7,23.2,27.8,28,32.6c4,4,9.9,4.2,12.1,4.2v10.8L393.5,73.6z"/>
	<path class="st0" d="M340.8,55.9c-3.4,3.9-6.3,7.2-7.9,8.8c-3.8,3.8-7.2,4.2-8.7,4.2V56.3l-17.3,17.3l17.3,17.3V80.1
		c2.2,0,8.1-0.2,12.1-4.2c2.1-2.1,6.2-7,10.7-12.6C345,60.8,342.9,58.3,340.8,55.9"/>
	<path class="st0" d="M357.5,46.1c0.7,0.8,1.4,1.6,2.1,2.4c1.8-2,3.4-3.7,4.7-5.1c7.7-7.7,11.6-11.2,16.3-11.2h10.8V20.9h-8.2
		c-7.9,0-13.3,2.6-22.3,12.2c-2,2.1-4.6,5.1-7.4,8.3C354.8,43,356.1,44.5,357.5,46.1"/>
</g>
<path class="st0" d="M37.7,103.6h65.4c-2.7-10.8-8.1-24.2-18.9-28c10.6-5.1,17.9-15.9,17.9-28.4c0-17.4-14.2-31.6-31.7-31.6
	S38.7,29.7,38.7,47.2c0,12.5,7.3,23.3,17.9,28.4C45.8,80.7,40.4,93.6,37.7,103.6z M70,62.7c-2.1,0-3.7-1.5-3.7-3.6s1.6-3.6,3.7-3.6
	s3.6,1.5,3.6,3.6C73.7,61.2,72.1,62.7,70,62.7z M59.1,39.4c0-6.2,5.1-11.3,11.3-11.3c6.2,0,11.3,5.1,11.3,11.3
	c0,5.1-3.4,9.5-8.1,10.9v3.6h-7.3V43.8h4.1c2.3,0,4-1.8,4-4.1s-1.8-4-4-4c-2.3,0-4,1.7-4.1,3.8v0.2h-7.2L59.1,39.4L59.1,39.4z"/>
<g>
	<path class="st0" d="M217.6,15.2l-32.4,4.6L170,49.2l40.3,54.4l47.6-34L217.6,15.2z M199.3,38.4c-2.2,1.6-5.3,1.1-6.9-1.1
		c-1.6-2.2-1.1-5.2,1.1-6.8c2.2-1.6,5.3-1.1,6.9,1.1C202,33.8,201.5,36.8,199.3,38.4z"/>
</g>
<g>
	<path class="st1" d="M247.4,504.9l-4.3,1.7l0,0H243c-2,0.8-4,1.5-4,1.5l1.1,2.8l8.4-3.3L247.4,504.9L247.4,504.9z M233.4,510.4
		l-8.4,3.3l1.1,2.8l8.4-3.3L233.4,510.4L233.4,510.4z M219.4,515.8l-5.5,2.1l0,0l0,0l0,0l0,0l-2.9-1.1l-1.1,2.8l2.9,1.1
		c0.4,0.1,0.7,0.2,1.1,0.2c0.4,0,0.7-0.1,1.1-0.2l5.5-2.1L219.4,515.8L219.4,515.8z M197.1,511.4l-1.1,2.8l8.4,3.3l1.1-2.8
		c0,0-0.8-0.3-1.9-0.8l0,0c0,0,0,0-0.1,0l0,0l0,0l0,0c-0.1,0-0.1,0-0.2-0.1l0,0l0,0l0,0c0,0,0,0-0.1,0h-0.1l0,0l0,0l0,0l0,0l0,0l0,0
		l0,0l0,0l0,0l0,0l0,0l0,0l0,0H203l0,0L197.1,511.4L197.1,511.4z M183.1,506l-1.1,2.8l8.4,3.3l1.1-2.8L183.1,506L183.1,506z
		 M169.1,500.5l-0.8,2.1h-1.8v9h3v-7.8l6.9,2.7l1.1-2.8l-4.2-1.6l0,0l0,0C171.2,501.4,169.1,500.5,169.1,500.5L169.1,500.5z
		 M169.5,517.7h-3v9h3V517.7L169.5,517.7z M169.5,532.7h-3c0,0,0,5.8,0,6.4l0,0l0,0l0,0l0,0l0,0l2.7,1.4c0.2-0.4,0.3-0.9,0.3-1.4
		v-0.4l0.6-1.1l-0.6-0.3V532.7L169.5,532.7z M175.4,540.3L174,543l8,4.1l1.4-2.7L175.4,540.3L175.4,540.3z M188.8,547.1l-1.4,2.7
		c0,0,1.8,0.9,3.6,1.8l0,0l0,0l0,0l0,0l0,0l0,0l0,0l0,0l0,0l0,0l4.3,2.2l1.4-2.7L188.8,547.1L188.8,547.1z M202.2,553.9l-1.4,2.7
		c0,0,2.4,1.2,4.6,2.3l0,0l0,0l0,0l0,0l3.4,1.7l1.4-2.7L202.2,553.9L202.2,553.9z M220.9,556.3l-8,4.1l1.4,2.7c0,0,4.2-2.1,6.6-3.3
		l0,0l0,0l0,0l0,0l0,0l0,0l0,0l0,0l0,0l0,0l0,0l0,0l0,0l0,0l0,0l0,0l1.3-0.7L220.9,556.3L220.9,556.3z M234.2,549.5l-8,4.1l1.4,2.7
		c0,0,1.8-0.9,3.7-1.9l0,0l0,0l0,0l0,0l0,0l0,0l0,0l0,0l0,0l0,0l0,0l0,0l4.1-2.1L234.2,549.5L234.2,549.5z M247.6,542.8l-8,4.1
		l1.4,2.7l7.1-3.6l0,0l0,0l0,0l0,0l0,0l0,0l0,0l0,0l0,0l0,0l0,0l0,0l0,0l0,0c0,0,0,0,0.1,0l0,0c0,0,0,0,0.1,0l0,0
		c0.5-0.2,0.7-0.4,0.7-0.4L247.6,542.8L247.6,542.8z M260,536.5l0.8,1.6l0,0L260,536.5l-7.1,3.6l1.4,2.7l7.1-3.6l0,0l0,0l0,0l0,0
		l0,0l0,0l0,0l0,0l0,0l0,0l0,0l0,0l0,0v-1.1h-0.6L260,536.5L260,536.5z M261.4,523.1h-3v9h3V523.1L261.4,523.1z M261.4,508.1h-3v9h3
		V508.1L261.4,508.1z M261.4,499.5l-3,1.2l0,0c-2.4,0.9-5.4,2.1-5.4,2.1l1.1,2.8l7.3-2.8V499.5L261.4,499.5z"/>
</g>
<g>
	<path class="st1" d="M212.9,537.8c-0.3-0.3-0.4-0.7-0.4-1.1c0-0.4,0.1-0.8,0.4-1.1c0.3-0.3,0.6-0.5,1-0.5s0.7,0.1,1,0.5
		c0.3,0.3,0.4,0.7,0.4,1.1s-0.1,0.8-0.4,1.1c-0.3,0.3-0.6,0.5-1,0.5S213.2,538.1,212.9,537.8z M212.9,543.8
		c-0.3-0.3-0.4-0.7-0.4-1.1c0-0.4,0.1-0.8,0.4-1.1c0.3-0.3,0.6-0.5,1-0.5s0.7,0.1,1,0.5c0.3,0.3,0.4,0.7,0.4,1.1
		c0,0.4-0.1,0.8-0.4,1.1c-0.3,0.3-0.6,0.4-1,0.4C213.5,544.3,213.2,544.1,212.9,543.8z M212.9,531.8c-0.3-0.3-0.4-0.7-0.4-1.1
		c0-0.4,0.1-0.8,0.4-1.1c0.3-0.3,0.6-0.4,1-0.4s0.7,0.1,1,0.4c0.3,0.3,0.4,0.7,0.4,1.1c0,0.4-0.1,0.8-0.4,1.1
		c-0.3,0.3-0.6,0.5-1,0.5S213.2,532.1,212.9,531.8z"/>
</g>
<g>
	<g>
		<path class="st2" d="M350,156.4c0.3,0.3,0.4,0.7,0.4,1.1s-0.1,0.8-0.4,1.1s-0.6,0.4-1,0.4s-0.7-0.1-1-0.4
			c-0.3-0.3-0.4-0.7-0.4-1.1s0.1-0.8,0.4-1.1s0.6-0.5,1-0.5C349.5,155.9,349.8,156.1,350,156.4z M350.1,144.3
			c0.3,0.3,0.4,0.7,0.4,1.1c0,0.4-0.1,0.8-0.4,1.1s-0.6,0.5-1,0.5s-0.7-0.1-1-0.5c-0.3-0.3-0.4-0.7-0.4-1.1c0-0.4,0.1-0.8,0.4-1.1
			s0.6-0.4,1-0.4C349.5,143.9,349.8,144.1,350.1,144.3z M350.1,150.4c0.3,0.3,0.4,0.7,0.4,1.1c0,0.4-0.1,0.8-0.4,1.1s-0.6,0.4-1,0.4
			s-0.7-0.1-1-0.4c-0.3-0.3-0.4-0.7-0.4-1.1s0.1-0.8,0.4-1.1s0.6-0.5,1-0.5S349.8,150.1,350.1,150.4z"/>
		<path class="st2" d="M350,138.4c0.3,0.3,0.4,0.7,0.4,1.1s-0.1,0.8-0.4,1.1s-0.6,0.4-1,0.4s-0.7-0.1-1-0.4
			c-0.3-0.3-0.4-0.7-0.4-1.1s0.1-0.8,0.4-1.1s0.6-0.5,1-0.5C349.5,137.9,349.8,138.1,350,138.4z M350.1,126.3
			c0.3,0.3,0.4,0.7,0.4,1.1s-0.1,0.8-0.4,1.1s-0.6,0.5-1,0.5s-0.7-0.1-1-0.5c-0.3-0.3-0.4-0.7-0.4-1.1s0.1-0.8,0.4-1.1
			c0.3-0.3,0.6-0.4,1-0.4S349.8,126.1,350.1,126.3z M350.1,132.4c0.3,0.3,0.4,0.7,0.4,1.1c0,0.4-0.1,0.8-0.4,1.1s-0.6,0.4-1,0.4
			s-0.7-0.1-1-0.4c-0.3-0.3-0.4-0.7-0.4-1.1s0.1-0.8,0.4-1.1s0.6-0.5,1-0.5S349.8,132.1,350.1,132.4z"/>
	</g>
</g>
<polygon class="st1" points="213.9,508.3 261.4,490.5 261.4,399.5 213.9,417.2 166.5,399.5 166.5,490.5 166.4,490.5 "/>
<polygon class="st1" points="213.9,411.2 261.4,393.4 261.4,302.4 213.9,320.1 166.5,302.4 166.5,393.4 166.4,393.4 "/>
<polygon class="st1" points="213.9,314.1 261.4,296.3 261.4,205.2 213.9,223 166.5,205.2 166.5,296.3 166.4,296.3 "/>
<polygon class="st1" points="213.9,217 261.4,199.2 261.4,108.1 213.9,125.9 166.5,108.1 166.5,199.2 166.4,199.2 "/>
<g>
	<path class="st1" d="M185.9,29.8c-2.2,0-4-0.4-5.4-1.9l2.2-2.2c0.7,0.7,2,1,3.2,1c1.4,0,2-0.5,2-1.3c0-0.3-0.1-0.6-0.3-0.8
		c-0.2-0.2-0.5-0.3-0.9-0.4L185,24c-1.3-0.2-2.2-0.6-2.9-1.3c-0.7-0.7-1-1.6-1-2.9c0-2.6,2-4.5,5.2-4.5c2,0,3.6,0.5,4.8,1.7
		l-2.2,2.2c-0.9-0.9-2.1-0.8-2.7-0.8c-1.2,0-1.7,0.7-1.7,1.3c0,0.2,0.1,0.4,0.3,0.7c0.2,0.2,0.5,0.4,1,0.4l1.7,0.2
		c1.3,0.2,2.2,0.6,2.8,1.2c0.8,0.7,1.1,1.8,1.1,3.1C191.4,28.2,188.9,29.8,185.9,29.8z"/>
	<path class="st1" d="M197.1,29.6c-2.4,0-3.3-1.7-3.3-3.2v-4.6h-1v-2.5h1v-3.1h3.3v3.1h1.7v2.5h-1.7v4.4c0,0.4,0.2,0.7,0.7,0.7h1
		v2.8L197.1,29.6L197.1,29.6z"/>
	<path class="st1" d="M206,29.6v-0.9c-0.7,0.7-1.3,1-2.4,1c-1.1,0-2-0.4-2.6-1s-0.9-1.5-0.9-2.5c0-1.6,1.1-3.1,3.7-3.1h2.2v-0.3
		c0-1-0.5-1.3-1.6-1.3c-0.8,0-1.2,0.2-1.7,0.7l-2-2c1.1-1.1,2.1-1.4,3.9-1.4c3.1,0,4.7,1.3,4.7,3.9v7L206,29.6L206,29.6z
		 M205.9,25.3h-1.7c-0.6,0-1,0.4-1,0.9s0.4,0.9,1.1,0.9c0.6,0,0.9-0.1,1.3-0.4c0.2-0.2,0.3-0.6,0.3-1.1L205.9,25.3L205.9,25.3z"/>
	<path class="st1" d="M215.3,33.2c-1.7,0-2.9-0.3-4-1.4l2-2c0.5,0.5,1.1,0.7,1.8,0.7c1.4,0,1.7-0.9,1.7-1.6v-0.8
		c-0.6,0.6-1.3,0.9-2.3,0.9s-1.9-0.3-2.5-1c-1-1-1-2.2-1-4.1s0-3.2,1-4.1c0.6-0.6,1.5-1,2.5-1c1.1,0,1.7,0.3,2.4,1v-0.9h3.2v10
		C220.2,31.4,218.3,33.2,215.3,33.2z M215.6,21.7c-1.2,0-1.3,1-1.3,2.1s0.1,2.1,1.3,2.1s1.3-1,1.3-2.1
		C216.9,22.8,216.8,21.7,215.6,21.7z"/>
	<path class="st1" d="M225.4,25.3c0,0.9,0.7,1.7,1.9,1.7c1.1,0,1.6-0.3,2.2-0.9l2,2c-1.1,1.1-2.2,1.7-4.2,1.7
		c-2.4,0-5.1-0.9-5.1-5.5c0-3.5,2-5.5,4.8-5.5c3.1,0,4.8,2.3,4.8,5.1v1.5L225.4,25.3L225.4,25.3z M228.4,22.3
		c-0.2-0.5-0.6-0.8-1.4-0.8c-0.8,0-1.2,0.4-1.4,0.8c-0.1,0.3-0.2,0.6-0.2,0.8h3.2C228.6,22.9,228.6,22.6,228.4,22.3z"/>
	<path class="st1" d="M238.1,29.6v-3l5.2-5.6c0.5-0.6,0.7-0.9,0.7-1.5c0-0.8-0.4-1.3-1.3-1.3c-0.6,0-1.3,0.3-1.3,1.4h-3.3
		c0-2.8,2.1-4.3,4.6-4.3c2.6,0,4.6,1.6,4.6,4.3c0,1.5-0.6,2.3-1.8,3.5l-3.4,3.6h5.2v3h-9.2V29.6z"/>
</g>
<g class="st3">
	<path class="st2" d="M182.8,53c-1.5,0-2.6-0.4-3.5-1.3l1-1c0.7,0.7,1.5,1,2.5,1c1.3,0,2.1-0.6,2.1-1.5c0-0.4-0.1-0.8-0.4-1
		c-0.3-0.2-0.5-0.3-1.1-0.4l-1.2-0.2c-0.8-0.1-1.5-0.4-1.9-0.8c-0.5-0.5-0.7-1.1-0.7-1.9c0-1.7,1.3-2.9,3.3-2.9
		c1.3,0,2.2,0.3,3.1,1.1l-1,1c-0.6-0.6-1.3-0.8-2.2-0.8c-1.2,0-1.8,0.7-1.8,1.6c0,0.4,0.1,0.7,0.4,0.9c0.3,0.2,0.7,0.4,1.1,0.5
		l1.1,0.2c0.9,0.1,1.4,0.4,1.9,0.7c0.5,0.5,0.8,1.2,0.8,2C186.4,51.9,184.9,53,182.8,53z"/>
	<path class="st2" d="M190.3,52.9c-1.3,0-1.9-1-1.9-2V47h-0.8v-1.1h0.8v-2.2h1.4v2.2h1.4V47h-1.4v3.8c0,0.5,0.3,0.8,0.8,0.8h0.6v1.2
		L190.3,52.9L190.3,52.9z"/>
	<path class="st2" d="M196.8,52.9v-0.6c-0.5,0.5-1,0.7-1.9,0.7s-1.5-0.2-1.9-0.6c-0.4-0.4-0.6-0.9-0.6-1.5c0-1.2,0.8-2,2.5-2h1.9
		v-0.5c0-0.9-0.4-1.3-1.6-1.3c-0.8,0-1.2,0.2-1.6,0.7l-0.9-0.9c0.7-0.8,1.4-1,2.6-1c1.9,0,2.9,0.8,2.9,2.4V53L196.8,52.9L196.8,52.9
		z M196.8,49.8h-1.7c-0.8,0-1.3,0.4-1.3,1s0.4,1,1.3,1c0.5,0,1,0,1.3-0.4c0.2-0.2,0.3-0.5,0.3-1.1L196.8,49.8L196.8,49.8z"/>
	<path class="st2" d="M202.5,52.9c-1.3,0-1.9-1-1.9-2V47h-0.8v-1.1h0.8v-2.2h1.4v2.2h1.4V47H202v3.8c0,0.5,0.3,0.8,0.8,0.8h0.6v1.2
		L202.5,52.9L202.5,52.9z"/>
	<path class="st2" d="M209.5,52.9v-0.7c-0.5,0.5-1.2,0.8-1.9,0.8s-1.3-0.2-1.8-0.6c-0.5-0.5-0.7-1.2-0.7-2v-4.5h1.4v4.3
		c0,1.1,0.6,1.6,1.4,1.6c0.8,0,1.5-0.5,1.5-1.6v-4.3h1.4V53L209.5,52.9L209.5,52.9z"/>
	<path class="st2" d="M215.4,53c-1.2,0-2.1-0.2-3-1l0.9-0.9c0.6,0.6,1.3,0.7,2,0.7c0.9,0,1.6-0.3,1.6-1c0-0.5-0.3-0.8-1-0.8
		l-1.1-0.1c-1.3-0.1-2.1-0.7-2.1-2c0-1.4,1.2-2.2,2.7-2.2c1.1,0,2,0.2,2.6,0.8l-0.9,0.9c-0.4-0.4-1.1-0.5-1.8-0.5
		c-0.9,0-1.3,0.4-1.3,0.9c0,0.4,0.2,0.7,1,0.8l1.1,0.1c1.3,0.1,2.1,0.7,2.1,2C218.4,52.2,217.1,53,215.4,53z"/>
	<path class="st2" d="M225.6,52.9c-1.3,0-1.9-1-1.9-2V47h-0.8v-1.1h0.8v-2.2h1.4v2.2h1.4V47h-1.4v3.8c0,0.5,0.3,0.8,0.8,0.8h0.6v1.2
		L225.6,52.9L225.6,52.9z"/>
	<path class="st2" d="M232,52.9v-0.6c-0.5,0.5-1,0.7-1.9,0.7s-1.5-0.2-1.9-0.6c-0.4-0.4-0.6-0.9-0.6-1.5c0-1.2,0.8-2,2.5-2h1.9v-0.5
		c0-0.9-0.4-1.3-1.6-1.3c-0.8,0-1.2,0.2-1.6,0.7l-0.9-0.9c0.7-0.8,1.4-1,2.5-1c1.9,0,2.9,0.8,2.9,2.4V53L232,52.9L232,52.9z
		 M232,49.8h-1.7c-0.8,0-1.3,0.4-1.3,1s0.4,1,1.3,1c0.5,0,1,0,1.3-0.4c0.2-0.2,0.3-0.5,0.3-1.1L232,49.8L232,49.8z"/>
	<path class="st2" d="M238,55.9c-1.1,0-1.8-0.3-2.5-0.9l0.9-0.9c0.4,0.4,0.8,0.6,1.5,0.6c1.2,0,1.7-0.9,1.7-1.8V52
		c-0.5,0.6-1.1,0.8-1.8,0.8s-1.3-0.2-1.7-0.6c-0.7-0.7-0.8-1.7-0.8-2.9s0.1-2.2,0.8-2.9c0.4-0.4,1-0.6,1.7-0.6
		c0.8,0,1.3,0.2,1.9,0.8v-0.8h1.4v7.1C241.1,54.6,239.9,55.9,238,55.9z M238.2,47c-1.3,0-1.5,1.1-1.5,2.2c0,1.1,0.2,2.2,1.5,2.2
		s1.4-1.1,1.4-2.2C239.6,48.1,239.5,47,238.2,47z"/>
	<path class="st2" d="M245.6,53c-1.2,0-2.1-0.2-3-1l0.9-0.9c0.6,0.6,1.3,0.7,2,0.7c0.9,0,1.6-0.3,1.6-1c0-0.5-0.3-0.8-1-0.8
		l-1.1-0.1c-1.3-0.1-2.1-0.7-2.1-2c0-1.4,1.2-2.2,2.7-2.2c1.1,0,2,0.2,2.6,0.8l-0.9,0.9c-0.4-0.4-1.1-0.5-1.8-0.5
		c-0.9,0-1.3,0.4-1.3,0.9c0,0.4,0.2,0.7,1,0.8l1.1,0.1c1.3,0.1,2.1,0.7,2.1,2C248.6,52.2,247.3,53,245.6,53z"/>
</g>
<g class="st3">
	<path class="st2" d="M191.5,66.2c0.3,2.5,1.1,5.9,4.2,7.8c-0.6,0.4-1.2,1.2-1.6,1.8c-2-1.4-3.1-3.4-3.8-5.5
		c-0.7,2.1-1.9,4.1-4.2,5.6c-0.2-0.4-0.7-1-1.1-1.4v1.3h-2v-6.1h-1.3V70c0,1.4-0.2,3.9-1.6,5.4c-0.4-0.3-1.2-0.8-1.6-1
		c1.2-1.3,1.3-3.3,1.3-4.4v-0.3h-1.1v-1.9h4.3v-2h-2.8l0,0h-0.9v-6h1.9V64h1.7v-5h2v15c3-2.1,3.8-5.1,4-7.8h-3.4v-2.1h3.4v-5h2.1v5
		h4.3v2.1H191.5L191.5,66.2z M193.4,63.6c-0.3-0.9-1.2-2.3-1.9-3.3l1.7-0.8c0.8,1,1.7,2.3,2,3.2L193.4,63.6z"/>
	<path class="st2" d="M196.7,74.5c0.6-0.9,1.1-2.2,1.4-3.3l1.8,0.7c-0.3,1.2-0.8,2.6-1.4,3.5L196.7,74.5z M204,63.6
		c-0.1-0.3-0.3-0.6-0.5-0.9c-4.9,0.5-5.7,0.6-6.1,0.8c-0.1-0.4-0.4-1.2-0.6-1.7c0.3-0.1,0.6-0.3,1-0.5c0.3-0.2,1.5-1.2,2.2-2.2
		l1.9,0.6c-0.6,0.7-1.3,1.4-2,2l2.7-0.2c-0.2-0.3-0.5-0.6-0.7-0.9l1.4-0.7c0.8,0.9,1.8,2.2,2.2,3L204,63.6z M199.4,68.7
		c-0.2,0.9-0.5,1.8-1.1,2.4c-0.3-0.3-1.1-0.9-1.5-1.1c1-1.1,1-2.4,1-3.6v-2.7h6.6v5.6c0,0.8-0.2,1.1-0.7,1.4
		c-0.5,0.2-1.2,0.2-2.2,0.2c-0.1-0.4-0.3-1-0.5-1.4c0.6,0,1.1,0,1.3,0s0.3-0.1,0.3-0.2v-0.9c-1,0.4-1.9,0.8-2.8,1.2L199.4,68.7z
		 M199.6,66.4c0,0.5,0,1.1-0.1,1.7c0.6-0.2,1.4-0.4,2.3-0.7C201.3,67.1,200.3,66.7,199.6,66.4L199.6,66.4L199.6,66.4z M199.6,65.2v1
		l0.6-0.8c0.7,0.3,1.8,0.7,2.3,1v-1.2H199.6L199.6,65.2z M206.9,73.9c0.8,0,0.9-0.3,1-1.8c0.4,0.3,1.3,0.6,1.8,0.7
		c-0.2,2.3-0.8,2.8-2.7,2.8h-3.4c-2.4,0-3-0.5-3-2.2v-1.8h2.1v1.8c0,0.5,0.2,0.6,1.1,0.6L206.9,73.9L206.9,73.9z M202.6,67.2v-0.8
		l-0.7,1L202.6,67.2z M205.2,70.3c0.6,0.6,1.3,1.5,1.7,2.1l-1.6,1.1c-0.4-0.6-1.1-1.5-1.6-2.2L205.2,70.3z M208.3,64.8
		c-2,0-2.5-0.7-2.5-2.4v-3.1h2v1.1h4.2V62h-4.2v0.5c0,0.5,0.1,0.7,0.6,0.7h2.5c0.5,0,1.3-0.1,1.6-0.1c0,0.5,0.1,1.2,0.2,1.7
		c-0.4,0.1-1.1,0.1-1.7,0.1L208.3,64.8L208.3,64.8L208.3,64.8z M208.3,70.9c-2.1,0-2.5-0.5-2.5-2.3v-3.5h2v1.2h4.3v1.6h-4.3v0.8
		c0,0.5,0.1,0.6,0.8,0.6h2.1c0.5,0,0.6-0.1,0.7-0.9c0.4,0.3,1.2,0.5,1.7,0.6c-0.2,1.5-0.8,2-2.2,2L208.3,70.9L208.3,70.9z
		 M211.7,71.2c0.5,1,1.1,2.4,1.4,3.2l-2,0.6c-0.2-0.8-0.8-2.3-1.2-3.3L211.7,71.2z"/>
	<path class="st2" d="M224.1,73.4c0.7,0.1,1.4,0.1,2.1,0.1c1,0,3.9,0,5.1,0c-0.3,0.5-0.7,1.5-0.8,2.2H226c-3.4,0-5.8-0.6-7.5-3.2
		c-0.6,1.4-1.4,2.6-2.4,3.5c-0.3-0.4-1.3-1.1-1.7-1.4c1.9-1.5,2.8-4,3.2-7l2.2,0.2c-0.1,0.8-0.2,1.5-0.4,2.2
		c0.5,1.5,1.4,2.3,2.4,2.9v-6.1H218v-2.1h9.9v2.1h-3.8v2.1h4.9v2h-4.9L224.1,73.4L224.1,73.4z M217.4,65.5h-2.1V61h6.7
		c-0.2-0.5-0.4-1-0.6-1.5l2.2-0.6c0.4,0.6,0.7,1.4,0.9,2.1h6.2v4.5h-2.2V63h-11.1L217.4,65.5L217.4,65.5z"/>
	<path class="st2" d="M248,71.4c-0.6,0.7-1.3,1.4-2.1,2c0.4,0.3,0.9,0.5,1.4,0.5c0.4,0,0.5-0.3,0.6-1.3c0.4,0.4,1.1,0.7,1.6,0.8
		c-0.3,2-0.9,2.4-2.3,2.4c-1.2,0-2.2-0.5-3.1-1.4c-1.2,0.6-2.4,1-3.7,1.4c-0.2-0.4-0.7-1.3-1-1.7c1.2-0.3,2.5-0.6,3.6-1.1
		c-0.4-0.6-0.7-1.4-0.9-2.1h-3.5v0.7l2.7-0.1v1.4l-2.7,0.2V74c0,1-0.2,1.4-0.9,1.6c-0.7,0.3-1.6,0.3-3,0.3c-0.1-0.5-0.4-1.2-0.6-1.6
		c0.8,0.1,1.8,0,2,0c0.3,0,0.4-0.1,0.4-0.3v-0.7c-1.3,0.1-2.4,0.2-3.5,0.3l-0.2-1.6c1,0,2.2-0.1,3.6-0.2V71h-3.6v-1.6h3.6v-0.7
		c-1,0.1-1.9,0.1-2.8,0.2c-0.1-0.4-0.3-0.9-0.4-1.3c2.2-0.1,4.8-0.4,6.3-0.7H233v-1.6h6.9v-0.7h-5.1V63h5.1v-0.6h-6.1v-1.6h3.2
		c-0.2-0.4-0.4-0.8-0.7-1.1l1.9-0.6c0.4,0.5,0.9,1.2,1.1,1.7h3.6c0.3-0.5,0.6-1.2,0.8-1.7l2.4,0.5c-0.3,0.5-0.6,0.9-0.9,1.3h3.1v1.6
		h-6.2V63h5.2v1.5h-5.2v0.7h7v1.6h-3.6c1,0.4,2.2,1,2.8,1.5l-1,1.1h1.8V71h-2.7L248,71.4z M241.7,69.3c-0.1-0.7-0.2-1.5-0.3-2.3h2.1
		c0,0.8,0.1,1.6,0.3,2.3h3c-0.7-0.5-1.7-1.1-2.6-1.4l1.1-1.2H240l1,1.3c-0.7,0.2-1.6,0.3-2.5,0.4v0.9L241.7,69.3L241.7,69.3z
		 M244.2,70.9c0.2,0.4,0.3,0.8,0.6,1.2c0.5-0.3,1-0.7,1.3-1.2H244.2z"/>
	<path class="st2" d="M204.3,93.3h-5.1c1.7,0.8,3.5,1.7,4.6,2.4l-1.4,1.6c-1.2-0.8-3.1-1.9-4.9-2.8l1-1.2h-5.3l1.5,1.2
		c-1.5,1-3.8,2.2-5.6,2.9c-0.3-0.4-0.8-1.2-1.2-1.6c1.6-0.6,3.7-1.6,4.9-2.5h-4.9v-2h1.6l-0.3-9.3c1.1-0.4,2.5-0.9,3.4-1.3l0.9,1.7
		c-0.8,0.3-1.6,0.5-2.4,0.7l0.1,1.6h2.1v1.7h-2l0.1,1.5h2v1.7h-1.9l0.1,1.5h9.4c0-0.5,0.1-0.9,0.1-1.5H199v-1.8h1.9
		c0-0.5,0-1,0.1-1.5h-1.8v-1.8h1.9c0-0.5,0-1,0-1.5H199v-1.8h4c0,3.2-0.1,7.2-0.2,9.9h1.6L204.3,93.3L204.3,93.3z M195.7,87.5
		c-0.1,1.2-0.4,2.4-0.9,3.1c-0.3-0.2-1-0.6-1.4-0.8c0.4-0.7,0.6-1.6,0.7-2.5L195.7,87.5z M196.5,86.8h-2.7v-6h1.8V82h2.8v1.8h-2.8
		v1.3h2l0,0h0.7v4.6c0,0.7-0.1,1-0.6,1.3c-0.5,0.2-1.2,0.2-2.1,0.2c-0.1-0.4-0.3-0.9-0.5-1.3c0.5,0,1,0,1.2,0s0.2,0,0.2-0.2
		L196.5,86.8L196.5,86.8L196.5,86.8z"/>
	<path class="st2" d="M210.9,91.5c-0.2-0.5-0.5-1.3-0.9-2v8h-1.9V90c-0.5,1.6-1.1,3.1-1.7,4.1c-0.2-0.6-0.7-1.6-1-2.2
		c1-1.4,1.9-3.9,2.4-5.9h-2v-2h2.3v-3.3h1.9V84h1.7v2H210v0.8c0.5,0.6,1.8,2.7,2.1,3.2L210.9,91.5z M215.2,93.7
		c-0.6,1.3-1.6,2.6-2.5,3.4c-0.4-0.3-1.2-0.9-1.6-1.1c0.9-0.7,1.8-1.8,2.3-2.8L215.2,93.7z M214.9,83h-3v-1.7h10.2V83h-3.2v0.8h2.9
		v4.4h-9.6v-4.4h2.7L214.9,83L214.9,83z M217.9,92.8v4.6H216v-4.6h-4.1v-1.7h10.3v1.7H217.9L217.9,92.8z M212.9,90.4v-1.6h8.1v1.6
		H212.9z M213.9,86.7h1v-1.4h-1V86.7z M217.4,83h-1v0.8h1V83z M216.4,86.7h1v-1.4h-1V86.7z M220.1,93.2c0.8,0.8,1.8,2,2.2,2.8
		l-1.7,1c-0.4-0.8-1.3-2.1-2.1-3L220.1,93.2z M218.9,85.3v1.4h1v-1.4H218.9z"/>
	<path class="st2" d="M226.8,83.1c-0.6,0.7-1.2,1.4-1.8,1.8c-0.3-0.4-1-1.1-1.4-1.5c1-0.7,2.1-1.8,2.6-3l1.9,0.6
		c-0.1,0.2-0.2,0.4-0.4,0.7h4V83h-2.3c0.4,0.4,0.9,0.8,1.2,1.1L229,85c-0.3-0.4-0.9-1-1.5-1.5l1-0.5
		C228.5,83.1,226.8,83.1,226.8,83.1z M239.7,89.9c-0.6,1.7-1.4,3.2-2.4,4.5c0.3,0.6,0.7,1,1.1,1c0.3,0,0.4-0.4,0.5-1.6
		c0.4,0.4,1,0.8,1.5,0.9c-0.3,2.1-0.8,2.6-2.2,2.6c-1,0-1.7-0.5-2.3-1.5c-0.7,0.6-1.5,1.2-2.4,1.7c-0.2-0.3-0.6-0.8-1-1.1
		c-3.1,0.3-6.2,0.5-8.5,0.6l-0.2-1.5c0.8,0,1.8-0.1,2.9-0.1v-0.8h-2.5v-1.1h2.5v-0.7h-2.1v-1.1h2.1V91h-2.2v-1.1h2.2v-0.8h-3v-1.5
		h1.5c-0.3-0.3-0.7-0.8-1-1c1.2-0.5,1.9-1.3,2.2-2.4l1.6,0.2c-0.1,0.3-0.2,0.5-0.3,0.8c0.5,0.4,1,0.9,1.4,1.3
		c0.9-0.5,1.5-1.2,1.7-2.2l1.6,0.2c-0.1,0.3-0.1,0.6-0.3,0.8c0.6,0.5,1.2,1.1,1.5,1.5l-1,0.7h1.3c-0.1-0.9-0.1-1.9-0.1-2.9h2
		c0,1,0,2,0.1,2.9h4.2V89H236c0.1,1.2,0.3,2.3,0.5,3.2c0.6-0.9,1.1-1.9,1.4-2.9L239.7,89.9z M228,87.7c-0.2-0.3-0.5-0.7-0.9-1.1
		c-0.4,0.4-0.8,0.8-1.3,1.1H228z M228.2,87.7h1.8c-0.2-0.3-0.5-0.6-0.8-0.8L228.2,87.7z M228.4,95.3l1.1-0.1v-6h-1.1V95.3z
		 M232.3,87.7c-0.2-0.3-0.5-0.6-0.8-0.9c-0.3,0.3-0.6,0.6-1,0.9H232.3z M233.4,95.5c0.6-0.4,1.2-0.9,1.7-1.4c-0.4-1.4-0.8-3-1-5
		h-2.9v0.7h2.2V91h-2.2v0.6h2.1v1.1h-2.1v0.6h2.4v1.1h-2.4V95l2.2-0.1V95.5z M234.5,83.1c-0.4,0.7-1,1.3-1.5,1.7
		c-0.3-0.3-1.1-1-1.6-1.3c1-0.8,1.8-1.9,2.3-3l2,0.5c-0.1,0.3-0.2,0.5-0.3,0.8h5V83h-3c0.4,0.3,0.8,0.7,1,1.1l-1.8,0.8
		c-0.2-0.4-0.7-0.9-1.2-1.3l1.2-0.5H234.5L234.5,83.1z M238,84.6c0.6,0.6,1.2,1.4,1.5,2l-1.6,0.9c-0.3-0.6-0.9-1.5-1.5-2.1L238,84.6
		z"/>
</g>
<g class="st3">
	<path class="st4" d="M201,165.2c-0.5-0.5-1.6-1.3-2.4-1.8l1.2-1.3c0.8,0.5,1.9,1.2,2.4,1.7L201,165.2z M198.9,171.4
		c0.6-1.2,1.4-3.3,2.1-5.1l1.5,1c-0.6,1.7-1.2,3.6-1.9,5.1L198.9,171.4z M201.3,161c-0.5-0.5-1.5-1.4-2.3-2l1.2-1.2
		c0.7,0.5,1.8,1.3,2.4,1.8L201.3,161z M212.3,164.3c0.2,0,0.2-0.1,0.3-1.1c0.2,0.2,0.8,0.4,1.1,0.5c-0.1,1.4-0.5,1.8-1.2,1.8h-0.7
		c-1,0-1.2-0.3-1.2-1.4c-0.5,0.7-1.1,1.3-1.9,1.8c-0.2-0.3-0.6-0.7-1-1c-1.2,0.6-1.6,0.8-1.7,1c-0.1-0.3-0.5-0.7-0.7-0.9
		c0.3-0.2,0.6-0.7,0.6-1.5v-0.6c-0.5,1-1.3,2-2.7,2.9c-0.2-0.3-0.7-0.8-1-1c1.2-0.7,1.9-1.4,2.3-2.2h-1.7c0.1-0.8,0.2-2,0.3-3.1
		h-0.4v-1.3h4.9v1.3h-1.1v0.5c0,0.3,0,0.7-0.1,1.1h1.4v1.5H207v1.2l0.8-0.4c0.1,0.3,0.3,0.7,0.4,1c0.8-0.6,1.3-1.2,1.6-1.9H208
		c0.1-0.8,0.3-2,0.3-3.1h-0.5v-1.3h5.2v1.3h-1.3v0.7c0,0.3,0,0.6-0.1,0.9h1.5v1.5h-1.9c-0.1,0.1-0.1,0.3-0.2,0.4h0.6v1
		c0,0.3,0,0.3,0.1,0.3L212.3,164.3L212.3,164.3z M203.5,165.9h8.9v6.6h-1.9v-0.6h-5.3v0.7h-1.8L203.5,165.9L203.5,165.9z M205,161.1
		c0-0.4,0.1-0.8,0.1-1.1v-0.5h-0.7c0,0.5-0.1,1.1-0.2,1.6H205L205,161.1z M205.2,167.4v0.9h5.3v-0.9H205.2z M210.5,170.4v-0.9h-5.3
		v0.9H210.5z M210.3,161.1c0-0.3,0-0.7,0-0.9v-0.7h-0.7c0,0.5-0.1,1.1-0.2,1.6L210.3,161.1L210.3,161.1z"/>
	<path class="st4" d="M226.4,162.3c-0.7,1.2-1.7,2.1-2.8,3c1.6,0.6,3.6,1,5.6,1.2c-0.4,0.4-0.9,1.3-1.2,1.8
		c-0.6-0.1-1.1-0.2-1.7-0.3v4.5h-2V172H219v0.5h-1.9v-4.4c-0.7,0.2-1.4,0.3-2.1,0.4c-0.2-0.5-0.6-1.3-0.9-1.7c2-0.3,4-0.8,5.7-1.5
		c-0.5-0.4-1-0.8-1.4-1.2c-0.6,0.4-1.2,0.7-2,1.1c-0.3-0.4-0.8-1.1-1.3-1.4c2.2-0.8,3.7-2,4.5-3.2h-3v1.8h-1.9v-3.5h6
		c-0.2-0.4-0.4-0.7-0.5-1l1.9-0.5c0.2,0.5,0.6,1,0.8,1.5h5.6v3.5h-2v-1.8H220l1.8,0.4c-0.2,0.2-0.3,0.4-0.5,0.7h3.6l0.3-0.1
		L226.4,162.3z M224.4,170.5v-1.4H219v1.4H224.4z M224.4,167.6c-1-0.3-1.9-0.7-2.7-1.1c-0.8,0.4-1.6,0.8-2.5,1.1H224.4z
		 M219.8,163.1c0.5,0.5,1.2,0.9,1.9,1.3c0.7-0.4,1.3-0.9,1.8-1.4L219.8,163.1L219.8,163.1z"/>
</g>
<g>
	<g class="st3">
		<path class="st4" d="M215.1,256.9c0.5,0,0.6-0.2,0.7-1.7c0.4,0.3,1.2,0.5,1.7,0.6c-0.2,2.1-0.7,2.6-2.2,2.6h-2
			c-1.9,0-2.3-0.5-2.3-2v-2.7h-2.1c-0.2,2.7-1,4.2-5.2,5c-0.1-0.4-0.6-1.1-1-1.4c3.6-0.5,4.1-1.5,4.2-3.5h-4v-1.6h14.3v1.6H213v2.7
			c0,0.5,0.1,0.5,0.7,0.5L215.1,256.9L215.1,256.9z M205.2,250.3h-1.9v-3.5h5.8c-0.2-0.4-0.4-0.8-0.5-1.1l2-0.5
			c0.3,0.5,0.7,1.1,0.9,1.6h5.5v3.5h-2v-1.9h-9.7L205.2,250.3L205.2,250.3L205.2,250.3z M205.9,251v-1.6h8.3v1.6H205.9z"/>
		<path class="st4" d="M232.2,250.3c-0.7,1.9-1.6,3.5-2.8,4.9c0.5,1,1,1.6,1.5,1.6c0.4,0,0.6-0.7,0.7-2.5c0.4,0.4,1.1,0.8,1.6,1
			c-0.3,2.6-0.9,3.3-2.4,3.3c-1.1,0-2-0.7-2.7-1.9c-0.8,0.8-1.7,1.4-2.7,1.9c-0.3-0.4-1-1.1-1.4-1.4c1.2-0.6,2.3-1.4,3.3-2.3
			c-0.5-1.6-0.9-3.6-1.1-5.7h-4.6v1.5h4c0,0,0,0.4,0,0.6c0,3-0.1,4.3-0.5,4.7c-0.3,0.4-0.6,0.5-1.1,0.6c-0.4,0.1-1.1,0.1-1.8,0
			c0-0.5-0.2-1.2-0.5-1.6c0.6,0,1.1,0.1,1.4,0.1c0.2,0,0.4,0,0.5-0.2c0.2-0.2,0.2-0.9,0.3-2.7h-2.1c-0.1,2.1-0.4,4.9-1.7,6.6
			c-0.3-0.3-1.2-1-1.6-1.2c1.2-1.7,1.3-4.2,1.3-6v-4.2h6.5c0-0.7-0.1-1.4-0.1-2.1h2c0,0.7,0,1.4,0,2.1h2.4c-0.6-0.4-1.4-0.9-2-1.2
			l1.2-1c0.9,0.4,2,1.1,2.6,1.5l-0.8,0.7h1.7v1.7h-4.9c0.1,1.4,0.4,2.8,0.6,3.9c0.6-1,1.2-2,1.5-3.2L232.2,250.3z"/>
	</g>
	<g class="st3">
		<path class="st4" d="M190.5,266.7h-2.8c0.4,0.3,0.8,0.6,1.1,0.9l-1.2,0.9h1.3v3.6h-5.1v0.8h5.9c0,0,0,0.4,0,0.6
			c-0.2,1.9-0.4,2.8-0.8,3.2c-0.3,0.3-0.7,0.5-1.2,0.5c-0.4,0-1.2,0.1-2,0c0-0.5-0.2-1.1-0.5-1.5c0.7,0.1,1.3,0.1,1.6,0.1
			c0.2,0,0.4,0,0.5-0.1c0.2-0.1,0.3-0.5,0.4-1.3h-3.8v3.5H182v-2.8c-1.3,1.2-3.1,2.1-4.9,2.7c-0.3-0.4-0.8-1-1.2-1.3
			c1.7-0.4,3.4-1.2,4.6-2.1h-3.4c0.2-1,0.5-2.4,0.6-3.6h4.3V270h-4.9v-1.4h3.3c-0.4-0.4-1-0.9-1.5-1.3l0.6-0.5h-0.9
			c-0.5,0.7-1.1,1.4-1.6,1.8c-0.3-0.3-0.9-0.9-1.3-1.1c0.9-0.7,1.8-1.9,2.3-3l1.7,0.4c-0.1,0.2-0.2,0.4-0.3,0.6h3.5v1.3h-2.3
			c0.4,0.3,0.8,0.7,1.1,0.9l-1,0.8h6.8c-0.4-0.4-1-0.9-1.6-1.3l0.7-0.5h-1.3c-0.4,0.5-0.8,1-1.2,1.4c-0.3-0.3-1-0.8-1.4-1
			c0.9-0.7,1.6-1.7,2-2.7l1.7,0.4c-0.1,0.2-0.2,0.4-0.3,0.6h4.4L190.5,266.7L190.5,266.7z M182,272.1h-2.6c0,0.3-0.1,0.6-0.1,0.8
			h2.7L182,272.1L182,272.1z M187.1,269.9h-3.2v0.8h3.2V269.9z"/>
		<path class="st4" d="M206.1,270.1v1.8h-14.7v-1.8H206.1z"/>
		<path class="st4" d="M221.7,266.6h-2.9c0.4,0.3,0.8,0.7,1,1l-1.4,0.9c-0.3-0.4-0.9-1-1.3-1.4l0.7-0.4h-1.4
			c-0.4,0.5-0.8,0.9-1.2,1.3h0.1v0.7h4.7v1.7h1.6v1.2H220v1.7h-4.7v0.5h5v1.2h-5v0.5h6.1v1.3h-6.1v1.2h-1.9v-1.2h-5.9v-1.3h5.9V275
			h-4.9v-1.2h4.9v-0.5h-4.5v-1.2h4.5v-0.6h-6.2v-1.2h6.2v-0.5H209v-1.2h2.5c-0.3-0.4-0.9-1-1.3-1.4l0.7-0.5h-1.2
			c-0.5,0.6-1,1.1-1.6,1.5c-0.3-0.3-0.9-0.9-1.3-1.2c0.9-0.6,1.9-1.5,2.4-2.5l1.7,0.5c-0.1,0.1-0.2,0.3-0.3,0.4h3.5v1.2
			c0.7-0.6,1.3-1.4,1.6-2.1l1.7,0.4c-0.1,0.2-0.2,0.3-0.2,0.5h4.4L221.7,266.6L221.7,266.6z M214.9,267.8c-0.4-0.3-0.9-0.7-1.3-0.9
			c0.2-0.1,0.3-0.2,0.5-0.4h-2.3c0.4,0.4,0.8,0.8,1,1l-1.2,0.9h1.8v-0.7L214.9,267.8L214.9,267.8z M215.2,269.7v0.5h2.7v-0.5H215.2z
			 M218,271.4h-2.7v0.6h2.7V271.4z"/>
		<path class="st4" d="M233.9,271c-0.6,1.3-1.5,2.4-2.5,3.3c1.5,0.9,3.5,1.5,5.8,1.8c-0.4,0.4-0.9,1.1-1.2,1.5
			c-2.5-0.4-4.5-1.2-6.1-2.2c-1.7,1.1-3.8,1.8-6.1,2.3c-0.2-0.4-0.8-1.1-1.2-1.5c2.3-0.4,4.3-1,5.9-1.9c-0.9-0.9-1.7-2-2.3-3.3
			l1.7-0.5c0.5,1,1.2,2,2.1,2.7c0.9-0.8,1.6-1.7,2.1-2.8L233.9,271z M228.5,268.7c-1.1,1.3-2.8,2.5-4.2,3.3c-0.4-0.3-1.1-1-1.5-1.2
			c1.4-0.6,3-1.7,3.9-2.7L228.5,268.7z M236.9,268h-14v-1.6h6.2c-0.2-0.5-0.5-1-0.8-1.4l1.8-0.6c0.4,0.6,1,1.4,1.2,2l0,0h5.7
			L236.9,268L236.9,268z M232.9,268c1.4,0.8,3.2,2.1,4.1,3l-1.6,1.1c-0.8-0.9-2.6-2.2-4-3.1L232.9,268z"/>
		<path class="st4" d="M252.1,271.8c0,0,0,0.5-0.1,0.7c-0.3,3.1-0.7,4.4-1.2,4.8c-0.4,0.4-0.8,0.5-1.3,0.5c-0.4,0-1.2,0-2,0
			c0-0.4-0.2-1-0.5-1.4c0.7,0.1,1.3,0.1,1.6,0.1s0.4,0,0.6-0.2c0.3-0.3,0.6-1.1,0.9-3h-1.4c-0.8,1.9-2.2,3.6-3.7,4.7
			c-0.3-0.3-1.1-0.8-1.5-1c1.3-0.9,2.5-2.1,3.2-3.6h-1.4c-1.2,1.8-3,3.3-4.8,4.3c-0.3-0.3-1-0.9-1.4-1.2c1.6-0.7,3-1.8,4-3.1h-1.4
			c-0.8,0.7-1.6,1.3-2.5,1.7c-0.3-0.3-1-0.9-1.4-1.2c1.5-0.7,2.9-1.7,3.8-2.9h-1.4v-5.8h10.5v5.8H244c-0.2,0.3-0.4,0.6-0.7,0.9
			L252.1,271.8L252.1,271.8z M242.2,267.4h6.7v-0.9h-6.7V267.4z M242.2,269.5h6.7v-0.9h-6.7V269.5z"/>
	</g>
</g>
<g>
	<g class="st3">
		<path class="st4" d="M215.1,355.7c0.5,0,0.6-0.2,0.7-1.7c0.4,0.3,1.2,0.5,1.7,0.6c-0.2,2.1-0.7,2.6-2.2,2.6h-2
			c-1.9,0-2.3-0.5-2.3-2v-2.7h-2.1c-0.2,2.7-1,4.2-5.2,5c-0.1-0.4-0.6-1.1-1-1.4c3.6-0.5,4.1-1.5,4.2-3.5h-4V351h14.3v1.6H213v2.7
			c0,0.5,0.1,0.5,0.7,0.5L215.1,355.7L215.1,355.7z M205.2,349.2h-1.9v-3.5h5.8c-0.2-0.4-0.4-0.8-0.5-1.1l2-0.5
			c0.3,0.5,0.7,1.1,0.9,1.6h5.5v3.5h-2v-1.9h-9.7L205.2,349.2L205.2,349.2z M205.9,349.9v-1.6h8.3v1.6H205.9L205.9,349.9z"/>
		<path class="st4" d="M232.2,349.1c-0.7,1.9-1.6,3.5-2.8,4.9c0.5,1,1,1.6,1.5,1.6c0.4,0,0.6-0.7,0.7-2.5c0.4,0.4,1.1,0.8,1.6,1
			c-0.3,2.6-0.9,3.3-2.4,3.3c-1.1,0-2-0.7-2.7-1.9c-0.8,0.8-1.7,1.4-2.7,1.9c-0.3-0.4-1-1.1-1.4-1.4c1.2-0.6,2.3-1.4,3.3-2.3
			c-0.5-1.6-0.9-3.6-1.1-5.7h-4.6v1.5h4c0,0,0,0.4,0,0.6c0,3-0.1,4.3-0.5,4.7c-0.3,0.4-0.6,0.5-1.1,0.6c-0.4,0.1-1.1,0.1-1.8,0
			c0-0.5-0.2-1.1-0.5-1.6c0.6,0,1.1,0.1,1.4,0.1c0.2,0,0.4,0,0.5-0.2c0.2-0.2,0.2-0.9,0.3-2.7h-2.1c-0.1,2.1-0.4,4.9-1.7,6.6
			c-0.3-0.3-1.2-1-1.6-1.2c1.2-1.7,1.3-4.2,1.3-6v-4.2h6.5c0-0.7-0.1-1.4-0.1-2.1h2c0,0.7,0,1.4,0,2.1h2.4c-0.6-0.4-1.4-0.9-2-1.2
			l1.2-1c0.9,0.4,2,1.1,2.6,1.5l-0.8,0.7h1.7v1.7h-4.9c0.1,1.4,0.4,2.8,0.6,3.9c0.6-1,1.2-2,1.5-3.2L232.2,349.1z"/>
	</g>
	<g class="st3">
		<path class="st4" d="M190.5,365.5h-2.8c0.4,0.3,0.8,0.6,1.1,0.9l-1.2,0.9h1.3v3.6h-5.1v0.8h5.9c0,0,0,0.4,0,0.6
			c-0.2,1.9-0.4,2.8-0.8,3.2c-0.3,0.3-0.7,0.5-1.2,0.5c-0.4,0-1.2,0.1-2,0c0-0.5-0.2-1.1-0.5-1.5c0.7,0.1,1.3,0.1,1.6,0.1
			c0.2,0,0.4,0,0.5-0.1c0.2-0.1,0.3-0.5,0.4-1.3h-3.8v3.5H182v-2.8c-1.3,1.2-3.1,2.1-4.9,2.7c-0.3-0.4-0.8-1-1.2-1.3
			c1.7-0.4,3.4-1.2,4.6-2.1h-3.4c0.2-1,0.5-2.4,0.6-3.6h4.3v-0.8h-4.9v-1.4h3.3c-0.4-0.4-1-0.9-1.5-1.3l0.6-0.5h-0.9
			c-0.5,0.7-1.1,1.4-1.6,1.8c-0.3-0.3-0.9-0.9-1.3-1.1c0.9-0.7,1.8-1.9,2.3-3l1.7,0.4c-0.1,0.2-0.2,0.4-0.3,0.6h3.5v1.3h-2.3
			c0.4,0.3,0.8,0.7,1.1,0.9l-1,0.8h6.8c-0.4-0.4-1-0.9-1.6-1.3l0.7-0.5h-1.3c-0.4,0.5-0.8,1-1.2,1.4c-0.3-0.3-1-0.8-1.4-1
			c0.9-0.7,1.6-1.7,2-2.7l1.7,0.4c-0.1,0.2-0.2,0.4-0.3,0.6h4.4L190.5,365.5L190.5,365.5z M182,370.9h-2.6c0,0.3-0.1,0.6-0.1,0.8
			h2.7L182,370.9L182,370.9z M187.1,368.7h-3.2v0.8h3.2V368.7z"/>
		<path class="st4" d="M205.8,373.5v1.9h-14.2v-1.9H205.8z M204.5,365.3v1.9h-11.6v-1.9H204.5z"/>
		<path class="st4" d="M221.7,365.4h-2.9c0.4,0.3,0.8,0.7,1,1l-1.4,0.9c-0.3-0.4-0.9-1-1.3-1.4l0.7-0.4h-1.4
			c-0.4,0.5-0.8,0.9-1.2,1.3h0.1v0.7h4.7v1.7h1.6v1.2H220v1.7h-4.7v0.5h5v1.2h-5v0.5h6.1v1.3h-6.1v1.2h-1.9v-1.2h-5.9v-1.3h5.9v-0.5
			h-4.9v-1.2h4.9V372h-4.5v-1.2h4.5v-0.6h-6.2V369h6.2v-0.5H209v-1.2h2.5c-0.3-0.4-0.9-1-1.3-1.4l0.7-0.5h-1.2
			c-0.5,0.6-1,1.1-1.6,1.5c-0.3-0.3-0.9-0.9-1.3-1.2c0.9-0.6,1.9-1.5,2.4-2.5l1.7,0.5c-0.1,0.1-0.2,0.3-0.3,0.4h3.5v1.2
			c0.7-0.6,1.3-1.4,1.6-2.1l1.7,0.4c-0.1,0.2-0.2,0.3-0.2,0.5h4.4L221.7,365.4L221.7,365.4z M214.9,366.7c-0.4-0.3-0.9-0.7-1.3-0.9
			c0.2-0.1,0.3-0.2,0.5-0.4h-2.3c0.4,0.4,0.8,0.8,1,1l-1.2,0.9h1.8v-0.7L214.9,366.7L214.9,366.7L214.9,366.7z M215.2,368.5v0.5h2.7
			v-0.5H215.2z M218,370.2h-2.7v0.6h2.7V370.2z"/>
		<path class="st4" d="M233.9,369.9c-0.6,1.3-1.5,2.4-2.5,3.3c1.5,0.9,3.5,1.5,5.8,1.8c-0.4,0.4-0.9,1.1-1.2,1.5
			c-2.5-0.4-4.5-1.2-6.1-2.2c-1.7,1.1-3.8,1.8-6.1,2.3c-0.2-0.4-0.8-1.1-1.2-1.5c2.3-0.4,4.3-1,5.9-1.9c-0.9-0.9-1.7-2-2.3-3.3
			l1.7-0.5c0.5,1,1.2,2,2.1,2.7c0.9-0.8,1.6-1.7,2.1-2.8L233.9,369.9z M228.5,367.6c-1.1,1.3-2.8,2.5-4.2,3.3
			c-0.4-0.3-1.1-1-1.5-1.2c1.4-0.6,3-1.7,3.9-2.7L228.5,367.6z M236.9,366.8h-14v-1.6h6.2c-0.2-0.5-0.5-1-0.8-1.4l1.8-0.6
			c0.4,0.6,1,1.4,1.2,2l0,0h5.7L236.9,366.8L236.9,366.8z M232.9,366.9c1.4,0.8,3.2,2.1,4.1,3l-1.6,1.1c-0.8-0.9-2.6-2.2-4-3.1
			L232.9,366.9z"/>
		<path class="st4" d="M252.1,370.6c0,0,0,0.5-0.1,0.7c-0.3,3.1-0.7,4.4-1.2,4.8c-0.4,0.4-0.8,0.5-1.3,0.5c-0.4,0-1.2,0-2,0
			c0-0.4-0.2-1-0.5-1.4c0.7,0.1,1.3,0.1,1.6,0.1s0.4,0,0.6-0.2c0.3-0.3,0.6-1.1,0.9-3h-1.4c-0.8,1.9-2.2,3.6-3.7,4.7
			c-0.3-0.3-1.1-0.8-1.5-1c1.3-0.9,2.5-2.1,3.2-3.6h-1.4c-1.2,1.8-3,3.3-4.8,4.3c-0.3-0.3-1-0.9-1.4-1.2c1.6-0.7,3-1.8,4-3.1h-1.4
			c-0.8,0.7-1.6,1.3-2.5,1.7c-0.3-0.3-1-0.9-1.4-1.2c1.5-0.7,2.9-1.7,3.8-2.9h-1.4V364h10.5v5.8H244c-0.2,0.3-0.4,0.6-0.7,0.9
			L252.1,370.6L252.1,370.6z M242.2,366.2h6.7v-0.9h-6.7V366.2z M242.2,368.4h6.7v-0.9h-6.7V368.4z"/>
	</g>
</g>
<g>
	<g class="st3">
		<path class="st4" d="M213.5,451.8c0.5,0,0.6-0.3,0.7-1.9c0.4,0.3,1.2,0.6,1.7,0.7c-0.2,2.3-0.7,2.9-2.2,2.9h-2
			c-1.9,0-2.3-0.6-2.3-2.3v-3.1h-2.1c-0.2,3.1-1,4.8-5.2,5.6c-0.1-0.5-0.6-1.2-1-1.6c3.6-0.6,4.1-1.7,4.2-4h-4v-1.8h14.3v1.8h-4.3
			v3.1c0,0.5,0.1,0.6,0.7,0.6L213.5,451.8L213.5,451.8L213.5,451.8z M203.6,444.4h-1.9v-4h5.8c-0.2-0.4-0.4-0.9-0.5-1.2l2-0.6
			c0.3,0.6,0.7,1.2,0.9,1.8h5.5v4h-2v-2.1h-9.7L203.6,444.4L203.6,444.4z M204.3,445.2v-1.8h8.3v1.8H204.3z"/>
		<path class="st4" d="M231.4,447.2v1.5h-14.5v-1.5h2.8c-0.1-0.4-0.3-0.8-0.5-1.1l1.2-0.3h-2.9v-1.4h5.7v-0.6H219v-1.3h4.2v-0.6H218
			v-1.4h2.7c-0.2-0.4-0.4-0.9-0.7-1.3l1.7-0.5c0.4,0.4,0.7,1,0.9,1.4l-1,0.3h4.2c0.3-0.5,0.6-1.2,0.8-1.7l2,0.3
			c-0.3,0.5-0.5,1-0.8,1.4h2.7v1.4H225v0.6h4.3v1.3H225v0.6h5.8v1.4h-2.9l1.3,0.2c-0.2,0.4-0.4,0.8-0.6,1.2L231.4,447.2L231.4,447.2
			L231.4,447.2z M219,449.2h10.2v4.5h-2v-0.4h-6.4v0.5H219V449.2L219,449.2z M220.9,445.8c0.3,0.4,0.5,0.8,0.6,1.2l-0.7,0.2h5.9
			c0.2-0.4,0.4-0.9,0.5-1.4L220.9,445.8L220.9,445.8L220.9,445.8z M220.9,450.7v1.1h6.4v-1.1H220.9z"/>
	</g>
	<g class="st3">
		<path class="st4" d="M191.9,460.8c-0.1,0.1-0.2,0.2-0.2,0.3c1.5,1.3,4.1,2.4,6.6,2.9c-0.4,0.3-0.9,1-1.2,1.5
			c-0.3-0.1-0.7-0.2-1-0.3v4.1H185v-4c-0.3,0.1-0.7,0.2-1,0.3c-0.2-0.4-0.7-1.1-1-1.5c2.9-0.7,5.8-2,7.3-3.9L191.9,460.8z
			 M195.5,465c-0.8-0.3-1.5-0.6-2.2-1v0.4h-5.6v-0.3c-0.6,0.3-1.3,0.6-1.9,0.9H195.5z M185.8,469.9h9.4v5.4h-2v-0.4h-5.6v0.4h-1.9
			v-5.4H185.8z M187.7,468.2c-0.1-0.5-0.3-1.1-0.5-1.7l1.2-0.4h-1.8v2L187.7,468.2L187.7,468.2z M187.7,471.1v0.6h5.6v-0.6H187.7z
			 M193.3,473.6V473h-5.6v0.6H193.3z M189.7,466.2h-1.2c0.3,0.5,0.5,1.2,0.6,1.7l-1,0.3h1.6L189.7,466.2L189.7,466.2z M192,463.2
			c-0.5-0.3-0.9-0.7-1.3-1c-0.4,0.4-0.9,0.7-1.4,1H192z M191.2,466.2v2h1.5l-1-0.3c0.2-0.5,0.5-1.2,0.6-1.7H191.2L191.2,466.2z
			 M194.4,466.2h-1.7l1.2,0.3c-0.3,0.6-0.6,1.3-0.9,1.7h1.3L194.4,466.2L194.4,466.2z"/>
		<path class="st4" d="M209.4,472.6c1.5,0.4,3.1,1,4.2,1.5l-1.7,1.3c-1.2-0.6-3.4-1.4-5.1-1.9l1.3-0.9h-4.3l1.2,0.9
			c-1.3,0.8-3.3,1.5-5,1.9c-0.4-0.4-1-1-1.4-1.4c1.4-0.3,3-0.9,4.1-1.4h-2.5v-7.1H212v7.1H209.4L209.4,472.6L209.4,472.6z
			 M211.4,464.9H201v-4h10.4V464.9z M202.1,467.5h7.8v-0.7h-7.8V467.5z M202.1,469.3h7.8v-0.7h-7.8V469.3z M202.1,471.3h7.8v-0.7
			h-7.8V471.3z M209.4,462.4h-6.5v1h6.5V462.4z"/>
		<path class="st4" d="M224.4,463.2c0.9,0.8,2.6,1.2,4.7,1.4c-0.4,0.4-0.8,1.1-1.1,1.5c-1.8-0.2-3.2-0.7-4.2-1.6
			c-0.6,0.7-1.9,1.3-4.6,1.6c-0.1-0.3-0.4-0.7-0.6-1h-4.2v-1.5h4.8v1c3.1-0.3,3.5-1,3.5-1.6v-0.2h-1c-0.3,0.5-0.7,1-1.1,1.4
			c-0.3-0.3-1-0.8-1.4-1c0.8-0.7,1.5-1.8,1.9-2.8l1.7,0.4c-0.1,0.2-0.2,0.5-0.3,0.7h4.5l0.3-0.1l1.3,0.4c-0.4,0.9-1,1.9-1.5,2.5
			l-1.5-0.5c0.2-0.3,0.4-0.6,0.6-0.9h-1.8L224.4,463.2L224.4,463.2L224.4,463.2z M224.8,472.6c1.5,0.5,3,1.2,4,1.6l-1.7,1
			c-0.9-0.5-2.6-1.3-4.2-1.9l1-0.8h-4.5l1.4,0.6c-1.3,0.8-3.4,1.6-5,2.1c-0.3-0.4-1-1.1-1.4-1.4c1.5-0.3,3.2-0.8,4.4-1.3h-2.3V466
			h10.7v6.5L224.8,472.6L224.8,472.6z M218.8,462.6h-4.1v-1.4h4.1V462.6z M218.3,468h6.9v-0.7h-6.9V468z M218.3,469.7h6.9V469h-6.9
			V469.7z M218.3,471.5h6.9v-0.7h-6.9V471.5z"/>
		<path class="st4" d="M234.7,468.1c0.3,0.4,1.5,2.4,1.8,2.9l-1.3,1.4c-0.2-0.7-0.7-1.8-1.1-2.7v5.5h-1.8v-5.7
			c-0.4,1.6-1,3.3-1.8,4.2c-0.2-0.7-0.6-1.6-0.9-2.3c0.7-0.8,1.3-2.3,1.6-3.5l1.1,0.4v-1h-2.4v-1.8h2.4v-5.3h1.8v5.3h2.4v1.8h-2.4
			v1.1L234.7,468.1z M230.7,465.4c0-1-0.4-2.5-0.7-3.7l1.3-0.3c0.4,1.2,0.8,2.7,0.8,3.7L230.7,465.4z M236.8,461.6
			c-0.4,1.3-0.9,2.8-1.3,3.7l-1.2-0.3c0.4-1,0.7-2.6,0.9-3.7L236.8,461.6z M243,471v4.3h-1.8v-4l-4.5,0.8l-0.3-1.8l4.8-0.8v-9.1h1.8
			v8.8l1.6-0.3l0.3,1.8L243,471z M237.5,465.2c0.9,0.5,2.1,1.3,2.7,1.8l-1,1.5c-0.5-0.6-1.7-1.4-2.6-2L237.5,465.2z M239.8,464.6
			c-0.5-0.6-1.6-1.5-2.5-2.1l0.9-1.3c0.9,0.5,2,1.3,2.5,1.9L239.8,464.6z"/>
	</g>
</g>
<g>
	<path class="st5" d="M103.9,505l-8.4,3.3l1.1,2.8l8.4-3.3L103.9,505L103.9,505z M89.9,510.4l-8.4,3.3l1.1,2.8l8.4-3.3L89.9,510.4
		L89.9,510.4z M75.9,515.8l-5.5,2.1l0,0l0,0l0,0l0,0l0,0l0,0l0,0l0,0l0,0l0,0l0,0l0,0l0,0l0,0l0,0l-2.8-1.1l-1.1,2.8l2.9,1.1
		c0.3,0.1,0.7,0.2,1.1,0.2s0.7-0.1,1.1-0.2l5.5-2.1L75.9,515.8L75.9,515.8z M53.5,511.4l-1.1,2.8l8.4,3.3l1.1-2.8l-3-1.2l0,0l0,0
		l0,0l0,0l0,0l0,0l0,0l0,0C56.5,512.5,53.5,511.4,53.5,511.4L53.5,511.4z M39.6,506l-1.1,2.8l8.4,3.3l1.1-2.8c0,0-1.7-0.6-3.5-1.4
		l0,0l0,0L39.6,506L39.6,506z M25.6,500.5l-0.8,2.1H23v9h3v-7.8l6.9,2.7l1.1-2.8c0,0-4.9-1.9-7.2-2.8l0,0l0,0l0,0l0,0l0,0l0,0
		L25.6,500.5L25.6,500.5z M25.9,517.7h-3v9h3V517.7L25.9,517.7z M25.9,532.7h-3c0,0,0,5.9,0,6.4l0,0l0,0l0,0l0,0l0,0l2.7,1.4
		c0.2-0.4,0.3-0.9,0.3-1.4v-0.4l0.6-1.1l-0.6-0.3V532.7L25.9,532.7z M31.9,540.3l-1.4,2.7l0,0l0,0l0,0l0,0l0,0l0,0l0,0l0,0l0,0l0,0
		l0,0l0,0l0,0l0,0l0,0l0,0l0,0l0,0l0,0l0,0l0,0l0,0l0,0l0,0l0,0l0,0l0,0l0,0l0,0l0,0l0,0l0,0l0,0l0,0l0,0l0,0l0,0l0,0l0,0l0,0l0,0
		l0,0l0,0l0,0l0,0l0,0l0,0l0,0l0,0l0,0l0,0l0,0l0,0l0,0l0,0l0,0l0,0c0,0,0,0,0.1,0l0,0l0,0l0,0c0,0,0,0,0.1,0l0,0l0,0l0,0l0,0l0,0
		l0,0l0,0l0,0l0,0l0,0l0,0l0,0l0,0l0,0l0,0l0,0l0,0l0,0l0,0l0,0l0,0l0,0l0,0l0,0l0,0l0,0l0,0l0,0l0,0l0,0l0,0l0,0l0,0l0,0l0,0l0,0
		l0,0l0,0l0,0l0,0l0,0l0,0l0,0l0,0l0,0l0,0l0,0l0,0l0,0l0,0l0,0l0,0l0,0l0,0l0,0l0,0l0,0l0,0l0,0l0,0l0,0l0,0h0.1l0,0l0,0l0,0l0,0
		l0,0l0,0l0,0l0,0l0,0l0,0l0,0l0,0l0,0l0,0l0,0l0,0l0,0l0,0l0,0l0,0l0,0l0,0l0,0l0,0l0,0l0.3,0.1l0,0h0.1l0,0l0,0l0,0l0,0l0,0l0,0
		l0,0l0,0l0,0l0.1,0.1l0,0h0.1l0,0l0,0l0,0l0,0l0,0l0.3,0.1l0,0l0,0l0,0l0,0l0,0l0,0l0,0l0,0l0,0l0,0l0,0l0,0l0,0l0,0l0,0l0,0l0,0
		h0.1l0,0l0,0l0,0l0,0l0,0l0.4,0.2l0,0l0,0l0,0l5.2,2.7l1.4-2.7L31.9,540.3L31.9,540.3z M45.2,547.1l-1.4,2.7l4.1,2.1l0,0l0,0l0,0
		l0,0l0,0l0,0l0,0l0,0l0,0l0,0l0,0l0,0c1.9,1,3.7,1.9,3.7,1.9l1.4-2.7L45.2,547.1L45.2,547.1z M58.6,553.9l-1.4,2.7
		c0,0,6.1,3.1,7.7,3.9l0,0l0,0l0,0c0,0,0,0,0.1,0l0,0l0,0l0,0l0,0l0,0l0,0l0,0l0,0l0,0l0,0l0,0l0,0l0,0l0,0l0,0l0,0l0,0l0,0l0,0l0,0
		l0,0l0,0l0,0l0,0l0,0l0,0l0,0l0,0l0,0l0,0l0,0l0,0l0,0l0,0l0.1,0.1l1.4-2.7L58.6,553.9L58.6,553.9z M77.3,556.3l-8,4.1l1.4,2.7
		c0,0,1.1-0.6,2.5-1.3l0,0h0.1l0,0l0,0l0,0l0,0l0,0l0,0l0,0l0,0l0,0l0,0l0,0l0,0l5.2-2.6L77.3,556.3L77.3,556.3z M90.7,549.5l-8,4.1
		l1.4,2.7l8-4.1L90.7,549.5L90.7,549.5z M104.1,542.8l-8,4.1l1.4,2.7c0,0,2.5-1.3,4.8-2.4l0,0h0.1l0,0l0,0l0,0l0,0l0,0l0,0l0,0l0,0
		l0,0l0,0l0,0l0,0l0,0l0,0l0,0l0,0l3-1.5L104.1,542.8L104.1,542.8z M116.5,536.5l0.8,1.6l0,0L116.5,536.5l-7.1,3.6l1.4,2.7l6.6-3.3
		l0,0l0,0l0,0l0,0l0,0l0,0l0,0l0,0l0,0l0,0l0,0l0,0l0,0l0,0l0,0l0,0l0,0l0,0l0,0l0,0l0,0l0,0l0,0l0,0l0,0l0,0l0,0l0,0l0,0l0,0l0,0
		l0,0l0,0l0,0l0,0l0,0l0,0l0,0l0,0l0,0l0,0l0,0l0,0l0,0l0,0l0,0h0.1l0,0c0.1,0,0.1,0,0.1,0l0,0l0,0l0,0l0,0l0,0l0,0l0,0l0,0l0,0l0,0
		l0,0l0,0l0,0v-1.1H117L116.5,536.5L116.5,536.5z M117.9,523.1h-3v9h3V523.1L117.9,523.1z M117.9,508.1h-3v9h3V508.1L117.9,508.1z
		 M117.9,499.5l-3,1.2l0,0c-2.4,0.9-5.4,2.1-5.4,2.1l1.1,2.8l7.3-2.8V499.5L117.9,499.5z"/>
</g>
<g>
	<path class="st5" d="M69.4,537.8c-0.3-0.3-0.4-0.7-0.4-1.1c0-0.4,0.1-0.8,0.4-1.1s0.6-0.5,1-0.5s0.7,0.1,1,0.5
		c0.3,0.3,0.4,0.7,0.4,1.1s-0.1,0.8-0.4,1.1s-0.6,0.5-1,0.5S69.7,538.1,69.4,537.8z M69.4,543.8c-0.3-0.3-0.4-0.7-0.4-1.1
		c0-0.4,0.1-0.8,0.4-1.1s0.6-0.5,1-0.5s0.7,0.1,1,0.5c0.3,0.3,0.4,0.7,0.4,1.1c0,0.4-0.1,0.8-0.4,1.1s-0.6,0.4-1,0.4
		C70,544.3,69.7,544.1,69.4,543.8z M69.4,531.8c-0.3-0.3-0.4-0.7-0.4-1.1c0-0.4,0.1-0.8,0.4-1.1s0.6-0.4,1-0.4s0.7,0.1,1,0.4
		c0.3,0.3,0.4,0.7,0.4,1.1c0,0.4-0.1,0.8-0.4,1.1s-0.6,0.5-1,0.5S69.7,532.1,69.4,531.8z"/>
</g>
<polygon class="st5" points="70.4,508.3 117.9,490.5 117.9,399.5 70.4,417.2 22.9,399.5 22.9,490.5 22.9,490.5 "/>
<polygon class="st5" points="70.4,411.2 117.9,393.4 117.9,302.4 70.4,320.1 22.9,302.4 22.9,393.4 22.9,393.4 "/>
<polygon class="st5" points="70.4,314.1 117.9,296.3 117.9,205.2 70.4,223 22.9,205.2 22.9,296.3 22.9,296.3 "/>
<polygon class="st5" points="70.4,217 117.9,199.2 117.9,108.1 70.4,125.9 22.9,108.1 22.9,199.2 22.9,199.2 "/>
<polygon class="st5" points="138.7,13 152.4,23.4 138.7,33.9 "/>
<polygon class="st1" points="272.2,13 285.9,23.4 272.2,33.9 "/>
<g class="st3">
	<path class="st6" d="M321.8,29.8c-2.2,0-4-0.4-5.4-1.9l2.2-2.2c0.7,0.7,2,1,3.2,1c1.4,0,2-0.5,2-1.3c0-0.3-0.1-0.6-0.3-0.8
		c-0.2-0.2-0.5-0.3-0.9-0.4l-1.7-0.2c-1.3-0.2-2.2-0.6-2.9-1.3c-0.7-0.7-1-1.6-1-2.9c0-2.6,2-4.5,5.2-4.5c2,0,3.6,0.5,4.8,1.7
		l-2.2,2.2c-0.9-0.9-2.1-0.8-2.7-0.8c-1.2,0-1.7,0.7-1.7,1.3c0,0.2,0.1,0.4,0.3,0.7c0.2,0.2,0.5,0.4,1,0.4l1.7,0.2
		c1.3,0.2,2.2,0.6,2.8,1.2c0.8,0.7,1.1,1.8,1.1,3.1C327.3,28.2,324.8,29.8,321.8,29.8z"/>
	<path class="st6" d="M333,29.6c-2.4,0-3.3-1.7-3.3-3.2v-4.6h-1v-2.5h1v-3.1h3.3v3.1h1.7v2.5H333v4.4c0,0.4,0.2,0.7,0.7,0.7h1v2.8
		L333,29.6L333,29.6z"/>
	<path class="st6" d="M341.9,29.6v-0.9c-0.7,0.7-1.3,1-2.4,1s-2-0.4-2.6-1s-0.9-1.5-0.9-2.5c0-1.6,1.1-3.1,3.7-3.1h2.2v-0.3
		c0-1-0.5-1.3-1.6-1.3c-0.8,0-1.2,0.2-1.7,0.7l-2-2c1.1-1.1,2.1-1.4,3.9-1.4c3.1,0,4.7,1.3,4.7,3.9v7L341.9,29.6L341.9,29.6z
		 M341.8,25.3h-1.7c-0.6,0-1,0.4-1,0.9s0.4,0.9,1.1,0.9c0.6,0,0.9-0.1,1.3-0.4c0.2-0.2,0.3-0.6,0.3-1.1L341.8,25.3L341.8,25.3z"/>
	<path class="st6" d="M351.2,33.2c-1.7,0-2.9-0.3-4-1.4l2-2c0.5,0.5,1.1,0.7,1.8,0.7c1.4,0,1.7-0.9,1.7-1.6v-0.8
		c-0.6,0.6-1.3,0.9-2.3,0.9s-1.9-0.3-2.5-1c-1-1-1-2.2-1-4.1s0-3.2,1-4.1c0.6-0.6,1.5-1,2.5-1c1.1,0,1.7,0.3,2.4,1v-0.9h3.2v10
		C356.1,31.4,354.2,33.2,351.2,33.2z M351.5,21.7c-1.2,0-1.3,1-1.3,2.1s0.1,2.1,1.3,2.1c1.2,0,1.3-1,1.3-2.1
		C352.8,22.8,352.7,21.7,351.5,21.7z"/>
	<path class="st6" d="M361.3,25.3c0,0.9,0.7,1.7,1.9,1.7c1.1,0,1.6-0.3,2.2-0.9l2,2c-1.1,1.1-2.2,1.7-4.2,1.7
		c-2.4,0-5.1-0.9-5.1-5.5c0-3.5,2-5.5,4.8-5.5c3.1,0,4.8,2.3,4.8,5.1v1.5L361.3,25.3L361.3,25.3z M364.3,22.3
		c-0.2-0.5-0.6-0.8-1.4-0.8s-1.2,0.4-1.4,0.8c-0.1,0.3-0.2,0.6-0.2,0.8h3.2C364.5,22.9,364.5,22.6,364.3,22.3z"/>
	<path class="st6" d="M378.5,29.8c-2.4,0-4.7-1.3-4.7-4.5h3.3c0,1,0.6,1.5,1.5,1.5s1.5-0.5,1.5-1.5c0-0.9-0.6-1.5-1.5-1.5H378V21
		h0.5c1,0,1.4-0.7,1.4-1.3c0-0.9-0.6-1.4-1.3-1.4s-1.3,0.5-1.3,1.3H374c0-2.7,2-4.3,4.6-4.3s4.6,1.8,4.6,4.2c0,1.6-0.8,2.3-1.5,2.8
		c0.8,0.5,1.6,1.4,1.6,3.1C383.3,28.4,381,29.8,378.5,29.8z"/>
</g>
<g class="st3">
	<path class="st2" d="M291.5,52.9v-6.7l-2.3,4.9H288l-2.4-4.9v6.7h-1.5v-10h1.5l2.9,6.2l2.9-6.2h1.5v10H291.5z"/>
	<path class="st2" d="M300.1,52.2c-0.5,0.5-1.2,0.8-2.1,0.8s-1.7-0.4-2.1-0.8c-0.7-0.7-0.8-1.6-0.8-2.8s0.2-2.1,0.8-2.8
		c0.5-0.5,1.1-0.8,2.1-0.8s1.7,0.4,2.1,0.8c0.7,0.7,0.8,1.6,0.8,2.8C301,50.6,300.8,51.5,300.1,52.2z M299.1,47.4
		c-0.3-0.3-0.6-0.4-1.1-0.4c-0.4,0-0.8,0.1-1,0.4c-0.4,0.4-0.5,1.2-0.5,1.9c0,0.8,0.1,1.5,0.5,1.9c0.3,0.3,0.6,0.4,1,0.4
		s0.8-0.2,1.1-0.4c0.4-0.4,0.5-1.2,0.5-1.9C299.5,48.6,299.5,47.8,299.1,47.4z"/>
	<path class="st2" d="M305.5,52.9h-1.2l-2.6-7.1h1.5l1.7,5l1.7-5h1.5L305.5,52.9z"/>
	<path class="st2" d="M310.3,49.8c0,1.2,0.6,2,1.8,2c0.8,0,1.2-0.2,1.7-0.7l0.9,0.9c-0.7,0.7-1.4,1.1-2.7,1.1
		c-1.8,0-3.2-0.9-3.2-3.6c0-2.3,1.2-3.6,3-3.6c1.9,0,3,1.4,3,3.4v0.6L310.3,49.8L310.3,49.8L310.3,49.8L310.3,49.8z M313.3,47.8
		c-0.2-0.5-0.7-0.9-1.4-0.9c-0.7,0-1.2,0.4-1.4,0.9c-0.1,0.3-0.2,0.5-0.2,1h3.2C313.4,48.3,313.4,48.1,313.3,47.8z"/>
	<path class="st2" d="M323.5,53c-1,0-1.9-0.4-2.6-1.1c-1-1-1-2.1-1-4s0-3,1-4c0.7-0.7,1.6-1.1,2.6-1.1c1.8,0,3.2,1.1,3.6,3.1h-1.5
		c-0.2-1-0.9-1.7-2-1.7c-0.6,0-1.1,0.2-1.5,0.6c-0.5,0.5-0.6,1.1-0.6,3.1s0.1,2.6,0.6,3.1c0.4,0.4,0.9,0.6,1.5,0.6
		c1.1,0,1.8-0.7,2-1.7h1.5C326.7,51.9,325.3,53,323.5,53z"/>
	<path class="st2" d="M333.7,52.2c-0.5,0.5-1.2,0.8-2.1,0.8c-1,0-1.7-0.4-2.1-0.8c-0.7-0.7-0.8-1.6-0.8-2.8s0.2-2.1,0.8-2.8
		c0.5-0.5,1.1-0.8,2.1-0.8s1.7,0.4,2.1,0.8c0.7,0.7,0.8,1.6,0.8,2.8C334.5,50.6,334.3,51.5,333.7,52.2z M332.6,47.4
		c-0.3-0.3-0.6-0.4-1.1-0.4c-0.4,0-0.8,0.1-1,0.4c-0.4,0.4-0.5,1.2-0.5,1.9c0,0.8,0.1,1.5,0.5,1.9c0.3,0.3,0.6,0.4,1,0.4
		s0.8-0.2,1.1-0.4c0.4-0.4,0.5-1.2,0.5-1.9C333.1,48.6,333,47.8,332.6,47.4z"/>
	<path class="st2" d="M345.1,52.9v-4.3c0-1.1-0.6-1.6-1.4-1.6s-1.5,0.5-1.5,1.5v4.4h-1.4v-4.3c0-1.1-0.6-1.6-1.4-1.6
		s-1.5,0.5-1.5,1.6v4.3h-1.4v-7.1h1.4v0.7c0.5-0.5,1.2-0.8,1.9-0.8c0.9,0,1.6,0.3,2,1c0.6-0.7,1.3-1,2.2-1c0.7,0,1.4,0.2,1.8,0.6
		c0.5,0.5,0.8,1.2,0.8,2v4.5L345.1,52.9L345.1,52.9z"/>
	<path class="st2" d="M357.4,52.9v-4.3c0-1.1-0.6-1.6-1.4-1.6s-1.5,0.5-1.5,1.5v4.4H353v-4.3c0-1.1-0.6-1.6-1.4-1.6
		s-1.5,0.5-1.5,1.6v4.3h-1.4v-7.1h1.4v0.7c0.5-0.5,1.2-0.8,1.9-0.8c0.9,0,1.6,0.3,2,1c0.6-0.7,1.3-1,2.2-1c0.7,0,1.4,0.2,1.8,0.6
		c0.5,0.5,0.8,1.2,0.8,2v4.5L357.4,52.9L357.4,52.9z"/>
	<path class="st2" d="M365.3,52.9v-0.7c-0.5,0.5-1.2,0.8-1.9,0.8c-0.7,0-1.3-0.2-1.8-0.6c-0.5-0.5-0.7-1.2-0.7-2v-4.5h1.4v4.3
		c0,1.1,0.6,1.6,1.4,1.6s1.5-0.5,1.5-1.6v-4.3h1.4V53L365.3,52.9L365.3,52.9z"/>
	<path class="st2" d="M373.3,52.9v-4.3c0-1.1-0.6-1.6-1.4-1.6s-1.5,0.5-1.5,1.6v4.3H369v-7.1h1.4v0.7c0.5-0.5,1.2-0.8,1.9-0.8
		c0.7,0,1.3,0.2,1.8,0.6c0.5,0.5,0.7,1.2,0.7,2v4.5L373.3,52.9L373.3,52.9z"/>
	<path class="st2" d="M376.8,44.4v-1.5h1.5v1.5H376.8z M376.9,52.9v-7.1h1.4v7.1H376.9z"/>
	<path class="st2" d="M383.4,53c-1.6,0-3.2-1-3.2-3.6s1.6-3.6,3.2-3.6c1,0,1.7,0.3,2.3,1l-1,1c-0.4-0.5-0.8-0.7-1.4-0.7
		c-0.5,0-1,0.2-1.3,0.6c-0.3,0.4-0.4,0.9-0.4,1.7s0.1,1.3,0.4,1.7s0.8,0.6,1.3,0.6c0.6,0,0.9-0.2,1.4-0.7l1,0.9
		C385.1,52.7,384.4,53,383.4,53z"/>
	<path class="st2" d="M391.1,52.9v-0.6c-0.5,0.5-1,0.7-1.9,0.7s-1.5-0.2-1.9-0.6c-0.4-0.4-0.6-0.9-0.6-1.5c0-1.2,0.8-2,2.5-2h1.9
		v-0.5c0-0.9-0.4-1.3-1.6-1.3c-0.8,0-1.2,0.2-1.6,0.7l-0.9-0.9c0.7-0.8,1.4-1,2.5-1c1.9,0,2.9,0.8,2.9,2.4V53L391.1,52.9L391.1,52.9
		z M391.1,49.8h-1.7c-0.8,0-1.3,0.4-1.3,1s0.4,1,1.3,1c0.5,0,1,0,1.3-0.4c0.2-0.2,0.3-0.5,0.3-1.1L391.1,49.8L391.1,49.8z"/>
	<path class="st2" d="M396.9,52.9c-1.3,0-1.9-1-1.9-2V47h-0.8v-1.1h0.8v-2.2h1.4v2.2h1.4V47h-1.4v3.8c0,0.5,0.3,0.8,0.8,0.8h0.6v1.2
		L396.9,52.9L396.9,52.9z"/>
	<path class="st2" d="M399.5,44.4v-1.5h1.5v1.5H399.5z M399.5,52.9v-7.1h1.4v7.1H399.5z"/>
	<path class="st2" d="M408,52.2c-0.5,0.5-1.2,0.8-2.1,0.8c-1,0-1.7-0.4-2.1-0.8c-0.7-0.7-0.8-1.6-0.8-2.8s0.2-2.1,0.8-2.8
		c0.5-0.5,1.1-0.8,2.1-0.8s1.7,0.4,2.1,0.8c0.7,0.7,0.8,1.6,0.8,2.8C408.8,50.6,408.6,51.5,408,52.2z M406.9,47.4
		c-0.3-0.3-0.6-0.4-1.1-0.4c-0.4,0-0.8,0.1-1,0.4c-0.4,0.4-0.5,1.2-0.5,1.9c0,0.8,0.1,1.5,0.5,1.9c0.3,0.3,0.6,0.4,1,0.4
		s0.8-0.2,1.1-0.4c0.4-0.4,0.5-1.2,0.5-1.9C407.4,48.6,407.3,47.8,406.9,47.4z"/>
	<path class="st2" d="M415.1,52.9v-4.3c0-1.1-0.6-1.6-1.4-1.6s-1.5,0.5-1.5,1.6v4.3h-1.4v-7.1h1.4v0.7c0.5-0.5,1.2-0.8,1.9-0.8
		c0.7,0,1.3,0.2,1.8,0.6c0.5,0.5,0.7,1.2,0.7,2v4.5L415.1,52.9L415.1,52.9z"/>
</g>
<g class="st3">
	<path class="st2" d="M320,59.7c-0.4,1.2-0.8,2.3-1.4,3.5v12.7h-2v-9c-0.4,0.5-0.7,1-1.1,1.5c-0.2-0.5-0.7-1.7-1-2.3
		c1.4-1.7,2.8-4.3,3.6-7L320,59.7z M328.1,73.2c1.4,0.5,2.9,1.1,3.8,1.5l-1.8,1.2c-0.9-0.5-2.4-1.2-3.9-1.7l1.2-1h-3.5l1.2,0.8
		c-1.2,0.8-3,1.5-4.6,1.8c-0.3-0.4-0.7-1.1-1.1-1.5c1.3-0.3,2.8-0.7,3.8-1.2h-2.5v-6.7h10.2v6.7L328.1,73.2L328.1,73.2z M327.8,61.4
		v0.8h3.1v3.7h-10.6v-3.7h3v-0.8H320v-1.5h11.5v1.5H327.8L327.8,61.4z M322.1,64.6h1.1v-1.2h-1.1V64.6z M322.5,68.4h6.1v-0.6h-6.1
		V68.4z M322.5,70.2h6.1v-0.6h-6.1V70.2z M322.5,72h6.1v-0.7h-6.1V72z M326.1,61.4h-1.2v0.8h1.2V61.4z M324.9,64.6h1.2v-1.2h-1.2
		V64.6z M327.8,63.4v1.2h1.2v-1.2C329,63.4,327.8,63.4,327.8,63.4z"/>
	<path class="st2" d="M338.4,59.8c-0.4,1.3-1.1,2.6-1.7,3.9v12.2h-2v-9c-0.3,0.4-0.7,0.8-1,1.2c-0.2-0.5-0.8-1.7-1.1-2.2
		c1.5-1.6,3-4.2,3.9-6.7L338.4,59.8z M349.6,73.7v1.8h-12.1v-1.8h1.5v-10h3.1c0.1-0.4,0.1-0.8,0.2-1.2h-4.1v-1.8h4.3
		c0.1-0.6,0.1-1.1,0.1-1.6l2.3,0.1c-0.1,0.5-0.2,1-0.3,1.5h4.4v1.8h-4.8c-0.1,0.5-0.2,0.8-0.3,1.2h4.2v10H349.6L349.6,73.7z
		 M340.9,65.3v1h5.3v-1H340.9z M346.2,67.8h-5.3v1h5.3V67.8z M340.9,70.2v1h5.3v-1H340.9z M340.9,73.7h5.3v-1h-5.3V73.7z"/>
	<path class="st2" d="M367.6,74.8h-7.5v1.1H358v-9.7c-0.4,0.5-0.8,1-1.2,1.4c-0.1-0.1-0.3-0.3-0.4-0.5l0.2,1.4
		c-0.6,0.2-1.2,0.4-1.7,0.5v4.3c0,1-0.2,1.6-0.8,1.9c-0.6,0.4-1.4,0.4-2.5,0.4c-0.1-0.6-0.3-1.5-0.6-2.1c0.6,0,1.3,0,1.5,0
		s0.3-0.1,0.3-0.3v-3.7l-1.7,0.5l-0.5-2c0.6-0.1,1.4-0.3,2.2-0.5v-3.3h-2v-2h2v-3.3h2.1v3.3h1.8v2h-1.8v2.7l1.2-0.3
		c-0.3-0.3-0.5-0.5-0.8-0.7c1.6-1.6,3.1-4.2,3.9-6.9l2,0.5c-0.3,0.8-0.6,1.6-1,2.4h2.4c-0.2-0.7-0.6-1.5-1-2.2l1.9-0.7
		c0.5,0.7,1,1.8,1.2,2.5l-1.1,0.5h3.4v2h-2.9v1.6h2.7v1.9h-2.7v1.6h2.6V71h-2.6v1.7h3.3L367.6,74.8L367.6,74.8z M362.3,64.1h-2.2
		v1.6h2.2V64.1z M362.3,67.6h-2.2v1.6h2.2V67.6z M360.1,72.8h2.2v-1.7h-2.2V72.8z"/>
	<path class="st2" d="M385.2,63.1c0,0,0,0.7,0,1c-0.2,7.4-0.3,10-0.9,10.8c-0.4,0.6-0.8,0.8-1.4,0.9c-0.5,0.1-1.4,0.1-2.2,0.1
		c0-0.6-0.3-1.5-0.6-2.1c0.8,0.1,1.5,0.1,1.8,0.1s0.4-0.1,0.6-0.3c0.4-0.5,0.6-2.7,0.7-8.5h-1.6c-0.2,4.8-1.1,8.5-4.1,10.9
		c-0.3-0.4-0.8-1-1.3-1.4c-2.6,0.3-5.2,0.5-7.1,0.7l-0.3-1.8c1-0.1,2.3-0.2,3.7-0.3v-1.1h-3.2v-1.5h3.2v-0.7h-3.1v-5.6h3.1v-0.7H369
		v-1.5h3.5v-0.7c-1,0.1-2.1,0.1-3,0.1c-0.1-0.4-0.3-1.1-0.5-1.5c2.7-0.1,5.8-0.5,7.8-0.9l0.9,1.6c-1,0.2-2.1,0.4-3.2,0.5v0.9h3.5v1
		h1.7c0-1.2,0-2.4,0-3.8h2.1c0,1.3,0,2.6,0,3.8L385.2,63.1L385.2,63.1z M371.1,66.5h1.4v-0.8h-1.4V66.5z M372.5,68.6v-0.8h-1.4v0.8
		H372.5z M374.4,73.1c1-0.1,2.1-0.2,3.1-0.3c1.4-1.9,1.8-4.5,2-7.7h-1.6v-1.4h-3.5v0.7h3.2V70h-3.2v0.7h3.3v1.5h-3.3V73.1
		L374.4,73.1z M375.8,66.5v-0.8h-1.4v0.8H375.8z M374.4,67.8v0.8h1.4v-0.8H374.4z"/>
	<path class="st2" d="M317.8,88.9c-0.6-0.6-2-1.4-3-1.8l1.2-1.6c1,0.4,2.4,1.1,3.1,1.6L317.8,88.9z M319.8,91.5
		c-0.8,1.9-1.7,4-2.7,5.8l-1.9-1.3c0.8-1.4,2-3.7,2.9-5.8L319.8,91.5z M318.8,84.2c-0.6-0.6-2-1.4-3-1.9l1.2-1.6
		c1,0.4,2.4,1.2,3.1,1.7L318.8,84.2z M331.6,94.7h-1.1v0.8c0,0.9-0.2,1.4-0.8,1.6c-0.6,0.3-1.5,0.3-2.8,0.3
		c-0.1-0.5-0.4-1.2-0.7-1.7c0.8,0,1.6,0,1.9,0s0.3-0.1,0.3-0.3v-0.8h-5.7v2.7h-2v-2.7h-1.4v-1.7h1.4v-4.5h3.7v-0.7h-5V86h2.9v-0.7
		h-1.8V84h1.8v-0.7h-2.1v-1.5h2.1v-1.2h2.1v1.2h2.2v-1.2h2.1v1.2h2.3v1.5h-2.3V84h2.1v1.4h-2.1v0.7h2.9v1.7h-5.1v0.7h4V93h1.1V94.7
		L331.6,94.7z M322.8,90v0.8h1.7V90H322.8z M322.8,93.1h1.7v-0.8h-1.7V93.1z M324.4,84h2.2v-0.7h-2.2V84z M324.4,86.2h2.2v-0.7h-2.2
		V86.2z M326.5,90v0.8h2V90H326.5z M328.5,93.1v-0.8h-2v0.8H328.5z"/>
	<path class="st2" d="M337.9,89.1c-0.3,1.6-0.8,3.3-1.4,4.7c0.3,0.2,0.6,0.4,1.1,0.7c1.2,0.7,2.9,0.8,5,0.8s5.3-0.2,7.3-0.5
		c-0.2,0.6-0.6,1.6-0.6,2.2c-1.5,0.1-4.7,0.2-6.8,0.2c-2.4,0-3.9-0.2-5.2-1c-0.8-0.4-1.4-1-1.8-1s-1.1,1.2-1.5,2.3l-1.4-2
		c0.6-0.8,1.3-1.3,1.9-1.7c0.4-0.9,0.8-2,1-3.1h-2.3c0.4-1.1,0.9-2.5,1.3-3.9h-1.6v-1.9h4.2c-0.4,1.3-0.8,2.7-1.2,4h0.7l0.3-0.1
		L337.9,89.1z M334.8,84.3c-0.2-0.8-0.7-2.1-1-3.1l1.9-0.6c0.3,1,0.8,2.2,1,3L334.8,84.3z M340.7,94.4h-2v-9.3h4
		c-0.8-0.4-1.7-0.7-2.4-1l1.4-1.1c0.6,0.2,1.4,0.5,2.1,0.8c0.5-0.3,1-0.6,1.4-1h-6.4v-1.6h8.3l0.4-0.1l1.3,1c-0.9,0.9-2,1.7-3.2,2.4
		c0.4,0.2,0.8,0.4,1.1,0.6h2.2v7.4c0,0.9-0.2,1.3-0.7,1.6c-0.6,0.3-1.4,0.3-2.4,0.3c-0.1-0.5-0.3-1.2-0.5-1.7c0.6,0,1.2,0,1.4,0
		c0.2,0,0.3-0.1,0.3-0.3v-0.8h-2.1v2.6H343v-2.6h-2.1L340.7,94.4L340.7,94.4z M340.7,86.7v1h2.1v-1H340.7z M342.8,90.2v-1h-2.1v1
		H342.8z M346.8,86.7h-2.1v1h2.1V86.7z M346.8,90.2v-1h-2.1v1H346.8z"/>
	<path class="st2" d="M366.1,91.5c0,0.9-0.2,1.3-0.8,1.6c-0.6,0.3-1.4,0.3-2.4,0.3c1.4,0.7,3,1.3,4.8,1.6c-0.5,0.5-1.1,1.3-1.4,1.9
		c-2.3-0.6-4.3-1.7-5.8-2.9v3.5h-2.3v-3.6c-1.6,1.4-3.7,2.5-6,3.1c-0.3-0.5-0.9-1.4-1.3-1.8c3-0.6,5.8-1.9,7.3-3.7v-1.3h-3.4v3.2
		h-2.3v-5h5.7v-0.9h-6.9v-1.8h4.9c-0.4-0.5-1.1-1.2-1.7-1.8l0.7-0.6h-1.1c-0.6,0.9-1.2,1.7-1.9,2.3c-0.3-0.4-1-1.1-1.4-1.4
		c1-0.9,2.1-2.4,2.6-3.8l1.9,0.5c-0.1,0.2-0.2,0.5-0.3,0.7h3.9v1.6h-2.6c0.5,0.4,0.9,0.9,1.2,1.2l-1.3,1.2h1.9v-1h1.6
		c-0.4-0.3-0.9-0.7-1.2-0.9c1-0.8,1.8-2.1,2.2-3.4l1.9,0.5c-0.1,0.3-0.2,0.5-0.3,0.8h5v1.6h-3.1c0.5,0.4,1,0.8,1.2,1.1l-1.4,1.2
		c-0.4-0.5-1.2-1.2-1.8-1.7l0.8-0.6h-1.5c-0.3,0.5-0.7,1-1.1,1.4v0.9h6.5v1.8h-6.5v0.9h5.6L366.1,91.5L366.1,91.5L366.1,91.5z
		 M360.6,91.8c0.6,0.5,1.4,1,2.3,1.5c-0.1-0.5-0.5-1.2-0.7-1.6c0.6,0.1,1.3,0,1.5,0s0.3-0.1,0.3-0.3v-1.3h-3.4L360.6,91.8
		L360.6,91.8z"/>
	<path class="st2" d="M385.5,83.2c-0.7,1.7-1.8,3.2-3,4.4c1,0.6,2.1,1.1,3.4,1.4c-0.2,0.5-0.4,1.5-0.5,2.1c-0.3-0.1-0.5-0.1-0.7-0.2
		v6.4h-1.9v-0.9H379v0.9h-1.9v-6.5c-0.3,0.1-0.6,0.2-0.9,0.3c-0.1-0.4-0.3-1.1-0.6-1.6v4.7H371v1.2h-1.6V81.9h6.3v3.5
		c1.4-1.2,2.6-3,3.4-4.9l1.8,0.5c-0.2,0.5-0.4,0.9-0.6,1.4h3.7l0.4-0.1L385.5,83.2z M371,83.8v3.4h1v-3.4H371z M371,92.5h1v-3.7h-1
		V92.5z M374.2,83.8h-0.9v3.4h0.9V83.8z M374.2,92.5v-3.7h-0.9v3.7H374.2z M375.7,89.1c1.3-0.4,2.6-0.9,3.7-1.5
		c-0.5-0.5-0.9-1.1-1.3-1.7c-0.4,0.5-0.9,1-1.3,1.4c-0.2-0.4-0.7-1.1-1-1.5L375.7,89.1L375.7,89.1z M383.7,90.5c-1-0.4-2-1-2.8-1.6
		c-0.9,0.6-1.9,1.2-2.9,1.6H383.7z M382.7,94.5v-2.1H379v2.1H382.7z M379.4,84.4c0.4,0.7,0.9,1.4,1.5,2c0.7-0.6,1.3-1.3,1.8-2H379.4
		z"/>
</g>
<g>
	<g>
		<path class="st5" d="M43.5,29.8c-2.2,0-4-0.4-5.4-1.9l2.2-2.2c0.7,0.7,2,1,3.2,1c1.4,0,2-0.5,2-1.3c0-0.3-0.1-0.6-0.3-0.8
			c-0.2-0.2-0.5-0.3-0.9-0.4L42.6,24c-1.3-0.2-2.2-0.6-2.9-1.3c-0.7-0.7-1-1.6-1-2.9c0-2.6,2-4.5,5.2-4.5c2,0,3.6,0.5,4.8,1.7
			l-2.2,2.2c-0.9-0.9-2.1-0.8-2.7-0.8c-1.2,0-1.7,0.7-1.7,1.3c0,0.2,0.1,0.4,0.3,0.7c0.2,0.2,0.5,0.4,1,0.4l1.7,0.2
			c1.3,0.2,2.2,0.6,2.8,1.2c0.8,0.7,1.1,1.8,1.1,3.1C49,28.2,46.5,29.8,43.5,29.8z"/>
		<path class="st5" d="M54.7,29.6c-2.4,0-3.3-1.7-3.3-3.2v-4.6h-1v-2.5h1v-3.1h3.3v3.1h1.7v2.5h-1.7v4.4c0,0.4,0.2,0.7,0.7,0.7h1
			v2.8L54.7,29.6L54.7,29.6z"/>
		<path class="st5" d="M63.6,29.6v-0.9c-0.7,0.7-1.3,1-2.4,1c-1.1,0-2-0.4-2.6-1s-0.9-1.5-0.9-2.5c0-1.6,1.1-3.1,3.7-3.1h2.2v-0.3
			c0-1-0.5-1.3-1.6-1.3c-0.8,0-1.2,0.2-1.7,0.7l-2-2c1.1-1.1,2.1-1.4,3.9-1.4c3.1,0,4.7,1.3,4.7,3.9v7L63.6,29.6L63.6,29.6z
			 M63.5,25.3h-1.7c-0.6,0-1,0.4-1,0.9s0.4,0.9,1.1,0.9c0.6,0,0.9-0.1,1.3-0.4c0.2-0.2,0.3-0.6,0.3-1.1
			C63.5,25.6,63.5,25.3,63.5,25.3z"/>
		<path class="st5" d="M72.9,33.2c-1.7,0-2.9-0.3-4-1.4l2-2c0.5,0.5,1.1,0.7,1.8,0.7c1.4,0,1.7-0.9,1.7-1.6v-0.8
			c-0.6,0.6-1.3,0.9-2.3,0.9s-1.9-0.3-2.5-1c-1-1-1-2.2-1-4.1s0-3.2,1-4.1c0.6-0.6,1.5-1,2.5-1c1.1,0,1.7,0.3,2.4,1v-0.9h3.2v10
			C77.8,31.4,75.9,33.2,72.9,33.2z M73.2,21.7c-1.2,0-1.3,1-1.3,2.1C72,25,72,26,73.2,26s1.3-1,1.3-2.1S74.4,21.7,73.2,21.7z"/>
		<path class="st5" d="M83,25.3c0,0.9,0.7,1.7,1.9,1.7c1.1,0,1.6-0.3,2.2-0.9l2,2c-1.1,1.1-2.2,1.7-4.2,1.7c-2.4,0-5.1-0.9-5.1-5.5
			c0-3.5,2-5.5,4.8-5.5c3.1,0,4.8,2.3,4.8,5.1v1.5L83,25.3L83,25.3z M86,22.3c-0.2-0.5-0.6-0.8-1.4-0.8s-1.2,0.4-1.4,0.8
			c-0.1,0.3-0.2,0.6-0.2,0.8h3.2C86.2,22.9,86.2,22.6,86,22.3z"/>
		<path class="st5" d="M99.5,29.6V18.9l-3,2.6V18l3-2.6h3.3v14.2C102.8,29.6,99.5,29.6,99.5,29.6z"/>
	</g>
</g>
<g class="st3">
	<path class="st2" d="M11.3,67.7c-0.7-0.5-2.3-1.4-3.4-1.9l1.2-1.6c1,0.5,2.6,1.3,3.4,1.7L11.3,67.7z M13.6,70
		c-1,1.9-2.1,3.9-3.2,5.7l-1.8-1.4c1-1.4,2.3-3.6,3.4-5.7L13.6,70z M12.2,62.9c-0.7-0.6-2.2-1.5-3.2-2.1l1.3-1.5
		c1,0.5,2.5,1.4,3.3,1.9L12.2,62.9z M24,73.6c0,1-0.2,1.6-0.9,1.9c-0.7,0.3-1.6,0.4-3,0.4c-0.1-0.6-0.4-1.5-0.6-2
		c0.8,0.1,1.8,0.1,2.1,0c0.3,0,0.4-0.1,0.4-0.3v-2.5c-1.8,0.5-3.7,1-5.2,1.3l-0.6-1.8c1.5-0.3,3.7-0.8,5.8-1.3V66h-5.8v3.6
		c0,2-0.1,4.7-1.1,6.4c-0.4-0.3-1.2-1-1.7-1.2c0.8-1.5,0.9-3.5,0.9-5.2v-5.5H18v-5h2.2v5H24V73.6L24,73.6z M15.3,63.7
		c-0.2-0.9-0.9-2.3-1.6-3.3l1.8-0.8c0.7,1,1.5,2.3,1.8,3.2L15.3,63.7z M17.2,66.7c1.4,0.3,3.1,0.9,4,1.4l-0.9,1.5
		c-0.9-0.5-2.6-1.2-4-1.6L17.2,66.7z M24.7,60.2c-0.6,1.3-1.3,2.5-1.8,3.4L21,62.9c0.5-0.9,1.2-2.4,1.6-3.4L24.7,60.2z"/>
	<path class="st2" d="M38.6,73.1c1.5,0.5,2.9,1,3.9,1.5L41,75.9c-1.2-0.6-3.2-1.4-5.1-2.1l0.7-0.7h-4.4l1.3,0.6
		c-1.5,0.9-3.8,1.7-5.6,2.2c-0.3-0.4-1.1-1.2-1.5-1.5c1.6-0.3,3.4-0.7,4.7-1.2h-2.4v-5.3c-0.4,0.1-0.9,0.2-1.3,0.3
		c-0.2-0.5-0.7-1.3-1-1.7c2.1-0.3,3.4-0.7,4.2-1.3h-2.9c0.2-0.9,0.4-2.2,0.5-3.3h3.4v-0.7h-4.1v-1.3h4.1v-0.8h1.9v0.8h2v-0.8h2v0.8
		h3.8v3.2h-3.8v0.8h5c0,0,0,0.3,0,0.6c-0.1,1.1-0.2,1.7-0.5,2.1c-0.3,0.3-0.6,0.4-1,0.4c-0.1,0-0.2,0-0.3,0v6.2L38.6,73.1L38.6,73.1
		z M29.6,63.9h1.7c0.1-0.3,0.1-0.5,0.1-0.8h-1.7L29.6,63.9z M30.7,67.4v0.7h7.7v-0.7H30.7z M30.7,69.3V70h7.7v-0.7H30.7z M30.7,71.9
		h7.7v-0.8h-7.7V71.9z M33,65.1c-0.2,0.4-0.5,0.8-0.8,1.1h3.3v-1.1H33z M35.4,63.1h-2c0,0.3,0,0.5-0.1,0.8h2.1V63.1L35.4,63.1z
		 M33.4,61.8h2v-0.7h-2V61.8z M37.5,61.1v0.7h1.9v-0.7H37.5z M37.5,65.1v1.1h1.6C39,66,39,65.8,38.8,65.6c0.4,0.1,0.8,0.1,1,0.1
		s0.3,0,0.4-0.1c0.1-0.1,0.1-0.2,0.1-0.5H37.5L37.5,65.1z"/>
	<path class="st2" d="M54.1,66.4c-0.7,0.5-1.4,1-2.1,1.4h6.5v8h-2.2v-0.5H50v0.5h-2.1V70c-0.9,0.4-1.8,0.8-2.8,1.1
		c-0.3-0.5-0.9-1.3-1.3-1.8c2.4-0.7,4.6-1.8,6.7-3h-6.1v-1.9h5.8v-1.6H46V61h4.2v-1.9h2.1V61h3.9v0.9c0.7-0.7,1.3-1.5,1.9-2.3
		l1.8,0.9c-1,1.4-2.2,2.8-3.5,4h4.2v1.9H54.1L54.1,66.4z M56.2,69.6H50v1.2h6.2V69.6z M56.2,73.6v-1.2H50v1.2H56.2z M52.3,64.5h1
		c0.7-0.5,1.3-1.1,1.9-1.6h-2.9V64.5L52.3,64.5z"/>
	<path class="st2" d="M67.3,59.7c-0.4,1.2-0.8,2.3-1.4,3.5v12.7h-2v-9c-0.4,0.5-0.7,1-1.1,1.5c-0.2-0.5-0.7-1.7-1-2.3
		c1.4-1.7,2.8-4.3,3.6-7L67.3,59.7z M75.3,73.2c1.4,0.5,2.9,1.1,3.8,1.5l-1.8,1.2c-0.9-0.5-2.4-1.2-3.9-1.7l1.2-1h-3.5l1.2,0.8
		c-1.2,0.8-3,1.5-4.6,1.8c-0.3-0.4-0.7-1.1-1.1-1.5c1.3-0.3,2.8-0.7,3.8-1.2h-2.5v-6.7H78v6.7L75.3,73.2L75.3,73.2z M75.1,61.4v0.8
		h3.1v3.7H67.5v-3.7h3v-0.8h-3.3v-1.5h11.5v1.5H75.1L75.1,61.4z M69.4,64.6h1.1v-1.2h-1.1V64.6z M69.8,68.4h6.1v-0.6h-6.1V68.4z
		 M69.8,70.2h6.1v-0.6h-6.1V70.2z M69.8,72h6.1v-0.7h-6.1V72z M73.4,61.4h-1.2v0.8h1.2V61.4z M72.2,64.6h1.2v-1.2h-1.2V64.6z
		 M75.1,63.4v1.2h1.2v-1.2C76.3,63.4,75.1,63.4,75.1,63.4z"/>
	<path class="st2" d="M85.7,59.8c-0.4,1.3-1.1,2.6-1.7,3.9v12.2h-2v-9c-0.3,0.4-0.7,0.8-1,1.2c-0.2-0.5-0.8-1.7-1.1-2.2
		c1.5-1.6,3-4.2,3.9-6.7L85.7,59.8z M96.8,73.7v1.8H84.7v-1.8h1.5v-10h3.1c0.1-0.4,0.1-0.8,0.2-1.2h-4.1v-1.8h4.3
		c0.1-0.6,0.1-1.1,0.1-1.6l2.3,0.1c-0.1,0.5-0.2,1-0.3,1.5h4.4v1.8h-4.8c-0.1,0.5-0.2,0.8-0.3,1.2h4.2v10H96.8L96.8,73.7z
		 M88.2,65.3v1h5.3v-1H88.2z M93.5,67.8h-5.3v1h5.3V67.8z M88.2,70.2v1h5.3v-1H88.2z M88.2,73.7h5.3v-1h-5.3V73.7z"/>
	<path class="st2" d="M103.5,69.7l0.4,1.9c-1.7,0.7-3.6,1.5-5.2,2.1L98,71.6c0.6-0.2,1.2-0.4,1.9-0.6v-5.6h-1.6v-2h1.6v-4h2v4h1.6v2
		H102v4.9L103.5,69.7z M114.1,61.6v6.2h-10v-6.2h2.1c-0.3-0.6-0.7-1.3-1.1-1.9L107,59c0.5,0.6,1,1.5,1.3,2.1l-1.2,0.6h2.8
		c0.5-0.8,1-1.8,1.3-2.6l2.2,0.7c-0.5,0.7-1,1.4-1.4,2L114.1,61.6L114.1,61.6z M105,68.6h8.4v7.2h-2V75H107v0.9h-2V68.6L105,68.6z
		 M105.8,66.5h2.4V63h-2.4V66.5z M107.1,63.3c0.5,0.8,0.9,1.8,1.1,2.5l-1.2,0.4c-0.1-0.7-0.6-1.7-1-2.5L107.1,63.3z M106.9,70.2v1
		h4.4v-1H106.9z M111.3,73.5v-0.8h-4.4v0.8H111.3z M109.8,63v3.4h2.5V63H109.8z M109.9,65.8c0.4-0.7,0.8-1.7,1.1-2.5l1.3,0.5
		c-0.5,0.8-1,1.8-1.4,2.4L109.9,65.8z"/>
	<path class="st2" d="M132.1,70.5c-1,0.7-2.1,1.4-3.2,2c1.1,0.7,2.5,1.2,4.1,1.5c-0.5,0.4-1.1,1.3-1.4,1.9c-4-0.9-6.4-3-8-6.3H121
		v3.8l3.9-0.8c-0.1,0.6-0.2,1.5-0.2,1.9c-4.3,1-5.3,1.2-5.8,1.4l-0.1,0.1c-0.1-0.5-0.6-1.6-0.9-2.1c0.4-0.2,0.9-0.6,0.9-1.4v-2.9
		h-2.6v-1.9h3v-8h11.4v1.7h-9.2v1h8.7v1.7h-8.7V65h8.7v1.7h-8.7v1h11.1v1.9h-1.9L132.1,70.5z M125.9,69.5c0.4,0.7,0.9,1.3,1.5,1.8
		c0.9-0.6,1.9-1.2,2.6-1.8H125.9z"/>
</g>
<g class="st3">
	<path class="st2" d="M23.3,93.9c-2,0.7-4.1,1.4-5.9,1.9l-0.5-2.2c0.6-0.2,1.4-0.4,2.2-0.6v-4.2h-1.8v-2h1.8v-3.2h-2v-2H23v2h-1.9
		v3.2h1.6v2h-1.6v3.6c0.6-0.2,1.2-0.4,1.8-0.6L23.3,93.9z M34,95v1.9H22.4V95h5v-1.7h-3.7v-1.9h3.7v-1.5h-3.6v-8.4h9.4v8.4h-3.6v1.5
		h3.8v1.9h-3.8V95H34z M25.7,84.7h1.9v-1.5h-1.9V84.7z M25.7,88h1.9v-1.5h-1.9V88z M31.1,83.2h-1.8v1.5h1.8V83.2z M31.1,86.4h-1.8
		V88h1.8V86.4z"/>
	<path class="st2" d="M38.3,87.9c-0.6,1.1-1.3,2-2,2.6C36,90,35.4,89.4,34.9,89c1.2-0.9,2.4-2.4,3.1-4h-2.6v-1.8h3v-2.5h2v2.5h2.5
		V85h-2.5v0.7c0.7,0.4,2.4,1.6,2.8,2l-1.1,1.7c-0.4-0.4-1.1-1.1-1.7-1.7v3.8h-2L38.3,87.9L38.3,87.9z M35.1,95.5
		c0.6-1,1.3-2.4,1.6-3.7l1.9,0.8c-0.4,1.3-0.9,2.9-1.5,3.9L35.1,95.5z M45.3,95.2c0.8,0,1-0.3,1.1-2.1c0.4,0.3,1.3,0.6,1.9,0.8
		c-0.3,2.6-0.9,3.2-2.8,3.2h-3.2c-2.4,0-3.1-0.6-3.1-2.5v-2.5h2.1v2.4c0,0.5,0.2,0.6,1.2,0.6C42.5,95.2,45.3,95.2,45.3,95.2z
		 M43.3,90.8l0.4,0.3v-9.5H51v9.7h-7.1c0.7,0.6,1.5,1.4,1.9,1.9l-1.5,1.3c-0.5-0.6-1.6-1.7-2.4-2.5L43.3,90.8z M45.6,84.3h3.3v-1
		h-3.3V84.3z M45.6,86.9h3.3v-1h-3.3V86.9z M45.6,89.6h3.3v-1.1h-3.3V89.6z M49.7,91.6c0.7,1.1,1.8,2.6,2.2,3.6l-2,1
		c-0.4-1-1.4-2.5-2.1-3.7L49.7,91.6z"/>
	<path class="st2" d="M68.9,82.9c-0.6,1.9-1.4,3.5-2.5,4.8c1,0.8,2.3,1.6,3.7,2c-0.4,0.4-1,1.2-1.3,1.8l0,0v5.9h-2.1v-0.6h-3.4v0.6
		h-2v-5.9L61,91.8c-0.1-0.3-0.4-0.7-0.7-1v0.5h-2v2.4l2.1-0.5l0.2,1.9c-2.5,0.6-5.3,1.3-7.3,1.7L53,94.7l0.8-0.1v-6.1h1.7v5.7
		l0.9-0.2v-6.8h-2.5v-6h6.2v4.5c1.3-1.3,2.4-3.2,3-5.1l2,0.5c-0.1,0.4-0.3,0.8-0.4,1.2h2.5l0.4-0.1L68.9,82.9z M55.8,85.4h2.4v-2.3
		h-2.4V85.4z M60.3,89.9c1.2-0.5,2.4-1.3,3.4-2.3c-0.4-0.5-0.8-1.1-1.1-1.6c-0.3,0.4-0.7,0.9-1.1,1.2c-0.3-0.3-1-0.9-1.4-1.2v1.2
		h-1.8v2.1h2L60.3,89.9L60.3,89.9z M67.3,90.8c-0.8-0.5-1.6-1-2.3-1.6c-0.7,0.6-1.4,1.2-2.2,1.6H67.3z M66.7,95v-2.4h-3.4V95H66.7z
		 M63.8,84.2l-0.1,0.3c0.4,0.6,0.8,1.2,1.3,1.9c0.5-0.7,1-1.4,1.3-2.1h-2.5C63.8,84.3,63.8,84.2,63.8,84.2z"/>
	<path class="st2" d="M76.7,85.2c-0.4,0.7-0.9,1.5-1.4,2.2v10.1h-2v-7.7c-0.5,0.5-0.9,0.9-1.4,1.3c-0.2-0.5-0.8-1.6-1.1-2
		c1.5-1.1,3.1-2.9,4-4.6L76.7,85.2z M76.4,81.4c-1.1,1.5-2.8,3.3-4.3,4.4c-0.3-0.4-0.8-1.2-1.1-1.6c1.3-0.9,2.8-2.4,3.5-3.6
		L76.4,81.4z M87.9,95.1V97H76.1v-1.9H81v-2.2h-3.9V91H87v1.8h-3.8V95L87.9,95.1L87.9,95.1z M80.2,84.2c-0.5,1.1-1.1,2-1.6,2.8
		c0.7,1,1.5,2.2,1.8,3l-1.9,0.5c-0.3-1-1.1-2.3-1.9-3.5c0.6-1.1,1.3-2.4,1.7-3.3L80.2,84.2z M87.7,83.4H76.9v-1.9h10.8L87.7,83.4
		L87.7,83.4z M82,90.6c-0.4-1-1.2-2.3-2.2-3.5c0.7-1.1,1.4-2.4,1.8-3.3l1.9,0.4c-0.5,1.1-1.1,1.9-1.7,2.8c0.8,1,1.6,2.2,2,3L82,90.6
		z M85.7,90.6c-0.5-1-1.5-2.3-2.5-3.5c0.8-1.1,1.6-2.4,2-3.3l1.9,0.4c-0.6,1.1-1.2,1.9-1.8,2.8c0.9,1,1.8,2.2,2.3,3L85.7,90.6z"/>
	<path class="st2" d="M93.9,81.2c-0.3,1.2-0.6,2.4-1.1,3.6v12.7h-2v-8.6c-0.3,0.4-0.5,0.8-0.8,1.1c-0.1-0.5-0.7-1.7-1-2.3
		c1.4-1.7,2.4-4.3,3-7L93.9,81.2z M96,94v3.5h-2V81.3h5.1v6.2H96v1.4h2.9v1.7H96v1.5h3.1V94H96z M96,83.1v2.7h1.3v-2.7H96z
		 M105.3,88.7c-0.4,2.2-1.1,4-2,5.3c0.8,0.8,1.7,1.4,2.8,1.9c-0.4,0.4-1,1.1-1.2,1.6c-1.1-0.5-2-1.2-2.8-2c-0.9,0.9-2,1.5-3.3,2.1
		c-0.2-0.5-0.7-1.2-1.1-1.6c1.2-0.4,2.3-1.1,3.2-2c-0.6-1.1-1.1-2.2-1.5-3.6l1.1-0.3h-1.2v-1.7h4.4l0.3-0.1L105.3,88.7z M105,87.5
		h-5.2v-1.8h3.3v-2.5h-3.3v-1.8h5.2V87.5z M101.1,90.1c0.3,0.8,0.6,1.6,1,2.3c0.4-0.7,0.7-1.5,1-2.3H101.1z"/>
	<path class="st2" d="M114.2,85.3h-7v-1.7h3c-0.3-0.7-0.7-1.6-1.2-2.3l1.7-0.8c0.5,0.7,1,1.7,1.3,2.4l-1.2,0.6h3.4
		C114.2,83.5,114.2,85.3,114.2,85.3z M113.5,86.5c1.8-1,2-2.2,2-3.4v-1.9h6.1v3.9c0,0.5,0,0.7,0.3,0.7h0.7c0.3,0,0.6-0.1,0.9-0.1
		c0,0.5,0.1,1.3,0.1,1.8c-0.3,0.1-0.6,0.1-1,0.1h-0.9c-1.7,0-2-0.8-2-2.5v-1.9h-2.2l0,0c0,1.7-0.5,3.8-2.8,5c-0.2-0.3-0.8-1-1.2-1.3
		v0.9H108v-1.6h5.5V86.5L113.5,86.5z M113.5,90.2H108v-1.6h5.5V90.2z M123.1,88.9c-0.6,2.2-1.6,3.9-2.9,5.2c1.1,0.6,2.3,1,3.7,1.3
		c-0.4,0.4-1,1.4-1.3,1.9c-1.6-0.4-3-1-4.2-1.8c-1.2,0.8-2.6,1.4-4.2,1.8c-0.2-0.4-0.5-1.1-0.8-1.6v0.6h-3.7v0.8H108V91h5.5v4.4
		c1.2-0.3,2.3-0.7,3.3-1.3c-0.9-0.9-1.7-2.1-2.4-3.3l1.2-0.4h-1.7v-2h7.5l0.4-0.1L123.1,88.9z M111.6,92.7h-1.8v2h1.8V92.7z
		 M116.4,90.4c0.5,1,1.2,1.8,2.1,2.6c0.8-0.7,1.4-1.6,1.9-2.6H116.4z"/>
</g>
<g class="st3">
	<path class="st4" d="M68.5,171.3c-1,1-2.5,1.5-4.1,1.5h-5.7v-15.7h5.7c1.6,0,3.1,0.5,4.1,1.5c1.8,1.8,1.6,3.9,1.6,6.3
		C70.1,167.3,70.2,169.6,68.5,171.3z M66.3,160.8c-0.5-0.6-1.2-1-2.3-1h-2.3V170H64c1.1,0,1.8-0.3,2.3-1c0.6-0.7,0.7-1.8,0.7-4.2
		C67,162.5,66.9,161.5,66.3,160.8z"/>
	<path class="st4" d="M77.3,172.9c-2.6,0-4.8-1.7-4.8-4.7v-6.6c0-3,2.2-4.7,4.8-4.7s4.8,1.7,4.8,4.7v6.6
		C82.1,171.3,79.9,172.9,77.3,172.9z M79.2,161.7c0-1.3-0.8-2.1-1.9-2.1s-1.9,0.8-1.9,2.1v6.5c0,1.3,0.8,2.1,1.9,2.1
		s1.9-0.8,1.9-2.1V161.7z"/>
</g>
<g class="st3">
	<path class="st4" d="M69.7,267.9c-1,1-2.5,1.5-4.1,1.5h-5.7v-15.7h5.7c1.6,0,3.1,0.5,4.1,1.5c1.8,1.8,1.6,3.9,1.6,6.3
		C71.3,263.8,71.5,266.1,69.7,267.9z M67.6,257.4c-0.5-0.6-1.2-1-2.3-1H63v10.2h2.3c1.1,0,1.8-0.3,2.3-1c0.6-0.7,0.7-1.8,0.7-4.2
		C68.2,259.1,68.1,258.1,67.6,257.4z"/>
	<path class="st4" d="M78,269.4v-12.6l-3.2,2.8v-3.1l3.2-2.8h2.9v15.7L78,269.4L78,269.4z"/>
</g>
<g class="st3">
	<path class="st4" d="M68.4,366.8c-1,1-2.5,1.5-4.1,1.5h-5.7v-15.7h5.7c1.6,0,3.1,0.5,4.1,1.5c1.8,1.8,1.6,3.9,1.6,6.3
		S70.2,365,68.4,366.8z M66.3,356.3c-0.5-0.6-1.2-1-2.3-1h-2.3v10.2H64c1.1,0,1.8-0.3,2.3-1c0.6-0.7,0.7-1.8,0.7-4.2
		C67,358,66.9,357,66.3,356.3z"/>
	<path class="st4" d="M72.6,368.3v-2.6l5.9-6.8c0.6-0.7,0.8-1.2,0.8-1.9c0-1.2-0.7-2-1.9-2c-0.9,0-1.9,0.5-1.9,2h-2.9
		c0-2.9,2.1-4.6,4.8-4.6c2.8,0,4.8,1.7,4.8,4.6c0,1.5-0.6,2.3-1.7,3.6l-4.4,5.1h6.1v2.6L72.6,368.3L72.6,368.3z"/>
</g>
<g class="st3">
	<path class="st4" d="M68.4,463.3c-1,1-2.5,1.5-4.1,1.5h-5.7v-15.7h5.7c1.6,0,3.1,0.5,4.1,1.5c1.8,1.8,1.6,3.9,1.6,6.3
		C70,459.3,70.2,461.6,68.4,463.3z M66.3,452.9c-0.5-0.6-1.2-1-2.3-1h-2.3v10.2H64c1.1,0,1.8-0.3,2.3-1c0.6-0.7,0.7-1.8,0.7-4.2
		S66.8,453.6,66.3,452.9z"/>
	<path class="st4" d="M77.2,465c-2.6,0-4.9-1.3-5-4.6h2.9c0,1.4,1,2,2.1,2c1.2,0,2.1-0.8,2.1-2.2c0-1.3-0.8-2.2-2.2-2.2h-0.4v-2.5
		h0.4c1.4,0,2-0.9,2-2c0-1.3-0.9-2-1.9-2c-1.1,0-1.9,0.7-1.9,1.9h-2.9c0.1-2.8,2.2-4.5,4.8-4.5c2.8,0,4.8,1.8,4.8,4.5
		c0,1.7-0.8,2.7-1.8,3.2c1.1,0.6,2,1.7,2,3.6C82.2,463.4,79.9,465,77.2,465z"/>
</g>
<g>
	<path class="st5" d="M7.2,150.4c-0.4,1-1,2.3-1.5,3.1c-0.3-0.3-1-0.7-1.4-1c0.5-0.7,1-1.7,1.3-2.6L7.2,150.4z M9.4,149.7v4.8H7.3
		v-4.8H4.7v-1.8h2.6V147H4.6v-1.7h1.3c-0.1-0.4-0.2-0.9-0.3-1.2l1.2-0.3h-2V142h2.3c-0.1-0.4-0.2-0.8-0.3-1.1l2.2-0.5
		c0.2,0.5,0.4,1.1,0.6,1.6h2v1.7H9.9l1.1,0.2c-0.2,0.5-0.4,0.9-0.6,1.3h1.4v1.7H9.4v0.9h2.1v1.8H9.4V149.7z M7.2,143.7
		c0.1,0.4,0.3,0.9,0.4,1.2l-1.1,0.3h1.9c0.2-0.5,0.4-1,0.5-1.5H7.2L7.2,143.7z M18.5,147.4h-1.2v7.1h-2.1v-7.1h-1
		c0,2.2-0.2,5.3-1.4,7.2c-0.3-0.4-1.2-1-1.7-1.3c0.3-0.4,0.4-0.8,0.6-1.3l-1,0.6c-0.2-0.6-0.7-1.5-1.1-2.1l1.4-0.8
		c0.3,0.5,0.7,1,0.9,1.5c0.3-1.3,0.3-2.7,0.3-3.9V142c1.6-0.3,3.3-0.8,4.4-1.3l1.6,1.6c-1.2,0.5-2.7,0.9-4.1,1.1v2.1h4.3L18.5,147.4
		L18.5,147.4L18.5,147.4z"/>
	<path class="st5" d="M13,155.8c-0.1,0.1-0.1,0.2-0.2,0.3c1.3,1.1,3.7,2,6.1,2.4c-0.4,0.4-1,1.1-1.3,1.6c-0.2-0.1-0.5-0.1-0.7-0.2
		v3.9H6.2V160c-0.3,0.1-0.5,0.2-0.8,0.2c-0.2-0.4-0.8-1.3-1.1-1.7c2.8-0.6,5.4-1.8,6.7-3.5L13,155.8z M7,164.2h9v5.1h-2.2V169H9.1
		v0.4H7V164.2z M15.7,159.6c-0.5-0.2-1.1-0.5-1.6-0.7v0.4H8.8V159c-0.4,0.2-0.9,0.4-1.3,0.6H15.7L15.7,159.6z M8.6,162.6
		c-0.1-0.4-0.2-1-0.3-1.4l1-0.2H8v1.7h0.6V162.6z M9.1,165.5v0.4h4.6v-0.4H9.1z M13.8,167.6v-0.4H9.1v0.4H13.8z M10.5,160.9H9.8
		c0.2,0.5,0.3,1,0.4,1.4l-0.8,0.2h1.2L10.5,160.9L10.5,160.9z M12.4,157.9c-0.3-0.2-0.6-0.4-0.8-0.7c-0.3,0.2-0.6,0.5-0.9,0.7H12.4z
		 M12.2,160.9v1.7h1l-0.8-0.2c0.2-0.4,0.3-1,0.4-1.5H12.2z M14.8,160.9h-1.1l0.9,0.2c-0.3,0.5-0.5,1.1-0.7,1.4h0.8
		C14.8,162.6,14.8,160.9,14.8,160.9z"/>
	<path class="st5" d="M15.1,181.5c1.3,0.4,2.6,0.8,3.5,1.2l-1.9,1.5c-1.2-0.5-3.2-1.3-4.8-1.7l1.4-1H9.5l1.2,0.9
		c-1.2,0.7-3.1,1.4-4.6,1.8c-0.4-0.4-1.1-1.1-1.6-1.5c1.2-0.2,2.5-0.7,3.5-1.1H6v-6.7h11v6.7L15.1,181.5L15.1,181.5z M16.5,174.4
		H6.6v-3.9h9.9V174.4z M8.1,176.6h6.7v-0.4H8.1V176.6z M8.1,178.3h6.7V178H8.1V178.3z M8.1,180.1h6.7v-0.4H8.1V180.1z M14.2,172.1
		H8.8v0.6h5.4C14.2,172.7,14.2,172.1,14.2,172.1z"/>
</g>
<g>
	<path class="st5" d="M9.3,511.5c0.8,0.2,1.7,0.3,2.8,0.3c1.4,0,5,0,6.6-0.1c-0.3,0.5-0.7,1.5-0.8,2.1h-5.8c-2.6,0-4.3-0.3-5.5-1.8
		c-0.1,0.8-0.3,1.5-0.6,2.1c-0.4-0.3-1.3-0.7-1.7-0.9c0.7-1.5,0.8-3.9,0.8-6.4l1.9,0.1c0,0.7,0,1.3-0.1,2c0.2,0.5,0.4,0.9,0.6,1.2
		v-3.9H4.7v-1.9h2.4v-1.1H5v-1.8h2.1v-1.3h2v1.3h2v1.8h-2v1.1h2.2v0.2c0.8-0.5,1.3-1.3,1.5-2.2h-1.3v-1.8H18c0,0,0,0.5,0,0.7
		c-0.1,2.4-0.2,3.5-0.6,3.9c-0.3,0.4-0.7,0.5-1.1,0.6s-1,0.1-1.7,0.1c0-0.5-0.2-1.3-0.5-1.8c-0.4,0.9-1,1.5-1.8,2
		c-0.2-0.2-0.7-0.6-1.2-0.9v1.1h-2v1.3h1.8v1.8H9.3V511.5z M11.8,506.3h5.9v4.7h-5.9C11.8,511,11.8,506.3,11.8,506.3z M13.8,509.3
		h1.8V508h-1.8V509.3z M14.8,502.4c-0.1,0.6-0.3,1.2-0.6,1.7c0.5,0,0.8,0,1.1,0c0.2,0,0.3,0,0.4-0.1c0.1-0.2,0.2-0.6,0.3-1.6H14.8
		L14.8,502.4z"/>
	<path class="st5" d="M5.2,521c-0.1-0.4-0.4-1.3-0.7-1.9c0.3-0.1,0.6-0.3,0.9-0.8c0.3-0.4,1.2-2,1.7-3.5l2,0.8
		c-0.5,1.1-1.2,2.3-1.8,3.3h0.8c0.4-0.6,0.8-1.3,1-1.9l1.8,1.1c-0.6,1-1.3,2.1-2.1,3l1.2-0.5c0.5,0.9,0.9,2.1,1,2.9l-1.5,0.6
		c0-0.2-0.1-0.4-0.1-0.6c-3,0.5-3.6,0.7-3.9,0.9c-0.1-0.4-0.4-1.4-0.7-1.9c0.4-0.1,0.8-0.4,1.3-1c0.2-0.2,0.4-0.5,0.8-0.9
		C5.7,520.8,5.4,520.8,5.2,521C5.2,520.9,5.2,521,5.2,521z M6.7,525.1c-0.1,1.3-0.3,2.7-0.6,3.6c-0.4-0.2-1.2-0.4-1.6-0.5
		c0.3-0.8,0.5-2.2,0.5-3.4L6.7,525.1z M8.2,524.7c0.2,0.9,0.3,2.2,0.4,3L7.1,528c0-0.8-0.1-2.1-0.3-3L8.2,524.7z M8.7,521.9
		c-0.1-0.2-0.2-0.5-0.3-0.7c-0.2,0.3-0.5,0.6-0.7,0.8L8.7,521.9z M18.3,520c-0.3,2.3-1,4.2-1.9,5.7c0.6,0.6,1.3,1,2.1,1.4
		c-0.5,0.4-1.1,1.2-1.4,1.8c-0.7-0.4-1.4-0.9-1.9-1.4c-0.6,0.6-1.2,1.1-1.8,1.6c-0.3-0.5-0.8-1.1-1.2-1.5c-0.2,0.5-0.4,1-0.7,1.4
		c-0.3-0.3-1.3-1.1-1.8-1.4c0.2-0.3,0.3-0.5,0.5-0.8L9,527.1c-0.1-0.6-0.4-1.6-0.6-2.4l1.4-0.5c0.2,0.6,0.4,1.3,0.6,1.8
		c0.9-2.2,1-5.2,1-8.6h-1.1v-2h4.9l0.3-0.1l1.5,0.2c-0.1,1.3-0.4,2.8-0.6,4h0.2l0.4-0.1L18.3,520z M13.9,525.7
		c-0.3-0.5-0.6-1.1-0.9-1.8c-0.2,1.2-0.4,2.3-0.8,3.3C12.8,526.8,13.4,526.3,13.9,525.7z M13.5,517.5c0,0.7,0,1.4-0.1,2.1h1
		c0.1-0.7,0.3-1.4,0.4-2.1H13.5z M14.1,521.5c0.3,0.8,0.6,1.6,1,2.4c0.4-0.7,0.7-1.5,0.9-2.4H14.1z"/>
	<path class="st5" d="M13,530.2c-0.1,0.1-0.1,0.2-0.2,0.3c1.3,1.1,3.7,2,6.1,2.4c-0.4,0.4-1,1.1-1.3,1.6c-0.2-0.1-0.5-0.1-0.7-0.2
		v3.9H6.2v-3.8c-0.3,0.1-0.5,0.2-0.8,0.2c-0.2-0.4-0.8-1.3-1.1-1.7c2.8-0.6,5.4-1.8,6.7-3.5L13,530.2z M7,538.5h9v5.1h-2.2v-0.3H9.1
		v0.4H7V538.5z M15.7,534c-0.5-0.2-1.1-0.5-1.6-0.7v0.4H8.8v-0.2c-0.4,0.2-0.9,0.4-1.3,0.6L15.7,534L15.7,534z M8.6,536.9
		c-0.1-0.4-0.2-1-0.3-1.4l1-0.3H8v1.7H8.6z M9.1,539.9v0.4h4.6v-0.4H9.1z M13.8,542v-0.4H9.1v0.4H13.8z M10.5,535.2H9.8
		c0.2,0.5,0.3,1,0.4,1.4l-0.8,0.2h1.2L10.5,535.2L10.5,535.2z M12.4,532.2c-0.3-0.2-0.6-0.4-0.8-0.7c-0.3,0.2-0.6,0.5-0.9,0.7H12.4z
		 M12.2,535.2v1.7h1l-0.8-0.2c0.2-0.4,0.3-1,0.4-1.5H12.2z M14.8,535.2h-1.1l0.9,0.2c-0.3,0.5-0.5,1.1-0.7,1.4h0.8v-1.6L14.8,535.2
		L14.8,535.2z"/>
	<path class="st5" d="M15.1,555.8c1.3,0.4,2.6,0.8,3.5,1.2l-1.9,1.5c-1.2-0.5-3.2-1.3-4.8-1.7l1.4-1H9.5l1.2,0.9
		c-1.2,0.7-3.1,1.4-4.6,1.8c-0.4-0.4-1.1-1.1-1.6-1.5c1.2-0.2,2.5-0.7,3.5-1.1H6v-6.7h11v6.7L15.1,555.8L15.1,555.8z M16.5,548.8
		H6.6v-3.9h9.9V548.8z M8.1,551h6.7v-0.4H8.1V551z M8.1,552.7h6.7v-0.4H8.1V552.7z M8.1,554.4h6.7V554H8.1V554.4z M14.2,546.5H8.8
		v0.6h5.4C14.2,547.1,14.2,546.5,14.2,546.5z"/>
</g>
<g>
	<path class="st6" d="M276.2,152.9c0,0,0,0.3,0,0.4c-0.1,2.6-0.2,3.6-0.5,3.9c-0.2,0.3-0.4,0.3-0.8,0.4c-0.3,0-0.8,0-1.3,0
		c0-0.3-0.1-0.7-0.3-1c0.5,0,0.9,0,1.1,0s0.3,0,0.4-0.1c0.2-0.2,0.3-0.9,0.3-2.7h-1.6c-0.2,1.8-0.7,3.2-2.5,4.1
		c-0.1-0.2-0.3-0.6-0.6-0.7l-0.4,0.2c0-0.2-0.1-0.4-0.2-0.6c-2.5,0.7-2.9,0.8-3.1,1l0,0c-0.1-0.2-0.4-0.7-0.6-0.8
		c0.2-0.2,0.5-0.5,0.5-1.1v-2.5c1.2-0.3,2.5-0.6,3.4-1l0.7,0.8c-0.9,0.3-2,0.6-3,0.8v2.3l1.7-0.4c-0.2-0.4-0.4-0.8-0.6-1.1l0.9-0.4
		c0.5,0.8,1.1,1.8,1.3,2.5c1.1-0.7,1.4-1.7,1.5-3h-1.3v-1L276.2,152.9L276.2,152.9z M267.2,158.2h8.1v5h-1.2v-0.4h-5.8v0.4h-1.1
		V158.2L267.2,158.2z M268.3,159.1v1h2.4v-1H268.3z M270.7,162v-1h-2.4v1H270.7z M274.1,159.1h-2.4v1h2.4V159.1z M274.1,162v-1h-2.4
		v1H274.1z"/>
	<path class="st6" d="M281.7,154.8c-0.2,0.4-0.4,0.8-0.6,1.2h5.7v6c0,0.6-0.1,0.9-0.6,1.1c-0.4,0.2-1.1,0.2-2.1,0.2
		c0-0.3-0.2-0.8-0.3-1.1c0.7,0,1.4,0,1.6,0s0.3-0.1,0.3-0.2v-1h-4.8c-0.2,0.9-0.6,1.8-1.3,2.4c-0.1-0.3-0.6-0.7-0.8-0.9
		c1-0.9,1.1-2.2,1.1-3.3v-1.4c-0.5,0.6-1.1,1.1-1.7,1.6c-0.2-0.3-0.5-0.6-0.7-0.9c1.3-0.9,2.3-2.2,3.1-3.7h-2.8v-1h3.3
		c0.2-0.5,0.4-1,0.5-1.5l1.1,0.3c-0.1,0.4-0.3,0.8-0.4,1.2h6v1L281.7,154.8L281.7,154.8z M285.7,160v-1H281v0.2c0,0.3,0,0.6,0,0.8
		H285.7z M285.7,157H281v1h4.7V157z"/>
	<path class="st6" d="M296.6,154.1c0,0.1,0,0.2,0,0.3c0.6,0.7,1.9,1.1,3.5,1.2c-0.2,0.2-0.5,0.6-0.6,0.9c-1.4-0.2-2.5-0.6-3.2-1.3
		c-0.4,0.6-1.4,1.1-3.4,1.4c-0.1-0.3-0.4-0.6-0.6-0.8h-3v-0.9h3.5v0.8c2.6-0.3,2.9-1,2.9-1.5V154h-1c-0.3,0.4-0.6,0.8-0.9,1.1
		c-0.2-0.2-0.6-0.4-0.8-0.6c0.6-0.5,1.1-1.4,1.4-2.2l1,0.2c-0.1,0.2-0.1,0.4-0.2,0.6h3.7h0.2l0.8,0.3c-0.3,0.6-0.7,1.3-1,1.8
		l-0.9-0.3c0.2-0.2,0.3-0.5,0.5-0.8h-1.7H296.6L296.6,154.1z M296.5,161.3c1.2,0.4,2.6,0.9,3.4,1.3l-1,0.6c-0.7-0.4-2-0.9-3.2-1.4
		l0.7-0.6h-3.6l1,0.5c-1,0.6-2.5,1.2-3.7,1.5c-0.2-0.2-0.6-0.6-0.8-0.8c1.2-0.2,2.6-0.6,3.5-1.1h-1.9v-4.8h7.8v4.8H296.5
		L296.5,161.3z M292.4,153.8h-2.9V153h2.9V153.8z M291.8,157.9h5.6v-0.7h-5.6V157.9z M291.8,159.2h5.6v-0.7h-5.6V159.2z
		 M291.8,160.6h5.6v-0.7h-5.6V160.6z"/>
	<path class="st6" d="M302.7,158.2c-0.2,1.3-0.7,3-1.4,3.9c-0.1-0.4-0.3-0.9-0.5-1.3c0.5-0.7,1-1.9,1.2-2.9L302.7,158.2z
		 M304.3,157.9c0.3,0.3,1.1,1.9,1.3,2.3l-0.8,0.9c-0.2-0.6-0.7-1.8-1-2.4v4.7h-1v-6h-1.9v-1h1.9v-4h1v4h1.9v1h-1.9v1L304.3,157.9z
		 M301.5,155.9c0-0.7-0.3-1.8-0.6-2.7l0.8-0.2c0.3,0.9,0.6,2,0.7,2.7L301.5,155.9z M305.7,153.2c-0.3,0.9-0.7,2-1,2.7l-0.7-0.2
		c0.3-0.7,0.6-1.9,0.7-2.7L305.7,153.2z M310.4,160v3.3h-1v-3.1l-3.6,0.6l-0.2-1l3.7-0.7v-6.8h1v6.6l1.3-0.2l0.2,1L310.4,160z
		 M307.8,158.2c-0.4-0.4-1.3-1.1-2-1.4l0.5-0.8c0.7,0.4,1.6,0.9,2,1.4L307.8,158.2z M308.3,155.3c-0.4-0.5-1.2-1.1-1.9-1.5l0.6-0.8
		c0.7,0.4,1.5,1,1.9,1.5L308.3,155.3z"/>
	<path class="st6" d="M316.8,158.8l-1,0.9c-0.8-0.9-1.8-2-2.6-2.7l1-0.9C315,156.8,316.1,157.9,316.8,158.8z"/>
	<path class="st6" d="M267.9,172.2c-0.5-0.3-1.5-0.9-2.2-1.3l0.6-0.8c0.7,0.3,1.7,0.9,2.2,1.2L267.9,172.2z M266,176.8
		c0.6-0.9,1.6-2.4,2.3-3.8l0.8,0.7c-0.6,1.2-1.4,2.7-2.1,3.8L266,176.8z M268.5,168.9c-0.5-0.3-1.5-0.9-2.2-1.3l0.6-0.8
		c0.7,0.3,1.7,0.9,2.2,1.2L268.5,168.9z M273.5,171.2v1.8h2.5v4.6h-1.1v-0.4h-4v0.5h-1V173h2.5v-1.8h-3.3v-1.1h3.3v-1.7
		c-0.8,0.1-1.7,0.2-2.5,0.3c0-0.3-0.2-0.7-0.3-0.9c2.1-0.2,4.4-0.6,5.7-1.1l0.9,0.9c-0.8,0.3-1.7,0.5-2.7,0.7v1.9h3.2v1.1
		L273.5,171.2L273.5,171.2z M274.9,174h-4v2.2h4V174z"/>
	<path class="st6" d="M288.1,169.4c0,0,0,0.4,0,0.5c-0.1,5-0.2,6.7-0.6,7.2c-0.2,0.4-0.5,0.5-0.9,0.5s-0.9,0-1.5,0
		c0-0.3-0.1-0.8-0.3-1.1c0.6,0,1,0,1.3,0c0.2,0,0.3,0,0.4-0.2c0.3-0.3,0.4-1.9,0.5-6h-1.4c-0.2,3.2-0.7,5.7-2.8,7.3
		c-0.2-0.3-0.5-0.6-0.8-0.8c0.1,0,0.1-0.1,0.2-0.2c-1.7,0.2-3.5,0.4-4.7,0.5l-0.1-0.9c0.7,0,1.6-0.1,2.5-0.2v-0.9h-2.2v-0.8h2.2
		v-0.6h-2.1v-3.6h2.1v-0.6h-2.5v-0.8h2.5V168c-0.7,0.1-1.5,0.1-2.1,0.1c0-0.2-0.2-0.6-0.3-0.8c1.8-0.1,3.9-0.3,5.1-0.6l0.5,0.8
		c-0.6,0.1-1.4,0.3-2.3,0.3v0.8h2.4v0.7h1.3c0-0.8,0-1.7,0-2.6h1.1c0,0.9,0,1.8,0,2.6L288.1,169.4L288.1,169.4L288.1,169.4z
		 M278.7,171.6h1.2v-0.7h-1.2V171.6z M279.9,173v-0.7h-1.2v0.7H279.9z M280.9,176c0.7-0.1,1.5-0.1,2.3-0.2c1-1.4,1.3-3.2,1.4-5.4
		h-1.3v-0.9h-2.4v0.6h2.2v3.6h-2.2v0.6h2.3v0.8h-2.3V176L280.9,176z M282.2,171.6v-0.7h-1.3v0.7H282.2z M280.9,172.3v0.7h1.3v-0.7
		H280.9z"/>
	<path class="st6" d="M298.8,177.7h-1.2v-0.6h-4.9v0.6h-1.1v-3.8c-0.6,0.2-1.3,0.4-1.9,0.5c-0.1-0.3-0.4-0.8-0.6-1
		c1.5-0.3,3-0.8,4.4-1.5c-0.5-0.5-1.4-1.2-2.1-1.8c-0.4,0.3-0.8,0.5-1.2,0.7c-0.2-0.3-0.5-0.7-0.8-0.9c1.9-0.9,3.3-2.1,4-3.3
		l1.3,0.3c-0.2,0.3-0.5,0.6-0.7,1h3.9l0.2-0.1l0.8,0.5c-0.9,1.8-2.5,3.2-4.3,4.3h4.4L298.8,177.7L298.8,177.7z M292.9,168.9
		c-0.2,0.2-0.4,0.4-0.6,0.6c0.8,0.5,1.7,1.3,2.2,1.8c1-0.7,1.9-1.4,2.6-2.4L292.9,168.9L292.9,168.9z M297.6,176.1v-2.5h-4.9v2.5
		H297.6z"/>
	<path class="st6" d="M311.6,176.1h-4.8v1.6h-1.1v-1.6H301v-1h4.7v-0.8h-3.5V170h8.3v4.3h-3.7v0.8h4.8L311.6,176.1L311.6,176.1z
		 M305.9,169.5h-4.1v-2.4h4.1V169.5z M304.8,167.8h-2v0.9h2V167.8z M303.3,171.7h2.4v-0.8h-2.4V171.7z M305.7,173.4v-0.9h-2.4v0.9
		H305.7z M310.8,169.5h-4.1v-2.4h4.1V169.5z M309.4,170.9h-2.6v0.8h2.6V170.9z M309.4,172.6h-2.6v0.9h2.6V172.6z M309.8,167.8h-2
		v0.9h2V167.8z"/>
	<path class="st6" d="M322.5,173.6c-0.4-0.4-1.1-1-1.7-1.6c-0.3,0.5-0.6,0.9-0.9,1.2c-0.2-0.2-0.6-0.4-0.9-0.6
		c1.1,1.5,2.9,2.8,4.7,3.5c-0.3,0.2-0.6,0.7-0.8,1c-1.6-0.7-3-1.9-4.2-3.3v3.8h-1.2v-3.8c-1.1,1.4-2.6,2.6-4.1,3.3
		c-0.2-0.3-0.5-0.7-0.8-0.9c1.9-0.8,3.9-2.4,4.9-4v-2.9H313v-1.1h4.5v-1.6h1.2v1.6h4.6v1.1h-4.6v2.8c0.1,0.2,0.2,0.3,0.3,0.5
		c0.8-0.7,1.4-1.8,1.6-3.1l1.1,0.2c-0.1,0.5-0.2,0.9-0.4,1.3c0.7,0.6,1.6,1.3,2.1,1.7L322.5,173.6z M316,169.7
		c-0.1,0.5-0.3,0.9-0.4,1.4c0.5,0.4,1,0.9,1.3,1.2l-0.8,0.8c-0.2-0.3-0.6-0.6-1-1c-0.4,0.7-0.9,1.3-1.5,1.8
		c-0.2-0.2-0.6-0.6-0.9-0.7c1.1-0.8,1.8-2.1,2.1-3.6L316,169.7z"/>
	<path class="st6" d="M326.1,172c-0.4-0.3-1.3-0.9-2-1.3l0.6-0.8c0.6,0.3,1.5,0.8,2,1.2L326.1,172z M327,173.7
		c-0.5,1.2-1.1,2.7-1.6,3.8l-1-0.6c0.5-0.9,1.2-2.5,1.8-3.8L327,173.7z M326.7,168.9c-0.4-0.3-1.3-0.9-2-1.3l0.7-0.8
		c0.6,0.3,1.5,0.9,2,1.2L326.7,168.9z M328.8,170.5c0,2.1-0.2,5.1-1.6,7.1c-0.2-0.2-0.7-0.5-0.9-0.6c1.3-1.9,1.5-4.6,1.5-6.5v-3.3
		h7.3v1h-6.2L328.8,170.5L328.8,170.5z M330.7,174.5c-0.4,0.9-1,1.8-1.5,2.4c-0.2-0.1-0.6-0.4-0.9-0.5c0.5-0.6,1-1.4,1.3-2.2
		L330.7,174.5z M332.5,173.7v2.9c0,0.5-0.1,0.8-0.4,0.9c-0.3,0.2-0.9,0.2-1.7,0.2c0-0.3-0.2-0.7-0.3-1c0.5,0,1,0,1.1,0
		s0.2,0,0.2-0.2v-2.9h-2v-4.2h1.7c0.1-0.4,0.3-0.8,0.3-1.1l1.2,0.2c-0.2,0.3-0.3,0.6-0.5,0.9h2.5v4.2L332.5,173.7L332.5,173.7z
		 M330.4,171.2h3.2v-0.9h-3.2V171.2z M330.4,172.9h3.2V172h-3.2V172.9z M334,174.2c0.4,0.7,1,1.7,1.3,2.3l-1,0.4
		c-0.3-0.6-0.8-1.6-1.2-2.4L334,174.2z"/>
</g>
<g>
	<path class="st6" d="M268.1,250.7h2.1v0.9h-4.5v-0.9h2.2c-0.1-0.4-0.5-1-0.8-1.4l0.8-0.4c0.3,0.4,0.7,1,0.8,1.5L268.1,250.7z
		 M266.2,254.1h3.8v0.9h-3.8V254.1z M269.9,252.4v0.9h-3.6v-0.9H269.9z M269.9,259.1h-2.6v0.6h-1v-3.9h3.6V259.1L269.9,259.1z
		 M267.4,256.6v1.7h1.5v-1.7H267.4z M276.7,258.3v1.1h-6.4v-1.1h2.5v-2.8h-2.1v-1h2.1v-2.3h-2.3v-1h2.7c-0.2-0.5-0.7-1.3-1.1-1.8
		l0.9-0.5c0.5,0.5,1,1.3,1.2,1.8l-0.8,0.5h3.1v1H274v2.3h2.2v1H274v2.8H276.7z"/>
	<path class="st6" d="M288.4,254.9h-1.1v3.7c0,0.5-0.1,0.9-0.4,1.1s-0.8,0.2-1.5,0.2c0-0.3-0.2-0.8-0.3-1.1c0.4,0,0.9,0,1,0
		s0.2-0.1,0.2-0.2V255h-1.6v4.8h-1V255h-1.5v4.8h-1V255h-1.5v5h-1.1v-5h-1.2v-1.1h1.2v-4.3h8.8v4.3h1.1L288.4,254.9L288.4,254.9z
		 M281.1,253.8v-3.2h-1.5v3.2H281.1z M283.6,253.8v-3.2h-1.5v3.2H283.6z M286.2,253.8v-3.2h-1.6v3.2H286.2z"/>
	<path class="st6" d="M294.7,258c-1.8,0.4-3.8,0.8-5.1,1.1l-0.2-1.1c1.3-0.2,3.3-0.6,5.3-1L294.7,258z M299.4,252.8
		c-0.5,1.6-1.2,3-2.1,4.2c0.4,1.1,0.8,1.7,1.3,1.7c0.3,0,0.4-0.6,0.5-2.2c0.2,0.3,0.6,0.5,1,0.6c-0.2,2.1-0.6,2.7-1.6,2.7
		c-0.8,0-1.5-0.7-2-1.8c-0.7,0.7-1.4,1.4-2.2,1.9c-0.2-0.2-0.6-0.7-0.9-0.9c1-0.6,1.9-1.3,2.7-2.2c-0.4-1.4-0.7-3.2-0.8-5h-5.8v-1.1
		h5.7c0-0.6,0-1.2-0.1-1.8h1.2c0,0.6,0,1.2,0,1.8h2.4c-0.4-0.4-1.2-0.8-1.8-1.1l0.7-0.7c0.7,0.3,1.5,0.8,2,1.2l-0.6,0.6h0.9v1.1
		h-3.5c0.1,1.4,0.3,2.7,0.6,3.8c0.6-0.9,1-1.9,1.4-3.1L299.4,252.8z M294.3,252.7v3.7H290v-3.7H294.3z M293.2,253.7h-2.1v1.8h2.1
		V253.7z"/>
	<path class="st6" d="M271.2,265.4c0,0,0,0.4,0,0.6c-0.2,5.1-0.4,6.9-0.8,7.5c-0.3,0.3-0.5,0.5-0.9,0.5c-0.3,0-0.8,0-1.3,0
		c0-0.3-0.1-0.8-0.3-1.1c0.5,0,0.9,0,1.1,0s0.3,0,0.4-0.2c0.3-0.4,0.5-1.9,0.7-6.2h-1.5c-0.1,3-0.6,5.9-2,7.7
		c-0.2-0.3-0.6-0.6-0.9-0.8c1.3-1.6,1.7-4.2,1.8-7H266v-1.1h1.6c0-0.7,0-1.4,0-2.1h1.1c0,0.7,0,1.4,0,2.1L271.2,265.4L271.2,265.4z
		 M276.2,264.7v9.3H275v-0.8h-2v0.9h-1.1v-9.4H276.2L276.2,264.7z M275,272.1v-6.4h-2v6.4H275z"/>
	<path class="st6" d="M283.6,263.9c0,2.2,0.3,6.6,4.8,9.3c-0.3,0.2-0.7,0.7-0.9,0.9c-2.7-1.6-4-4.1-4.6-6.3c-0.9,2.9-2.4,5-4.6,6.3
		c-0.2-0.2-0.7-0.7-1-0.9c2.6-1.3,4-3.7,4.7-6.9l0.6,0.1c-0.1-0.5-0.1-1-0.2-1.4h-2.9v-1.1H283.6L283.6,263.9z"/>
	<path class="st6" d="M295.4,263.5c-0.1,0.1-0.1,0.2-0.2,0.2c1.1,1,3.1,1.9,5,2.3c-0.2,0.2-0.5,0.6-0.7,0.9
		c-0.3-0.1-0.6-0.2-0.9-0.3v3.1h-8.1v-3c-0.3,0.1-0.6,0.2-0.9,0.3c-0.1-0.2-0.4-0.7-0.6-0.9c2.2-0.6,4.3-1.6,5.4-3L295.4,263.5z
		 M298.6,266.7c-0.6-0.2-1.3-0.5-1.9-0.9v0.3h-4.1v-0.3c-0.6,0.3-1.1,0.6-1.7,0.8h7.7V266.7z M291.2,270.3h6.8v3.9h-1.1v-0.3h-4.6
		v0.4h-1.1L291.2,270.3L291.2,270.3z M292.9,267.5c0.3,0.4,0.5,1,0.6,1.3l-0.8,0.3h1.4v-1.7h-2.6v1.7h1.2c-0.1-0.4-0.3-0.9-0.6-1.3
		L292.9,267.5z M292.3,271v0.7h4.6V271H292.3z M296.9,273.1v-0.7h-4.6v0.7H296.9z M296,265.4c-0.5-0.3-0.9-0.6-1.3-1
		c-0.4,0.4-0.8,0.7-1.3,1H296z M297.7,267.4H295v1.7h1.3l-0.7-0.2c0.2-0.4,0.5-1,0.6-1.4l0.9,0.3c-0.3,0.5-0.5,1-0.7,1.4h1.3
		L297.7,267.4L297.7,267.4z"/>
	<path class="st6" d="M308.3,272.2c1.2,0.3,2.6,0.9,3.5,1.2l-1,0.8c-0.9-0.4-2.5-1-3.8-1.4l0.9-0.6h-3.5l0.8,0.6
		c-1,0.6-2.5,1.1-3.7,1.5c-0.2-0.2-0.6-0.6-0.8-0.8c1.1-0.3,2.5-0.8,3.3-1.2h-2V267h8.6v5.2H308.3L308.3,272.2z M310.1,266.5h-7.6
		v-2.8h7.6V266.5z M303.1,268.5h6.3v-0.7h-6.3V268.5z M303.1,270h6.3v-0.7h-6.3V270z M303.1,271.4h6.3v-0.7h-6.3V271.4z M309,264.6
		h-5.3v1h5.3V264.6z"/>
</g>
<g>
	<path class="st6" d="M275.1,454.1c0.4,0,0.5-0.2,0.5-1.5c0.3,0.2,0.7,0.4,1,0.4c-0.1,1.7-0.4,2.1-1.4,2.1h-1.7
		c-1.2,0-1.5-0.3-1.5-1.4V451h-1.9c-0.2,2.4-0.8,3.7-3.8,4.3c-0.1-0.3-0.4-0.7-0.6-0.9c2.7-0.5,3.1-1.4,3.2-3.4h-3.1v-1h10.6v1h-3.3
		v2.7c0,0.4,0.1,0.4,0.5,0.4H275.1L275.1,454.1z M267.3,448.4h-1.1v-2.8h4.5c-0.1-0.4-0.3-0.8-0.5-1.1l1.1-0.3
		c0.3,0.4,0.5,1,0.7,1.4h4.2v2.8H275v-1.7h-7.7V448.4L267.3,448.4z M268,448.8v-1h6.3v1H268z"/>
	<path class="st6" d="M287.6,448.4c-0.5,1.5-1.2,2.9-2.1,4.1c0.4,1,0.9,1.6,1.4,1.6c0.3,0,0.5-0.6,0.5-2.2c0.3,0.3,0.7,0.5,1,0.6
		c-0.2,2.1-0.6,2.7-1.6,2.7c-0.9,0-1.6-0.7-2.1-1.8c-0.7,0.7-1.4,1.3-2.3,1.8c-0.2-0.2-0.6-0.7-0.8-0.9c1-0.6,1.9-1.2,2.6-2.1
		c-0.4-1.4-0.7-3.1-0.9-4.9h-3.8v1.5h3v0.4c-0.1,2.6-0.1,3.6-0.4,4c-0.2,0.3-0.4,0.3-0.8,0.4c-0.3,0-0.8,0-1.4,0
		c0-0.3-0.1-0.8-0.3-1c0.5,0,1,0.1,1.2,0.1s0.3,0,0.4-0.1c0.1-0.2,0.2-0.9,0.2-2.7h-1.9c0,1.7-0.2,4.1-1.3,5.6
		c-0.2-0.2-0.7-0.6-0.9-0.8c1-1.4,1-3.5,1-5v-3.4h4.9c0-0.6-0.1-1.3-0.1-1.9h1.2c0,0.6,0,1.3,0,1.9h2.3c-0.5-0.4-1.2-0.9-1.9-1.3
		l0.7-0.7c0.7,0.4,1.6,0.9,2.1,1.3l-0.6,0.6h1.2v1.1h-3.8c0.1,1.4,0.3,2.7,0.6,3.8c0.6-0.9,1-1.9,1.4-3L287.6,448.4z"/>
	<path class="st6" d="M289.1,453.6c2.6-2.3,3.9-4,3.9-5.5c0-1-0.5-1.6-1.5-1.6c-0.7,0-1.3,0.4-1.7,1l-0.8-0.8
		c0.8-0.8,1.5-1.3,2.7-1.3c1.6,0,2.7,1.1,2.7,2.6c0,1.7-1.4,3.5-3.2,5.3c0.5,0,1-0.1,1.4-0.1h2.2v1.2h-5.7V453.6L289.1,453.6z"/>
	<path class="st6" d="M299.5,452.1h-3.8V451h3.8V452.1z M299.2,447.2H296v-1.1h3.2V447.2z M302.9,448.8c0,0.1,0,0.2,0,0.4
		c0.5,2.4,1.6,4.3,3.8,5.1c-0.3,0.2-0.6,0.7-0.8,1c-1.7-0.7-2.7-2-3.4-3.8c-0.5,1.4-1.5,2.8-3.6,3.9c-0.2-0.3-0.6-0.7-0.8-0.9
		c3.3-1.6,3.6-4,3.6-5.7v-1h1.2L302.9,448.8L302.9,448.8z M300.9,447.4c-0.4,1-0.8,1.8-1.3,2.5c-0.3-0.2-0.8-0.5-1.1-0.6
		c1-1.1,1.6-3,2-4.9l1.2,0.2c-0.1,0.6-0.3,1.2-0.4,1.7h4l0.2-0.1l0.8,0.5c-0.3,1.2-0.8,2.5-1.2,3.3c-0.2-0.1-0.7-0.4-0.9-0.5
		c0.3-0.5,0.6-1.4,0.8-2.1H300.9L300.9,447.4z"/>
	<path class="st6" d="M312.4,451.9c-1.6,0.7-3.4,1.5-4.7,2.1l-0.4-1.2c0.5-0.2,1-0.4,1.6-0.6l-0.2-7.2h1.2l0.2,6.8
		c0.7-0.3,1.4-0.6,2.1-0.9L312.4,451.9z M317.5,455.3c-0.5-0.8-1.5-2-2.5-3c-0.9,1.3-2.2,2.3-3.9,3.1c-0.2-0.2-0.6-0.8-0.9-1
		c4-1.5,5.2-4.4,5.7-9.4l1.2,0.1c-0.3,2.5-0.7,4.5-1.5,6.1c1,1.1,2.2,2.3,2.8,3.2L317.5,455.3z M313,449.2c-0.3-0.8-1.1-2.1-1.8-2.9
		l1-0.5c0.8,0.9,1.5,2,1.9,2.9L313,449.2z"/>
	<path class="st6" d="M329.9,453.6v1.1h-10.7v-1.1h4.4v-9.1h1.2v3.6h4.3v1.1h-4.3v4.5L329.9,453.6L329.9,453.6z"/>
	<path class="st6" d="M274,464c-0.5,1.2-1.1,2.1-1.9,2.9c1.2,0.8,2.7,1.4,4.6,1.7c-0.2,0.2-0.5,0.7-0.7,1c-1.9-0.4-3.5-1-4.7-2
		c-1.3,1-2.9,1.6-4.7,2.1c-0.1-0.3-0.5-0.8-0.7-1c1.8-0.4,3.4-0.9,4.6-1.8c-0.8-0.8-1.4-1.8-1.8-2.9l1-0.3c0.4,1,0.9,1.8,1.7,2.5
		c0.7-0.7,1.3-1.5,1.7-2.6L274,464z M270,462.1c-0.8,1-2.1,2.1-3.1,2.8c-0.2-0.2-0.6-0.6-0.9-0.8c1.1-0.6,2.2-1.5,2.9-2.4L270,462.1
		z M276.3,461.4H266v-1.1h4.8c-0.2-0.4-0.5-0.9-0.7-1.4l1.1-0.4c0.3,0.5,0.7,1.2,0.9,1.6l-0.3,0.1h4.6L276.3,461.4L276.3,461.4z
		 M273.4,461.6c1.1,0.7,2.4,1.8,3.1,2.5l-0.9,0.7c-0.6-0.7-1.9-1.9-3-2.6L273.4,461.6z"/>
	<path class="st6" d="M287.7,464.8c0,0,0,0.3,0,0.5c-0.2,2.6-0.5,3.7-0.9,4.1c-0.3,0.3-0.5,0.3-0.9,0.4c-0.3,0-0.9,0-1.5,0
		c0-0.3-0.1-0.7-0.3-0.9c0.6,0.1,1.1,0.1,1.3,0.1c0.2,0,0.3,0,0.4-0.1c0.2-0.2,0.5-1,0.6-2.9h-1.3c-0.6,1.7-1.7,3.1-2.8,4
		c-0.2-0.2-0.6-0.5-0.9-0.7c1.1-0.8,1.9-2,2.5-3.3h-1.4c-0.9,1.5-2.2,2.8-3.6,3.7c-0.2-0.2-0.6-0.6-0.8-0.8c1.2-0.7,2.4-1.7,3.2-2.9
		h-1.4c-0.6,0.6-1.3,1.1-1.9,1.5c-0.2-0.2-0.6-0.6-0.9-0.8c1.1-0.6,2.2-1.5,3-2.6h-1.2v-4.7h7.7v4.7h-5.2c-0.2,0.3-0.4,0.6-0.6,0.9
		L287.7,464.8L287.7,464.8z M280.2,461.1h5.5v-1h-5.5V461.1z M280.2,463h5.5v-1h-5.5V463z"/>
	<path class="st6" d="M291.4,460.7h2.4v0.9h-4.6v-0.9H291.4c-0.2-0.4-0.6-1.1-0.9-1.6l0.9-0.4c0.3,0.5,0.7,1.1,0.9,1.6L291.4,460.7z
		 M289.7,462.3h3.7v0.9h-3.7V462.3z M289.7,463.9h3.7v0.9h-3.7V463.9z M293.4,469h-2.7v0.5h-1v-4.1h3.7V469L293.4,469z M290.7,466.4
		v1.7h1.7v-1.7H290.7z M300.1,460.8h-1.7v7.4c0,0.7-0.2,1-0.6,1.2c-0.5,0.2-1.3,0.2-2.4,0.2c-0.1-0.3-0.3-0.8-0.4-1.1
		c0.9,0,1.8,0,2,0s0.3-0.1,0.3-0.3v-7.4H294v-1.1h6.1V460.8L300.1,460.8z"/>
	<path class="st6" d="M311.6,468.1h-4.8v1.6h-1.1v-1.6H301v-1h4.7v-0.8h-3.5V462h8.3v4.3h-3.7v0.8h4.8L311.6,468.1L311.6,468.1z
		 M305.9,461.5h-4.1v-2.4h4.1V461.5z M304.8,459.9h-2v0.9h2V459.9z M303.3,463.8h2.4V463h-2.4V463.8z M305.7,465.5v-0.9h-2.4v0.9
		H305.7z M310.8,461.5h-4.1v-2.4h4.1V461.5z M309.4,462.9h-2.6v0.8h2.6V462.9z M309.4,464.6h-2.6v0.9h2.6V464.6z M309.8,459.9h-2
		v0.9h2V459.9z"/>
</g>
<g class="st3">
	<path d="M31.6,52.9h-4v-10h3.9c1.8,0,3,1.1,3,2.7c0,1.1-0.7,1.8-1.3,2.1c0.8,0.3,1.5,1.1,1.5,2.3C34.6,51.9,33.4,52.9,31.6,52.9z
		 M31.3,44.3h-2.2v2.9h2.2c1,0,1.6-0.5,1.6-1.4S32.3,44.3,31.3,44.3z M31.4,48.5H29v3h2.4c1.1,0,1.6-0.6,1.6-1.5
		C33.1,49.1,32.5,48.5,31.4,48.5z"/>
	<path d="M41,52.9v-0.7c-0.5,0.5-1.2,0.8-1.9,0.8s-1.3-0.2-1.8-0.6c-0.5-0.5-0.7-1.2-0.7-2v-4.5H38v4.3c0,1.1,0.6,1.6,1.4,1.6
		c0.8,0,1.5-0.5,1.5-1.6v-4.3h1.4V53L41,52.9L41,52.9z"/>
	<path d="M46.9,53c-1.2,0-2.1-0.2-3-1l0.9-0.9c0.6,0.6,1.3,0.7,2,0.7c0.9,0,1.6-0.3,1.6-1c0-0.5-0.3-0.8-1-0.8l-1.1-0.1
		c-1.3-0.1-2.1-0.7-2.1-2c0-1.4,1.2-2.2,2.7-2.2c1.1,0,2,0.2,2.6,0.8l-0.9,0.9c-0.4-0.4-1.1-0.5-1.8-0.5c-0.9,0-1.3,0.4-1.3,0.9
		c0,0.4,0.2,0.7,1,0.8l1.1,0.1c1.3,0.1,2.1,0.7,2.1,2C49.9,52.2,48.6,53,46.9,53z"/>
	<path d="M51.6,44.4v-1.5h1.5v1.5H51.6z M51.6,52.9v-7.1H53v7.1H51.6z"/>
	<path d="M59.6,52.9v-4.3c0-1.1-0.6-1.6-1.4-1.6s-1.5,0.5-1.5,1.6v4.3h-1.4v-7.1h1.4v0.7c0.5-0.5,1.2-0.8,1.9-0.8s1.3,0.2,1.8,0.6
		c0.5,0.5,0.7,1.2,0.7,2v4.5C61.1,52.9,59.6,52.9,59.6,52.9z"/>
	<path d="M64.3,49.8c0,1.2,0.6,2,1.8,2c0.8,0,1.2-0.2,1.7-0.7l0.9,0.9c-0.7,0.6-1.4,1-2.6,1c-1.8,0-3.2-0.9-3.2-3.6
		c0-2.3,1.2-3.6,3-3.6c1.9,0,3,1.4,3,3.4v0.6L64.3,49.8L64.3,49.8z M67.3,47.8c-0.2-0.5-0.7-0.9-1.4-0.9s-1.2,0.4-1.4,0.9
		c-0.1,0.3-0.2,0.5-0.2,1h3.2C67.5,48.3,67.4,48.1,67.3,47.8z"/>
	<path d="M73.1,53c-1.2,0-2.1-0.2-3-1l0.9-1c0.6,0.6,1.3,0.7,2,0.7c0.9,0,1.6-0.3,1.6-1c0-0.5-0.3-0.8-1-0.8l-1.1-0.1
		c-1.3-0.1-2.1-0.7-2.1-2c0-1.4,1.2-2.2,2.7-2.2c1.1,0,2,0.2,2.6,0.8l-0.9,0.9c-0.4-0.4-1.1-0.5-1.8-0.5c-0.9,0-1.3,0.4-1.3,0.9
		c0,0.4,0.2,0.7,1,0.8l1.1,0.1c1.3,0.1,2.1,0.7,2.1,2C76.1,52.2,74.8,53,73.1,53z"/>
	<path d="M80,53c-1.2,0-2.1-0.2-3-1l1-1c0.6,0.6,1.3,0.7,2,0.7c0.9,0,1.6-0.3,1.6-1c0-0.5-0.3-0.8-1-0.8l-1.1-0.1
		c-1.3-0.1-2.1-0.7-2.1-2c0-1.4,1.2-2.2,2.7-2.2c1.1,0,2,0.2,2.6,0.8l-0.9,0.9c-0.4-0.4-1.1-0.5-1.8-0.5c-0.9,0-1.3,0.4-1.3,0.9
		c0,0.4,0.2,0.7,1,0.8l1.1,0.1c1.3,0.1,2.1,0.7,2.1,2C83,52.2,81.7,53,80,53z"/>
	<path d="M89.7,47v5.9h-1.4V47h-0.8v-1.1h0.8v-1.1c0-1,0.6-2,1.9-2h0.9V44h-0.6c-0.5,0-0.8,0.3-0.8,0.8v1h1.4V47H89.7L89.7,47z
		 M94.4,52.9c-1.4,0-1.9-0.9-1.9-2v-8h1.4v7.9c0,0.5,0.2,0.8,0.8,0.8h0.6v1.2C95.3,52.9,94.4,52.9,94.4,52.9z"/>
	<path d="M101.6,52.2c-0.5,0.5-1.2,0.8-2.1,0.8c-1,0-1.7-0.4-2.1-0.8c-0.7-0.7-0.8-1.6-0.8-2.8s0.2-2.1,0.8-2.8
		c0.5-0.5,1.1-0.8,2.1-0.8s1.7,0.4,2.1,0.8c0.7,0.7,0.8,1.6,0.8,2.8C102.4,50.6,102.2,51.5,101.6,52.2z M100.5,47.4
		c-0.3-0.3-0.6-0.4-1.1-0.4c-0.4,0-0.8,0.1-1,0.4c-0.4,0.4-0.5,1.2-0.5,1.9s0.1,1.5,0.5,1.9c0.3,0.3,0.6,0.4,1,0.4s0.8-0.2,1.1-0.4
		c0.4-0.4,0.5-1.2,0.5-1.9S100.9,47.8,100.5,47.4z"/>
	<path d="M111.2,52.9H110l-1.7-5l-1.7,5h-1.2l-2.2-7.1h1.5l1.4,5l1.7-5h1.1l1.6,5l1.4-5h1.5L111.2,52.9z"/>
</g>
</svg>
