<?xml version="1.0" encoding="utf-8"?>
<!-- Generator: Adobe Illustrator 16.2.1, SVG Export Plug-In . SVG Version: 6.00 Build 0)  -->
<!DOCTYPE svg PUBLIC "-//W3C//DTD SVG 1.1//EN" "http://www.w3.org/Graphics/SVG/1.1/DTD/svg11.dtd">
<svg version="1.1" id="Capa_1" xmlns="http://www.w3.org/2000/svg" xmlns:xlink="http://www.w3.org/1999/xlink" x="0px" y="0px"
	 width="100px" height="100px" viewBox="0 0 100 100" enable-background="new 0 0 100 100" xml:space="preserve">
<g>
	<g>
		<g>
			<path fill="#FFFFFF" d="M94.005,3.439H6.328c-3.397,0-6.161,2.765-6.161,6.162v68.272c0,3.398,2.764,6.164,6.161,6.164h29.654
				l-1.199,9.594h-4.97c-0.81,0-1.466,0.656-1.466,1.465c0,0.811,0.656,1.465,1.466,1.465h40.707c0.811,0,1.466-0.654,1.466-1.465
				c0-0.809-0.655-1.465-1.466-1.465h-4.97l-1.198-9.594h29.652c3.398,0,6.162-2.766,6.162-6.164V9.601
				C100.167,6.204,97.403,3.439,94.005,3.439z M37.735,93.631l1.2-9.594h5.391l0.529,2.115c0.61,2.441,2.795,4.146,5.311,4.146
				c2.518,0,4.704-1.705,5.314-4.146l0.528-2.115H61.4l1.197,9.594H37.735z M47.346,84.037h5.643l-0.351,1.404
				c-0.285,1.135-1.301,1.928-2.471,1.928s-2.185-0.793-2.469-1.928L47.346,84.037z M97.238,77.873L97.238,77.873
				c0,1.783-1.449,3.234-3.233,3.234H6.328c-1.782,0-3.232-1.451-3.232-3.234V9.601c0-1.782,1.45-3.232,3.232-3.232h87.677
				c1.784,0,3.233,1.45,3.233,3.232V77.873L97.238,77.873z"/>
		</g>
	</g>
	<g>
		<g>
			<path fill="#FFFFFF" d="M90.036,9.702H7.895c-0.81,0-1.466,0.655-1.466,1.464v65.143c0,0.809,0.656,1.465,1.466,1.465h12.641
				c0.809,0,1.465-0.656,1.465-1.465s-0.656-1.465-1.464-1.465H9.359V12.631h80.677c0.809,0,1.464-0.656,1.464-1.466
				C91.5,10.357,90.845,9.702,90.036,9.702z"/>
		</g>
	</g>
	<g>
		<g>
			<path fill="#FFFFFF" d="M92.439,9.702h-3.13c-0.811,0-1.466,0.655-1.466,1.464c0,0.81,0.655,1.466,1.466,1.466h1.666v62.212
				H17.288c-0.81,0-1.465,0.656-1.465,1.465s0.655,1.465,1.465,1.465h75.151c0.811,0,1.466-0.656,1.466-1.465V11.166
				C93.905,10.357,93.25,9.702,92.439,9.702z"/>
		</g>
	</g>
	<g>
		<g>
			<path fill="#FFFFFF" d="M72.823,29.592c-0.277-0.355-0.694-0.571-1.144-0.591l-36.287-1.65c-0.029-0.001-0.056-0.002-0.085-0.002
				c-0.215-0.704-0.669-1.315-1.284-1.725L29.58,22.66c-0.709-0.471-1.667-0.28-2.14,0.429c-0.472,0.71-0.28,1.667,0.428,2.14
				l4.445,2.962c0.021,0.014,0.034,0.035,0.043,0.06l5.659,19.812c0.177,0.617,0.468,1.172,0.841,1.652l-2.07,4.141
				c-0.5,0.996-0.447,2.158,0.139,3.105c0.212,0.344,0.482,0.637,0.791,0.873c-0.405,0.705-0.639,1.525-0.639,2.398
				c0,2.67,2.173,4.842,4.843,4.842s4.843-2.172,4.843-4.842c0-0.621-0.118-1.213-0.331-1.756h14.069
				c-0.213,0.543-0.33,1.135-0.33,1.756c0,2.67,2.171,4.842,4.842,4.842c2.67,0,4.842-2.172,4.842-4.842
				c0-0.775-0.186-1.508-0.51-2.156c0.312-0.283,0.51-0.689,0.51-1.145c0-0.852-0.69-1.541-1.545-1.541H39.639
				c-0.021,0-0.059,0-0.089-0.053c-0.032-0.049-0.015-0.082-0.004-0.102l1.907-3.816c0.389,0.102,0.793,0.154,1.206,0.154
				c0.19,0,0.384-0.01,0.579-0.033l21.684-2.551c2.802-0.33,5.054-2.41,5.607-5.174l2.593-12.971
				C73.211,30.403,73.101,29.945,72.823,29.592z M65.013,58.477c0.967,0,1.755,0.789,1.755,1.756c0,0.969-0.788,1.756-1.755,1.756
				c-0.969,0-1.757-0.787-1.757-1.756C63.256,59.266,64.044,58.477,65.013,58.477z M41.92,58.477c0.968,0,1.756,0.789,1.756,1.756
				c0,0.969-0.788,1.756-1.756,1.756s-1.755-0.787-1.755-1.756C40.165,59.266,40.952,58.477,41.92,58.477z M38.135,37.247
				l-1.934-6.769l6.17,0.28l1.07,6.489H38.135z M42.876,48.474c-0.86,0.102-1.654-0.43-1.893-1.26l-1.967-6.882h4.934l1.296,7.865
				L42.876,48.474z M51.922,47.41l-3.607,0.426l-1.236-7.503h4.844V47.41z M51.922,37.247h-5.353l-1.047-6.346l6.399,0.291V37.247z
				 M59.738,46.491l-4.729,0.556v-6.715h5.287L59.738,46.491z M60.575,37.247h-5.566v-5.914l6.077,0.274L60.575,37.247z
				 M67.501,43.21c-0.289,1.45-1.472,2.54-2.939,2.714l-1.692,0.198l0.524-5.79h4.685L67.501,43.21z M68.694,37.247h-5.021
				l0.499-5.498l5.571,0.253L68.694,37.247z"/>
		</g>
	</g>
</g>
</svg>
