<?xml version="1.0" encoding="utf-8"?>
<!-- Generator: Adobe Illustrator 16.2.1, SVG Export Plug-In . SVG Version: 6.00 Build 0)  -->
<!DOCTYPE svg PUBLIC "-//W3C//DTD SVG 1.1//EN" "http://www.w3.org/Graphics/SVG/1.1/DTD/svg11.dtd">
<svg version="1.1" id="Capa_1" xmlns="http://www.w3.org/2000/svg" xmlns:xlink="http://www.w3.org/1999/xlink" x="0px" y="0px"
	 width="100px" height="100px" viewBox="0 0 100 100" enable-background="new 0 0 100 100" xml:space="preserve">
<g>
	<path fill="#FFFFFF" d="M86.047,0H70.415c-1.896,0-1.896,2.938,0,2.938h15.632c4.452,0,8.075,3.609,8.075,8.046v34.001
		c0,4.437-3.623,8.046-8.075,8.046h-4.891c-0.322,0-0.636,0.106-0.893,0.302l-8.974,6.864v-5.697c0-0.811-0.657-1.469-1.469-1.469
		H51.939c-1.463,0-2.87-0.387-4.112-1.121V35.418c0-3.089-1.573-5.819-3.962-7.433V10.984c0-4.437,3.623-8.046,8.074-8.046h20.589
		c1.895,0,1.895-2.938,0-2.938H51.939c-6.071,0-11.013,4.928-11.013,10.984v15.709c-0.673-0.161-1.374-0.249-2.096-0.249H11.936
		c-4.959,0-8.995,4.025-8.995,8.973v14.153c0,1.895,2.938,1.895,2.938,0V35.418c0-3.328,2.719-6.035,6.058-6.035h26.896
		c3.341,0,6.059,2.707,6.059,6.035v17.078c-0.018,0.13-0.017,0.26,0,0.389v9.347c0,0.185-0.012,0.368-0.028,0.552h-3.029
		c-3.34,0-6.123,2.409-6.7,5.577c-0.133,0.05-0.262,0.119-0.38,0.212l-6.572,5.073v-3.91c0-0.812-0.656-1.47-1.468-1.47H11.936
		c-3.339,0-6.058-2.707-6.058-6.034V47.406c0-1.895-2.938-1.895-2.938,0v14.826c0,4.948,4.036,8.973,8.995,8.973h13.307v5.433
		c0,1.179,1.432,1.886,2.367,1.163l7.412-5.724v16.529c0,3.746,3.055,6.794,6.811,6.794h9.016v3.429
		c0,1.178,1.432,1.886,2.367,1.163l5.946-4.592h1.757c3.755,0,6.811-3.048,6.811-6.794V74.782c0-1.896-2.938-1.896-2.938,0v13.823
		c0,2.126-1.737,3.855-3.873,3.855H58.66c-0.325,0-0.641,0.108-0.897,0.306l-3.977,3.07V93.93c0-0.811-0.658-1.469-1.469-1.469
		H41.832c-2.136,0-3.873-1.729-3.873-3.855V69.577c0-2.126,1.737-3.855,3.873-3.855h19.086c2.135,0,3.873,1.729,3.873,3.855v7.213
		c0,1.895,2.938,1.895,2.938,0v-7.212c0-3.747-3.056-6.795-6.811-6.795H47.812c0.011-0.184,0.017-7.604,0.017-7.604
		c1.295,0.521,2.684,0.792,4.112,0.792h16.412v7.201c0,1.176,1.425,1.883,2.362,1.167l10.939-8.368h4.393
		c6.072,0,11.013-4.928,11.013-10.985V10.984C97.06,4.928,92.119,0,86.047,0L86.047,0z"/>
	<path fill="#FFFFFF" d="M72.664,10.854c-1.865-0.476-3.767,0.998-3.767,2.925c0,2.106-0.767,4.136-2.159,5.714l-4.048,4.58
		c-0.263-0.402-0.715-0.668-1.23-0.668h-7.903c-0.812,0-1.47,0.658-1.47,1.469v17.78c0,0.811,0.658,1.469,1.47,1.469h7.903
		c0.593,0,1.103-0.353,1.335-0.859c1.6,0.977,3.454,1.506,5.34,1.506h13.966c2.134,0,3.895-1.852,3.794-3.98
		c-0.044-0.942,0.005-13.6,0.005-13.881c0-2.095-1.705-3.799-3.795-3.799l-7.263-0.021l0.302-0.712
		c1.374-3.254,1.147-7.028-0.604-10.095C74.129,11.565,73.464,11.059,72.664,10.854C71.865,10.65,73.464,11.059,72.664,10.854
		C70.799,10.379,73.464,11.059,72.664,10.854L72.664,10.854z M59.989,41.187h-4.963V26.345h4.963V41.187z M82.101,26.05
		c0.475,0,0.86,0.386,0.86,0.86c0,0.28-0.003,1.038-0.007,2.067c-0.022,5.68-0.036,11.059,0.006,11.953
		c0.015,0.322-0.142,0.538-0.236,0.637c-0.165,0.172-0.385,0.267-0.623,0.267H68.135c-1.664,0-3.294-0.577-4.588-1.625l-0.619-0.501
		V28.242l6.013-6.803c1.867-2.116,2.896-4.837,2.896-7.659c0-0.083,0.113-0.104,0.15-0.04c1.302,2.276,1.469,5.078,0.448,7.494
		l-1.158,2.746c-0.192,0.453-0.145,0.972,0.127,1.382s0.729,0.657,1.222,0.659L82.101,26.05z"/>
	<path fill="#FFFFFF" d="M15.521,51.029c-0.812,0-1.47,0.658-1.47,1.47s0.657,1.469,1.47,1.469h4.33l-0.81,4.894
		c-0.133,0.801,0.41,1.557,1.211,1.688c0.08,0.014,0.161,0.021,0.24,0.021c0.707,0,1.33-0.511,1.448-1.229l0.889-5.372h3.544
		l-0.81,4.893c-0.132,0.801,0.409,1.557,1.21,1.689c0.082,0.013,0.162,0.02,0.241,0.02c0.706,0,1.329-0.51,1.448-1.229l0.888-5.372
		h5.896c0.812,0,1.469-0.658,1.469-1.47s-0.657-1.469-1.469-1.469h-5.409l0.593-3.584h4.816c0.812,0,1.469-0.658,1.469-1.469
		s-0.657-1.469-1.469-1.469h-4.331l0.81-4.894c0.133-0.801-0.41-1.557-1.21-1.689c-0.801-0.133-1.557,0.409-1.689,1.209
		l-0.889,5.373h-3.544l0.81-4.894c0.132-0.8-0.409-1.557-1.21-1.689c-0.803-0.133-1.557,0.41-1.689,1.21l-0.889,5.373h-5.894
		c-0.812,0-1.47,0.658-1.47,1.469c0,0.812,0.657,1.47,1.47,1.47h5.408l-0.592,3.583H15.521z M23.908,47.446h3.544l-0.593,3.583
		h-3.544L23.908,47.446z"/>
	<path fill="#FFFFFF" d="M51.357,73.302c-1.187-0.977-2.765-1.361-4.348-0.977c-2.029,0.493-4.077,2.389-4.077,5.515
		c0,1.946,0.711,3.636,2.172,5.164c1.193,1.249,2.914,2.436,5.582,3.852c0.216,0.114,0.452,0.17,0.688,0.17
		c0.237,0,0.473-0.056,0.688-0.17c4.654-2.468,7.754-4.944,7.754-9.016c0-3.143-2.121-5.02-4.222-5.485
		C54.017,72.004,52.487,72.376,51.357,73.302L51.357,73.302z M56.879,77.84c0,2.196-1.457,3.819-5.504,6.047
		c-4.047-2.228-5.504-3.851-5.504-6.047c0-1.633,0.945-2.444,1.832-2.659c0.163-0.04,0.338-0.062,0.517-0.062
		c0.667,0,1.398,0.307,1.85,1.183c0.258,0.497,0.777,0.806,1.335,0.795c0.56-0.012,1.065-0.341,1.302-0.849
		c0.476-1.019,1.476-1.197,2.253-1.025C55.888,75.429,56.879,76.225,56.879,77.84z"/>
</g>
</svg>
