<?xml version="1.0" encoding="utf-8"?>
<!-- Generator: Adobe Illustrator 16.2.1, SVG Export Plug-In . SVG Version: 6.00 Build 0)  -->
<!DOCTYPE svg PUBLIC "-//W3C//DTD SVG 1.1//EN" "http://www.w3.org/Graphics/SVG/1.1/DTD/svg11.dtd">
<svg version="1.1" id="Capa_1" xmlns="http://www.w3.org/2000/svg" xmlns:xlink="http://www.w3.org/1999/xlink" x="0px" y="0px"
	 width="100px" height="100px" viewBox="0 0 100 100" enable-background="new 0 0 100 100" xml:space="preserve">
<g>
	<path fill="#FFFFFF" d="M98.621,67.728c-1.844-3.143-5.869-4.221-9.037-2.422L72.217,75.333c-0.338-2.742-2.319-4.994-4.994-5.68
		l-15.563-2.754c-2.227-0.506-4.371-1.322-6.373-2.42c-4.128-2.146-8.721-3.246-13.375-3.201c-4.572-0.064-9.092,0.996-13.16,3.088
		c-0.594,0.293-1.213,0.533-1.85,0.721c-2.612,0.789-5.328,1.178-8.057,1.156H2.149c-0.913,0-1.653,0.74-1.653,1.654v23.145
		c0,0.912,0.74,1.652,1.653,1.652h10.064c0.922,0,1.842,0.07,2.752,0.211l40.273,6.164c1.154,0.203,2.343-0.004,3.358-0.588
		l37.6-21.709c2.058-1.174,3.323-3.363,3.307-5.732C99.505,69.878,99.2,68.735,98.621,67.728L98.621,67.728z M94.545,73.901
		L94.545,73.901L56.938,95.616c-0.352,0.197-0.763,0.264-1.157,0.189l-40.312-6.17c-1.076-0.166-2.164-0.248-3.254-0.248H3.803
		V69.546h5.042c3.062,0.023,6.109-0.416,9.041-1.301c0.834-0.246,1.646-0.568,2.422-0.963c3.594-1.824,7.575-2.748,11.604-2.697
		c4.098-0.051,8.146,0.908,11.785,2.789c2.295,1.256,4.754,2.186,7.306,2.758l15.501,2.748c1.764,0.477,2.811,2.293,2.338,4.059
		c-0.073,0.273-0.186,0.535-0.331,0.777v0.014h-0.009c-0.771,1.26-2.267,1.881-3.703,1.537c-0.063-0.016-21.076-3.096-21.076-3.096
		c-0.898-0.16-1.756,0.441-1.915,1.34c-0.158,0.898,0.44,1.756,1.341,1.916c0.031,0.006,0.064,0.01,0.096,0.014
		c0,0,21.84,3.238,22.39,3.24h0.024c2.179,0,4.216-1.08,5.441-2.883L91.23,68.169c1.58-0.918,3.604-0.381,4.521,1.199
		c0.293,0.506,0.447,1.08,0.446,1.666C96.205,72.218,95.575,73.315,94.545,73.901z"/>
	<path fill="#FFFFFF" stroke="#FFFFFF" stroke-miterlimit="10" d="M71.118,10.757c-0.019,0.019-0.037,0.037-0.055,0.055
		c-2.148,2.149-2.148,5.634,0.001,7.783c2.15,2.149,5.635,2.149,7.784-0.001c2.148-2.149,2.148-5.633,0-7.782
		C76.728,8.662,73.269,8.637,71.118,10.757z M77.291,17.037c-1.289,1.291-3.379,1.291-4.669,0.002c-1.29-1.29-1.291-3.38-0.001-4.67
		c1.289-1.29,3.379-1.291,4.668-0.002c0.621,0.62,0.968,1.46,0.968,2.335C78.257,15.578,77.91,16.417,77.291,17.037z"/>
	<g>
		
			<rect x="30.822" y="29.723" transform="matrix(0.7065 0.7077 -0.7077 0.7065 31.3401 -13.6103)" fill="#FFFFFF" width="2.516" height="2.517"/>
		
			<rect x="52.181" y="51.083" transform="matrix(-0.7071 0.7071 -0.7071 -0.7071 128.2389 51.5653)" fill="#FFFFFF" width="2.518" height="2.518"/>
		
			<rect x="55.743" y="54.652" transform="matrix(0.7071 0.7071 -0.7071 0.7071 56.2303 -23.9306)" fill="#FFFFFF" width="2.518" height="2.517"/>
		
			<rect x="34.381" y="33.284" transform="matrix(-0.7071 0.7071 -0.7071 -0.7071 85.2642 33.7674)" fill="#FFFFFF" width="2.516" height="2.516"/>
		
			<rect x="37.94" y="36.841" transform="matrix(-0.7074 0.7068 -0.7068 -0.7074 93.856 37.3444)" fill="#FFFFFF" width="2.517" height="2.517"/>
		
			<rect x="41.498" y="40.402" transform="matrix(0.707 0.7072 -0.7072 0.707 41.99 -18.032)" fill="#FFFFFF" width="2.518" height="2.517"/>
		
			<rect x="45.056" y="43.966" transform="matrix(0.7071 0.7071 -0.7071 0.7071 45.5433 -19.5035)" fill="#FFFFFF" width="2.518" height="2.517"/>
		
			<rect x="48.621" y="47.523" transform="matrix(0.7076 0.7066 -0.7066 0.7076 49.0556 -20.9812)" fill="#FFFFFF" width="2.516" height="2.518"/>
	</g>
	<path fill="#FFFFFF" stroke="#FFFFFF" stroke-miterlimit="10" d="M93.084,28.79l-1.339-17.382
		c-0.124-1.598-1.377-2.877-2.972-3.033l-2.227-0.22l-0.22-2.258c-0.149-1.575-1.396-2.82-2.972-2.971L62.071,0.871
		c-0.982-0.097-1.956,0.252-2.653,0.951L27.464,33.775c-1.289,1.289-1.29,3.38,0,4.669c0,0,0,0,0,0l23.35,23.35
		c1.289,1.289,3.379,1.289,4.669,0c0.001,0,0.001,0,0.001,0l0.777-0.779l0.779,0.779c1.289,1.287,3.38,1.287,4.669,0l30.418-30.417
		C92.808,30.695,93.158,29.75,93.084,28.79z M53.927,60.235c-0.43,0.432-1.126,0.432-1.557,0.002c0-0.002-0.001-0.002-0.001-0.002
		L29.021,36.888c-0.43-0.43-0.431-1.126-0.001-1.557c0,0,0.001,0,0.001-0.001L60.978,3.378c0.204-0.206,0.48-0.322,0.771-0.324
		h0.111l21.288,2.072c0.524,0.051,0.939,0.465,0.99,0.991l2.061,21.289c0.03,0.326-0.087,0.648-0.317,0.881L53.927,60.235z
		 M90.568,29.821L60.153,60.235c-0.43,0.43-1.129,0.43-1.557,0l-0.779-0.777L87.435,29.84c0.7-0.697,1.049-1.671,0.954-2.653
		L86.762,10.39l1.797,0.174c0.532,0.052,0.95,0.479,0.991,1.012l1.337,17.381C90.911,29.278,90.796,29.595,90.568,29.821z"/>
</g>
</svg>
