<?xml version="1.0" encoding="utf-8"?>
<!-- Generator: Adobe Illustrator 26.2.1, SVG Export Plug-In . SVG Version: 6.00 Build 0)  -->
<svg version="1.1" id="圖層_1" xmlns="http://www.w3.org/2000/svg" xmlns:xlink="http://www.w3.org/1999/xlink" x="0px" y="0px"
	 width="431.1px" height="98.2px" viewBox="0 0 431.1 98.2" style="enable-background:new 0 0 431.1 98.2;" xml:space="preserve">
<style type="text/css">
	.st0{fill:#D71618;}
	.st1{fill:#FFFFFF;}
</style>
<path class="st0" d="M46.8,0h336c25.2,0,45.5,22,45.5,49.1l0,0c0,27.1-20.4,49.1-45.5,49.1h-336c-25.2,0-45.5-22-45.5-49.1l0,0
	C1.3,22,21.7,0,46.8,0z"/>
<g>
	<path class="st1" d="M126.3,16V9.7h4.5V16h3.9v4.4h-3.9v5.9c1-0.3,1.9-0.6,2.8-0.9l0.6,3.9c-1.1,0.6-2.3,1-3.5,1.5v9
		c0,2.3-0.3,3.9-0.9,4.7c-0.8,1-2.2,1.4-4.1,1.4c-1.1,0-2.2-0.1-3.1-0.3l-0.8-4.7c1.1,0.3,2.2,0.4,3.3,0.4c0.4,0,0.7-0.2,0.9-0.5
		c0.2-0.4,0.2-1.2,0.2-2.1v-6.2c-1,0.4-2.1,0.7-3.1,1l-1.6-4.7c1.6-0.4,3.2-0.8,4.7-1.2v-7.3h-4.4V16H126.3z M158.2,26.5v4.1h-9.3
		v2.5h7.2v4.1h-7.2v3.5c1.6,0.2,3.4,0.2,5.4,0.2c1.2,0,2.5-0.1,3.9-0.3l-1.4,4.7h-2.4c-5.3,0-9.1-0.4-11.4-1.3
		c-1.6-0.5-2.9-1.2-3.9-1.9c-0.8,1.4-1.7,2.7-2.7,3.9l-3.3-3.1c1.4-1.6,2.4-3.3,3.2-5c0.8-1.8,1.3-3.8,1.6-6l4.1,1
		c-0.2,1.9-0.6,3.7-1.2,5.3c0.8,0.6,1.8,1.2,2.8,1.6c0.2,0.1,0.5,0.2,0.7,0.3v-9.3h-9.1v-4.1H158.2z M155.1,10.4v14.7h-18.2V10.4
		H155.1z M150.8,15.9v-1.6h-9.4v1.6H150.8z M150.8,21.2v-1.7h-9.4v1.7H150.8z"/>
	<path class="st1" d="M194.4,10.4V29h-12.1v3.1h15.5v4.4h-15.5v9.3h-4.7v-9.3h-15.2v-4.4h15.2V29h-11.8V10.4H194.4z M189.8,17.6
		v-2.9h-19.5v2.9H189.8z M189.8,24.6v-3h-19.5v3H189.8z"/>
	<path class="st1" d="M209.2,23.4c-1.8-1.6-3.7-3-5.6-4.2l3-3.1c1,0.6,2,1.2,3,1.8c1-0.9,2-2,3-3.1h-9.7v-4.2h15.4v3.9
		c-1.5,2.3-3.2,4.4-5,6.1c0.4,0.4,0.8,0.7,1.2,1.1l-1.4,1.7h5.9v3.1c-1,2.5-2.1,4.6-3.3,6.3l-3.1-2c0.6-1,1.1-2.2,1.6-3.5h-2.1V40
		c0,2.2-0.3,3.7-0.9,4.5c-0.7,0.9-2,1.4-3.8,1.4c-1.4,0-2.7-0.2-3.9-0.5l-0.8-4.5c1.4,0.4,2.7,0.6,4.1,0.6c0.3,0,0.5-0.2,0.6-0.5
		c0.1-0.4,0.2-1.1,0.2-2V27.3h-5.2v-3.9H209.2z M238,10.5v4.2h-7.6l-0.3,1.9h7.3V40h-3.2c0.5,0.3,1.1,0.6,1.6,0.8
		c1,0.5,2,0.8,2.9,1.1l-2.3,4.3c-1.2-0.5-2.3-1-3.3-1.7c-1.3-0.8-2.5-1.6-3.6-2.6l2.3-1.9h-6.7l2.1,1.7c-2.2,1.8-5,3.2-8.2,4.4
		l-2.3-4.3c1.9-0.5,3.7-1.1,5.3-1.9h-2.5V16.6h5.9l0.3-1.9h-7v-4.2H238z M232.8,23.1v-2.2h-8.6v2.2H232.8z M232.8,29.5V27h-8.6v2.5
		H232.8z M232.8,35.8v-2.4h-8.6v2.4H232.8z"/>
	<path class="st1" d="M253.5,10.8c-0.9,3.2-2.1,6.3-3.5,9.3v21c1-1.6,1.8-3.4,2.4-5.5c0.6-2.4,1.1-6.7,1.3-13.1h-1.5V19h6.7v-2.9h-5
		v-3.7h5V9.6h4.4v2.9h4.4V9.6h4.4v2.9h5v3.7h-5V19h6.3v3.6h-20.8c-0.2,7.3-0.8,12.4-1.5,15.1c-0.8,3-2,5.5-3.6,7.6l-2.5-2v2.5H246
		v-18c-0.6,1-1.2,1.9-1.9,2.7l-2.3-4.4c3.5-5.2,6-10.8,7.5-16.6L253.5,10.8z M277.2,41.4c0,2.9-1.6,4.4-4.9,4.4h-1.4l-0.8-3.9
		c0.8,0.2,1.5,0.3,2.2,0.3c0.5,0,0.8-0.6,0.8-1.7v-1.2h-3.3v5.9h-4.1v-5.9h-3.3v6.6h-4.1V24.2h18.8V41.4z M265.7,30.1v-2.3h-3.3v2.3
		H265.7z M265.7,35.8v-2.2h-3.3v2.2H265.7z M267.8,19v-2.9h-4.4V19H267.8z M269.8,30.1h3.3v-2.3h-3.3V30.1z M269.8,35.8h3.3v-2.2
		h-3.3V35.8z"/>
	<path class="st1" d="M300.3,34.7l-3.8-1.2l6-21.4l5.4,1.8L300.3,34.7z M293.4,40.7l1.7-5.2l5.2,1.7l-1.7,5.2L293.4,40.7z"/>
</g>
<g>
	<path class="st1" d="M56.6,83h-9.6v2h-4.5V56h14.1V83z M52.1,67.2v-6.7h-5v6.7H52.1z M52.1,78.6v-7.2h-5v7.2H52.1z M76.5,55.1v29.3
		c0,3.9-1.7,5.8-5.2,5.8c-1.3,0-2.8-0.2-4.5-0.6l-0.9-4.9c1.6,0.6,3.2,0.9,4.7,0.9c0.9,0,1.4-1,1.4-3.1V78h-8.4
		c-0.2,1.4-0.4,2.8-0.8,4.2c-0.6,2.7-1.6,5.3-3.1,8.1l-4.2-2.5c1.5-3.4,2.5-6.3,3.1-8.8c0.6-3.1,0.8-6.1,0.8-9.2V55.1h2.2H76.5z
		 M72,73.6v-4.9h-8V72c0,0.6,0,1.2,0,1.6H72z M72,64.3v-4.9h-8v4.9H72z"/>
	<path class="st1" d="M93.5,55.4c-0.2,0.6-0.5,1.2-0.7,1.8h23.5v4.6h-11.9v4.7H115v4.5h-10.6v5.8h13.5v4.5h-13.5v9h-4.7v-9H82.4
		v-4.5h4.2v-9.8c-0.5,0.5-0.9,0.9-1.2,1.3L81.9,65c1.6-1.7,2.9-3.4,4-5.1C87.1,58,88,56,88.8,54L93.5,55.4z M99.6,61.8h-9.1
		c-0.2,0.2-0.3,0.4-0.4,0.6c-0.9,1.5-1.9,2.9-3,4.1h12.5V61.8z M99.6,71.1h-8.3v5.8h8.3V71.1z"/>
	<path class="st1" d="M143.9,54.1v2.5h14.3v4.5h-6.7v3h5.2v4.1h-5.2v6.1h-16.6v-6.1h-5.5V73c0,3.4-0.3,6.6-0.8,9.7
		c-0.4,2.5-1.2,5.1-2.1,7.7l-4.4-2.7c1-3.2,1.7-6,2.1-8.4c0.4-2.9,0.6-5.8,0.6-8.8V56.7h14.6v-2.5H143.9z M131.2,79.7v-4.1h23.5v3.2
		c-1.7,2.2-3.6,4.1-5.8,5.5c2.6,0.7,5.7,1.2,9.3,1.5l-1.7,4.6c-5.1-0.6-9.4-1.7-13.1-3.3c-3.7,1.5-7.9,2.6-12.5,3.3l-2.4-4.4
		c3.8-0.4,7.1-1,9.9-1.8c-1.7-1.3-3.2-2.8-4.5-4.5H131.2z M134.8,61.2h-5.5v3h5.5V61.2z M147,61.2h-7.8v3h7.8V61.2z M139.2,70.3h7.8
		v-2h-7.8V70.3z M148.2,79.7h-8.8c1.2,1.1,2.7,2,4.2,2.7C145.4,81.6,147,80.7,148.2,79.7z"/>
	<path class="st1" d="M167.2,89.3h-4.5V59.8h3.6c0.5-1.9,0.9-3.9,1.2-5.8l4.7,1.1c-0.3,1.7-0.7,3.3-1.1,4.7h6V67
		c1-1.7,1.9-3.5,2.7-5.6c1.1-2.6,2-5.1,2.5-7.4l4.7,1.4c-0.4,1.5-0.8,2.9-1.2,4.4H197c0,15.4-0.5,24.3-1.5,26.8
		c-0.8,2.7-2.6,4-5.5,4c-1.5,0-3.1-0.2-4.6-0.6l-0.9-4.9c2.2,0.5,4.1,0.8,5.5,0.8c0.8,0,1.4-0.6,1.6-1.9c0.4-2.2,0.7-8.8,0.7-19.7
		h-8.2c-1.1,2.9-2.3,5.3-3.7,7.4l-3.3-2.5v18.6h-4.5v-2.2h-5.3V89.3z M172.6,70.9v-6.7h-5.3v6.7H172.6z M172.6,75.2h-5.3v6.1h5.3
		V75.2z M189.4,78.8l-4.9,1.6c-0.6-3.3-1.5-6.4-2.7-9.1l4.4-1.4C187.6,72.5,188.6,75.5,189.4,78.8z"/>
	<path class="st1" d="M222.7,55.5c2.3,1,4.6,1.9,7,2.7c3.1,1,6.1,1.9,9,2.5l-2.3,4.3c-0.4-0.1-0.8-0.2-1.2-0.4v11.3h-30.1v-11
		c-0.4,0.1-0.8,0.2-1.1,0.4l-2.3-4.1c6.7-1.8,12.9-4.5,18.5-7.8L222.7,55.5z M233.9,90.4h-4.4v-0.8h-18.2v0.8h-4.4V76.9h27V90.4z
		 M233.7,64.2c-2.1-0.6-4.1-1.4-5.9-2.2v1.2h-15.9v-1c-1.6,0.7-3.1,1.3-4.7,1.9H233.7z M212.3,72c-0.5-0.9-1-1.7-1.6-2.5l2.2-1.4
		h-3.5V72H212.3z M229.5,81.6v-1h-18.2v1H229.5z M229.5,85.8v-0.9h-18.2v0.9H229.5z M216.3,70.9l-2,1.1h3.4v-3.9h-3
		C215.4,69,215.9,69.9,216.3,70.9z M222.9,59.8c-1-0.5-2-1-3-1.5c-0.9,0.6-1.8,1-2.8,1.5H222.9z M222,72h3.1l-1.5-0.8
		c0.6-1,1.1-2.1,1.5-3.1H222V72z M229.4,69c-0.5,1.2-1,2.2-1.5,3h2.9v-3.9h-4.1L229.4,69z"/>
	<path class="st1" d="M275,65.4v19.4h-6.9c1.3,0.3,2.6,0.5,4,0.7c1.8,0.3,3.7,0.6,5.4,0.7l-2.3,4.3c-1.9-0.4-3.7-0.8-5.5-1.3
		c-2.1-0.6-4.1-1.2-5.9-1.9l2.4-2.5h-11.5l2.4,2.8c-1.6,0.6-3.5,1.1-5.4,1.5c-2,0.4-4.3,0.8-6.8,1.2l-1.9-4.1
		c2.4-0.2,4.5-0.5,6.4-0.8c1-0.2,2-0.3,2.9-0.6h-6.9V65.4H275z M273.8,54.8v9.6h-26.8v-9.6H273.8z M270.5,70.7v-1.2h-20.4v1.2H270.5
		z M270.5,75.8v-1.2h-20.4v1.2H270.5z M270.5,80.8v-1.2h-20.4v1.2H270.5z M269.2,60.3v-1.4h-17.7v1.4H269.2z"/>
	<path class="st1" d="M300,59.9v4.5h-17.1v-4.5H300z M298.4,90.2H294v-1.4h-5.8v1.4h-4.4V76.7h14.6V90.2z M298.1,65.6V70h-14.1v-4.4
		H298.1z M297.9,71.1v4.4h-13.8v-4.4H297.9z M297.9,54.6V59h-13.3v-4.4H297.9z M294,84.7V81h-5.8v3.8H294z M306.7,66.5V54.1h4.7
		v12.4h7.4v4.7h-7.4v19h-4.7v-19H299v-4.7H306.7z"/>
	<path class="st1" d="M338.6,54.9v-1.1h4.2v1.1h12.9v4.2h3.1v3.1h-3.1v4.3h-12.9v0.6h12.7v3.1h-12.7v0.8h15.4v3.3h-35v-3.3h15.4
		v-0.8h-12.4v-3.1h12.4v-0.6h-11.6v-3.5h11.6v-0.8H323v-3.1h15.5v-0.8h-11.6v-3.5H338.6z M358.5,86.9v3.5H323v-3.5H358.5z M355.7,75
		v11.3h-29.5V75H355.7z M338.7,79.1v-0.8h-8.2v0.8H338.7z M338.7,83v-0.9h-8.2V83H338.7z M342.8,59.1h8.6v-0.8h-8.6V59.1z
		 M342.8,63.1h8.6v-0.8h-8.6V63.1z M342.9,79.1h8.3v-0.8h-8.3V79.1z M342.9,83h8.3v-0.9h-8.3V83z"/>
	<path class="st1" d="M380.2,79.1l-3.7-1.5l7.3-21l5.3,2.1L380.2,79.1z M372.9,84.6l2-5.1l5.1,2l-2,5.1L372.9,84.6z"/>
</g>
</svg>
